<?xml version="1.0" encoding="UTF-8" standalone="no"?>
<!-- Created with Inkscape (http://www.inkscape.org/) -->

<svg
   xmlns:dc="http://purl.org/dc/elements/1.1/"
   xmlns:cc="http://creativecommons.org/ns#"
   xmlns:rdf="http://www.w3.org/1999/02/22-rdf-syntax-ns#"
   xmlns:svg="http://www.w3.org/2000/svg"
   xmlns="http://www.w3.org/2000/svg"
   xmlns:sodipodi="http://sodipodi.sourceforge.net/DTD/sodipodi-0.dtd"
   xmlns:inkscape="http://www.inkscape.org/namespaces/inkscape"
   width="642.58917"
   height="586.06531"
   viewBox="0 0 642.58918 586.06532"
   id="svg5466"
   version="1.1"
   inkscape:version="0.91 r13725"
   sodipodi:docname="Vev-color.svg">
  <defs
     id="defs5468" />
  <sodipodi:namedview
     id="base"
     pagecolor="#ffffff"
     bordercolor="#666666"
     borderopacity="1.0"
     inkscape:pageopacity="0.0"
     inkscape:pageshadow="2"
     inkscape:zoom="1.4"
     inkscape:cx="434.20502"
     inkscape:cy="239.28975"
     inkscape:document-units="px"
     inkscape:current-layer="layer1"
     showgrid="false"
     fit-margin-top="5"
     fit-margin-right="5"
     fit-margin-bottom="5"
     fit-margin-left="5"
     units="px"
     inkscape:window-width="1920"
     inkscape:window-height="1137"
     inkscape:window-x="1672"
     inkscape:window-y="-8"
     inkscape:window-maximized="1" />
  <metadata
     id="metadata5471">
    <rdf:RDF>
      <cc:Work
         rdf:about="">
        <dc:format>image/svg+xml</dc:format>
        <dc:type
           rdf:resource="http://purl.org/dc/dcmitype/StillImage" />
        <dc:title></dc:title>
      </cc:Work>
    </rdf:RDF>
  </metadata>
  <g
     inkscape:label="Layer 1"
     inkscape:groupmode="layer"
     id="layer1"
     transform="translate(-35.687646,-173.32574)">
    <path
       style="fill:#8f919a;fill-opacity:1"
       d="m 355.15187,752.79109 c -9.88289,-4.48417 -14.11755,-11.51826 -29.45178,-48.92141 -2.79787,-6.82454 -6.48233,-12.31452 -12.35675,-18.41193 -4.60361,-4.7784 -8.77116,-10.51342 -9.26119,-12.74448 -0.87552,-3.98634 2.79547,-15.97906 4.89125,-15.97906 0.55647,0 2.26802,-1.1336 3.80343,-2.51908 1.53544,-1.38552 5.27611,-4.37599 8.31258,-6.64551 4.34,-3.24378 5.32629,-4.78326 4.61116,-7.19739 -2.72906,-9.21302 -5.67839,-20.19097 -8.17288,-30.4211 -1.54441,-6.33371 -4.65285,-17.99349 -6.90765,-25.91063 -2.2548,-7.91714 -4.50579,-16.17617 -5.00222,-18.35336 -0.49643,-2.17723 -1.40449,-3.95857 -2.01793,-3.95857 -1.49063,0 -8.25992,21.08201 -11.09298,34.54751 -1.30804,6.21711 -2.64256,22.24357 -3.14651,37.78633 -0.4813,14.84462 -1.39626,26.99024 -2.03325,26.99024 -1.5913,0 -6.18583,-5.08206 -10.95281,-12.11501 -2.19143,-3.23317 -4.32688,-6.20236 -4.74542,-6.59822 -0.41853,-0.39586 -3.00211,-3.63469 -5.74128,-7.1974 -5.99582,-7.79852 -4.98642,-6.67714 -20.28246,-22.53287 -17.21265,-17.84248 -37.23009,-35.50707 -56.02646,-49.4411 -7.55848,-5.60326 -26.2467,-21.91665 -29.68258,-25.91063 -1.70271,-1.97929 -4.53279,-5.21811 -6.28908,-7.1974 -7.41559,-8.35717 -7.89583,-9.84828 -4.37787,-13.59297 1.76169,-1.87526 8.04307,-5.73921 13.95863,-8.58656 5.96926,-2.87323 10.35488,-5.82535 9.85519,-6.63386 -0.49519,-0.80128 -3.30223,-2.68216 -6.23788,-4.17983 -2.93561,-1.49763 -9.29628,-5.69887 -14.13479,-9.33605 -4.83851,-3.63718 -9.2237,-6.61303 -9.7448,-6.61303 -0.52112,0 -2.45914,-1.45749 -4.30673,-3.23886 -1.84758,-1.78134 -6.90793,-6.01491 -11.24521,-9.40796 -7.46108,-5.83677 -26.41064,-24.77792 -34.167956,-34.1528 -9.82823,-11.87759 -30.04156,-44.59399 -28.50256,-46.13298 0.28566,-0.28566 3.1848,1.88386 6.44221,4.82142 3.25739,2.93759 7.12565,6.31273 8.59609,7.5003 7.19424,5.81025 18.63643,15.26081 20.03481,16.54755 0.864256,0.7953 3.703616,3.06535 6.309646,5.04464 2.60607,1.97928 6.10941,4.80575 7.78525,6.28102 1.67581,1.47525 5.31411,4.39019 8.08511,6.47766 2.771,2.08744 5.92096,4.63186 6.9999,5.65424 1.07894,1.02242 12.09096,9.38458 24.47115,18.58263 12.3802,9.19805 24.77661,18.42537 27.54761,20.50516 8.76253,6.57676 35.16191,24.03227 37.78633,24.98463 5.71842,2.07512 1.03793,5.84 -11.8757,9.55248 -3.56271,1.02424 -8.09707,2.35976 -10.07636,2.96786 -1.97928,0.60806 -6.35169,1.93213 -9.71648,2.94239 -3.3648,1.01026 -6.11779,2.40211 -6.11779,3.09302 0,3.3293 39.57138,40.02793 43.16129,40.02793 1.88415,0 17.12836,-17.08739 19.6693,-22.04748 6.99343,-11.83947 15.37157,-23.98237 19.19475,-37.30474 1.47549,-3.07102 2.11063,-6.00518 2.90395,-9.00217 0,-2.70206 -1.56513,-4.14071 -7.55727,-6.94641 -22.00791,-10.30489 -26.88772,-12.50748 -27.70998,-12.50748 -0.49563,0 -5.23276,-2.00964 -10.52691,-4.46584 -5.29419,-2.45627 -13.5124,-6.27037 -18.26268,-8.47585 -30.50148,-14.16134 -55.60447,-27.26016 -66.1596,-34.52227 -3.48318,-2.39651 -6.69479,-4.3573 -7.13687,-4.3573 -0.44211,0 -1.9448,-0.93554 -3.33937,-2.07899 -1.39454,-1.14343 -6.74601,-5.14294 -11.89215,-8.8878 -13.581256,-9.88308 -41.325976,-38.32044 -50.234496,-51.48855 -7.42769,-10.97923 -15.66986,-27.38213 -21.61088,-43.00816 -2.87393,-7.55902 2.31206,-4.28801 12.58636,7.93876 10.80051,12.85296 27.12757,28.9702 41.98527,41.44575 5.146136,4.32103 9.680496,8.21153 10.076356,8.64552 0.39585,0.43402 2.98692,2.34609 5.75791,4.24908 2.771,1.903 5.36206,3.87275 5.75792,4.37721 1.35708,1.72942 35.26335,23.92162 43.90412,28.736 19.29872,10.7526 38.30695,19.99901 58.29892,28.35909 2.771,1.15875 6.00983,2.57085 7.1974,3.138 1.18757,0.56716 10.90406,3.80327 21.59219,7.19142 27.82194,8.81959 27.82005,8.81905 28.48206,8.15705 0.33114,-0.33114 -0.80525,-3.41991 -2.5253,-6.86398 -2.03047,-4.06557 -5.94415,-8.26341 -11.1583,-11.96835 -17.14324,-12.18125 -20.11769,-14.82686 -28.66647,-25.49727 -18.46241,-23.04444 -38.18254,-60.33725 -54.99665,-104.00444 -11.46242,-29.76849 -14.96016,-39.15518 -23.3331,-62.61735 -13.75183,-38.53474 -16.51246,-46.0437 -20.50711,-55.77983 -4.06615,-9.91043 -2.94435,-11.36764 3.46732,-4.50394 9.5552,10.22888 26.71155,42.05174 53.84165,99.86945 22.04419,46.97901 35.72602,71.58333 51.1742,92.02752 3.94347,5.21885 14.69731,17.0412 21.48346,23.61812 7.70106,7.46363 19.98964,16.85396 20.73618,15.84563 1.21147,-1.63624 6.652,-31.74657 6.64016,-36.74953 -0.0128,-5.22058 -0.92402,-6.96497 -6.85176,-13.10998 -28.7887,-29.84386 -39.67871,-44.3359 -52.7772,-70.23402 -8.65934,-17.12104 -12.42502,-27.69344 -16.74387,-47.0096 -3.1935,-14.28296 -2.40948,-18.6804 -1.3733,-16.92914 2.44119,3.02074 2.58809,4.59275 6.27252,10.40827 4.80946,7.54831 8.7934,14.71295 21.73176,39.08228 10.73829,20.22555 21.64203,35.09179 36.02272,49.11379 9.35668,9.12329 27.12961,22.52434 34.87395,26.29545 2.53825,1.236 4.88047,2.95058 5.2049,3.81021 0.56824,1.50553 -0.67918,20.23518 -2.64468,39.7091 -1.88201,18.6465 -10.39202,54.40874 -16.65187,69.97741 -1.65261,4.11016 -1.48813,4.81931 1.98741,8.56756 2.08408,2.24757 4.21819,3.65752 4.74245,3.13327 1.1749,-1.17491 2.04697,-5.66333 8.31824,-42.8123 4.90571,-29.05986 5.76329,-35.44542 7.44288,-55.41996 1.64404,-19.55181 3.7041,-34.64322 5.88753,-43.13067 2.63559,-10.24516 8.95407,-21.7158 10.8936,-19.77631 1.39844,1.39847 1.91502,53.24008 0.59172,59.38576 -0.417,1.93667 -1.12033,8.70335 -1.56292,15.03706 -0.4426,6.33371 -1.42646,19.61291 -2.18641,29.50933 -1.96134,25.54215 -1.85572,27.87785 1.43196,31.66854 1.58343,1.82571 2.87896,3.82185 2.87896,4.4359 0,0.61402 0.83576,1.97238 1.85721,3.01856 2.33187,2.38826 13.97706,22.59721 13.97706,24.25561 0,0.67544 0.61069,1.6055 1.35708,2.06678 0.74639,0.4613 2.5966,-1.92961 4.11157,-5.31309 1.51497,-3.38348 5.76825,-10.1349 9.45172,-15.00312 11.77264,-15.55924 12.79495,-21.03652 8.85033,-47.41792 -3.4845,-23.30422 -6.34238,-53.55878 -6.5146,-68.9655 -0.29717,-26.58568 0.01,-33.82776 1.43289,-33.82776 1.91534,0 7.80374,11.87855 10.70358,21.59219 1.29998,4.35442 3.65145,18.28139 5.22557,30.94881 1.57409,12.66742 3.12025,24.97496 3.43594,27.35011 0.98525,7.41239 6.43156,36.79763 9.47123,51.10152 1.59837,7.52128 3.6598,17.41466 4.581,21.98529 1.78054,8.83415 2.99153,9.4674 7.23524,3.7834 2.62315,-3.51341 2.58419,-3.78048 -3.03125,-20.7817 -8.64574,-26.17572 -13.39158,-48.4609 -16.58917,-77.89839 -1.70032,-15.65315 -1.10488,-22.09425 2.04239,-22.09425 0.85298,0 6.35569,-3.24222 12.22822,-7.20498 14.19209,-9.57673 33.13052,-28.86556 43.20048,-43.99973 6.99555,-10.5137 25.16354,-41.71685 25.16354,-43.21794 0,-1.8353 13.42973,-27.89708 15.87755,-30.81206 l 3.02201,-3.5987 -0.95488,9.97253 c -1.97299,20.60477 -14.0379,54.22042 -26.38595,73.51728 -5.04698,7.88719 -23.2451,32.42165 -26.80378,36.13653 -10.68442,11.15334 -17.70089,19.09742 -19.84773,22.47162 -3.43726,5.40243 -3.05858,14.29211 1.14979,26.99034 1.95865,5.91005 3.57112,12.06382 3.58325,13.67505 0.0461,6.13804 2.00845,6.45421 7.91272,1.27496 20.41969,-17.91218 32.59794,-32.84019 48.36488,-59.28528 5.0344,-8.44392 19.06526,-37.70051 31.17967,-65.01463 28.47463,-64.20101 33.7667,-74.81992 49.65068,-99.62762 9.24885,-14.44486 11.82162,-16.73584 9.13241,-8.13223 -3.2799,10.49342 -34.21742,103.95828 -35.43103,107.04011 -0.62355,1.58343 -2.55363,7.08944 -4.2891,12.23558 -3.1064,9.21125 -9.07541,25.31222 -11.47348,30.9488 -0.67368,1.58343 -3.97002,9.35662 -7.3252,17.27376 -11.68905,27.58244 -23.64178,49.16644 -34.36171,62.04975 -2.04592,2.45879 -4.89961,6.12412 -6.34155,8.14515 -1.44194,2.02103 -6.56182,6.48693 -11.37749,9.92425 -13.6286,9.72772 -18.32786,14.16144 -21.4073,20.19763 -4.58886,8.99489 -2.83417,9.32734 13.81431,2.61739 1.58342,-0.63817 5.14613,-1.95012 7.91713,-2.91546 2.771,-0.96535 7.78413,-2.974 11.14026,-4.4637 3.35616,-1.48973 6.49049,-2.70859 6.96513,-2.70859 3.50827,0 54.57556,-26.0612 73.80854,-37.66676 5.02913,-3.03468 9.42863,-5.51762 9.77669,-5.51762 0.34804,0 1.91217,-1.19192 3.47587,-2.64871 1.56369,-1.45678 4.60444,-3.56204 6.7572,-4.67831 2.15276,-1.11627 4.89484,-2.81312 6.09348,-3.77083 1.19863,-0.95767 6.47802,-4.88636 11.73182,-8.73041 5.2538,-3.84405 13.0111,-9.86203 17.2384,-13.3733 12.5821,-10.45104 41.924,-40.67256 47.3423,-48.76164 7.0448,-10.51715 14.3948,-17.3501 14.3948,-13.38197 0,3.41172 -11.919,31.68377 -15.9215,37.76599 -1.3025,1.97928 -5.359,8.15183 -9.0143,13.71673 -8.2926,12.62443 -27.7013,33.50482 -41.5545,44.70544 -5.787,4.67891 -10.8457,8.83248 -11.2416,9.23013 -0.3958,0.39762 -1.7703,1.37074 -3.0544,2.16245 -1.2841,0.79172 -6.1423,4.09676 -10.7961,7.34455 -10.30232,7.18978 -26.82118,17.22369 -39.4102,23.93857 -5.14614,2.7449 -11.80546,6.38368 -14.79845,8.08613 -14.95218,6.21953 -29.84418,15.02023 -42.06099,21.16972 -29.19801,14.67348 -31.64999,16.19872 -31.43061,19.55124 0.29557,4.51638 13.84968,33.43616 18.58342,39.65043 4.58218,7.41472 17.6477,23.86363 24.13524,24.92708 5.36021,0 39.77503,-34.99419 39.8081,-40.47823 0.006,-0.90348 -5.7511,-2.55424 -20.14734,-5.77746 -3.46045,-0.53631 -15.61157,-4.36254 -17.38936,-6.42465 -1.60143,-1.92958 -1.54401,-2.50198 0.3577,-3.56623 1.24592,-0.69725 6.07355,-4.08137 10.72809,-7.52026 9.54602,-7.0529 31.12474,-22.78853 36.4473,-26.57813 1.93232,-1.37582 6.24216,-4.76868 9.57737,-7.53967 3.33517,-2.771 10.30756,-8.49927 15.4941,-12.72955 5.18658,-4.23024 10.91711,-8.99076 12.73457,-10.57889 1.81746,-1.5881 5.81896,-4.92855 8.89226,-7.42314 3.0732,-2.49462 6.9845,-5.8312 8.6916,-7.41463 1.7071,-1.58343 7.2894,-6.44167 12.4049,-10.7961 14.3282,-12.19639 16.9284,-14.49927 26.399,-23.37999 4.8479,-4.546 9.3306,-8.27067 9.9617,-8.27701 1.041,-0.01 -11.0016,24.6452 -13.7045,28.0583 -0.627,0.79172 -4.8396,6.62161 -9.3612,12.95532 -12.655,17.72642 -35.6254,41.47255 -52.21704,53.98048 -2.62552,1.97928 -8.69814,6.72215 -13.49471,10.53968 -4.7966,3.81753 -10.52355,8.00574 -12.72663,9.3071 -2.20304,1.30138 -4.00556,2.71613 -4.00556,3.14388 0,0.42775 2.10526,1.62604 4.67831,2.66288 2.57309,1.03684 5.80312,2.49049 7.17785,3.23035 10.37942,5.62277 7.39763,3.89591 10.37942,5.62277 1.93731,1.03681 3.87962,2.81616 4.31629,3.95409 1.68464,4.39006 -17.94468,26.3522 -38.95951,43.58961 -5.30864,4.35443 -10.37222,8.5649 -11.25235,9.35662 -0.88016,0.79171 -5.79515,4.98524 -10.92219,9.31893 -5.12707,4.3337 -9.69416,8.39853 -10.14907,9.03302 -0.4549,0.63449 -7.92331,8.42464 -16.59639,17.31147 -18.82699,19.29088 -26.51291,28.3794 -36.1849,42.78821 -3.98586,5.93785 -8.53541,11.95798 -10.11017,13.37811 -2.84054,2.56153 -2.871,2.42456 -3.84168,-17.27376 -1.12686,-22.86741 -4.07619,-43.31045 -8.10511,-56.17949 -4.32045,-13.80029 -8.64679,-24.85425 -9.7272,-24.85335 -0.8244,6.7e-4 -2.09255,5.45182 -6.82339,29.3301 -1.06851,5.39312 -6.68321,27.7539 -9.26174,36.88516 -4.69644,16.63149 -4.87858,18.59234 -1.83898,19.79661 1.49351,0.59169 5.75018,3.01885 9.45927,5.39364 12.6622,8.10718 14.14925,20.78375 3.77595,32.18861 -7.79162,8.56647 -11.94445,16.02093 -18.6761,33.52436 -6.80221,17.68695 -10.53363,24.98143 -15.6028,30.50145 -7.04901,7.67585 -14.18748,9.75068 -21.7468,6.32075 z m 13.28029,-13.65138 c 3.85256,-9.53578 10.90006,-31.0948 11.95443,-36.56978 0.86042,-4.46776 9.62548,-27.77297 10.74213,-28.56196 0.56024,-0.39586 1.78617,-2.17723 2.72426,-3.95857 1.41815,-2.69298 1.33318,-3.23883 -0.50426,-3.23883 -2.94972,0 -7.21189,4.42016 -10.69956,11.09624 -4.44172,8.50224 -9.05167,12.90823 -15.53956,14.85204 -11.60006,3.47548 -24.21243,-3.3498 -26.84406,-14.52687 -1.29793,-5.5126 -5.82621,-9.98193 -10.11355,-9.98193 -4.5748,0 -4.67761,0.62042 -0.78538,4.73848 5.82608,6.16417 8.06249,11.59453 17.87779,43.41048 4.77517,15.4785 13.23831,32.4697 16.1666,32.45719 0.60362,-0.003 2.86316,-4.375 5.02116,-9.71649 z m -0.90595,-71.61788 c 2.73588,-4.14688 0.35005,-7.04497 -5.79969,-7.04497 -6.89699,0 -9.03465,2.22918 -6.81315,7.10482 1.38468,3.03906 2.53131,3.64496 6.20326,3.27789 2.53786,-0.25367 5.33634,-1.711 6.40958,-3.33774 z m -21.76563,-51.25781 c -10.80902,-43.16954 -11.04788,-44.53472 -10.42369,-59.57363 0.41422,-9.97956 1.3923,-15.99476 3.18874,-19.61105 3.32657,-6.69643 6.11392,-6.02637 11.59782,2.78801 3.80531,6.11635 4.2481,6.42533 4.73938,3.30703 1.2588,-7.98994 -10.84651,-34.39917 -21.18719,-46.22239 -4.29531,-4.91115 -4.46194,-4.96671 -6.60907,-2.20371 -4.10075,5.27707 -5.39984,13.91733 -4.55169,30.27356 1.59232,30.70624 11.46155,73.83951 24.04362,105.082 3.33729,8.28683 2.91703,0.99699 -0.79792,-13.83982 z m 31.91147,6.59204 c 7.67735,-21.21818 14.92551,-53.54035 17.89932,-79.81945 2.04643,-18.08383 1.04538,-39.09735 -2.23401,-46.89607 l -2.38266,-5.6662 -6.38559,6.92792 c -3.51208,3.81037 -6.38557,7.48875 -6.38557,8.1742 0,0.68541 -0.82757,2.10221 -1.83904,3.1484 -4.51869,4.67376 -14.26358,33.06247 -12.094,35.23206 1.38769,1.38769 3.71527,-0.92821 6.20413,-6.1731 2.94444,-6.20496 5.53416,-7.41405 9.05509,-4.22762 8.25164,7.4676 7.73202,36.30904 -1.29409,71.83117 -6.56524,25.83735 -6.31257,24.41082 -4.19938,23.70644 0.87485,-0.29174 2.51995,-3.09862 3.6558,-6.23775 z m -14.60304,-37.3281 c 0,-11.37428 -0.49662,-21.17714 -1.1036,-21.78412 -0.60698,-0.60701 -1.90251,-0.30389 -2.87896,0.67374 -1.20043,1.20177 -1.76451,6.99776 -1.74183,17.89753 0.0397,19.03072 1.47313,28.14464 4.02545,25.59231 1.14791,-1.14793 1.69894,-8.40617 1.69894,-22.37946 z m -91.40695,18.13303 c 0,-4.08687 4.64639,-17.66408 12.86626,-37.59655 9.23964,-22.40537 11.45433,-33.94152 8.9131,-46.42743 -1.00856,-4.95549 -2.74982,-9.94949 -3.86945,-11.09778 -3.44397,-3.53223 -9.69774,4.2583 -20.87203,26.00103 -10.81277,21.0393 -19.3404,28.46085 -26.40044,35.12707 -2.35503,2.22366 -5.18494,3.25911 -5.18494,3.82969 0,1.29642 12.82493,16.64867 17.4446,20.88227 4.79759,4.39665 14.72859,11.75633 16.02329,11.87455 0.59381,0.0544 1.07961,-1.11255 1.07961,-2.59285 z m 183.6502,-3.13851 c 2.62612,-1.62306 10.32324,-8.91041 17.1047,-16.19415 l 12.32991,-13.24314 -3.97949,-2.86329 c -6.25,-4.4969 -20.42926,-19.05448 -22.07186,-22.66073 -6.00305,-13.17946 -24.25782,-41.41178 -26.77649,-41.41178 -0.93906,0 -3.11629,3.72464 -4.83826,8.27701 -4.57047,12.08273 -3.36256,23.21503 4.42225,40.75521 11.52204,25.96069 16.15457,38.09106 16.86996,44.17408 0.39573,3.36476 1.04461,6.11778 1.44197,6.11778 0.39736,0 2.87116,-1.32796 5.49731,-2.95099 z"
       id="path5519"
       inkscape:connector-curvature="0"
       sodipodi:nodetypes="sssssssssssssssssssssssscssssssssscssscsssscssscccsssssssssssscsssssssssssssssssccsssccssscssssssscssssssscsssssssssssssssssscssssscssssssssssssssssssssscssssscscsssccscccccsssssscsssccssscssccsscsssscsscsscssssssscsssssssscsssscsssssssssssssscssssssscssccsssssscsssscscscsssssssc" />
  </g>
</svg>
