<?xml version="1.0" encoding="UTF-8" standalone="no"?>
<!-- Created with Inkscape (http://www.inkscape.org/) -->

<svg
   xmlns:dc="http://purl.org/dc/elements/1.1/"
   xmlns:cc="http://creativecommons.org/ns#"
   xmlns:rdf="http://www.w3.org/1999/02/22-rdf-syntax-ns#"
   xmlns:svg="http://www.w3.org/2000/svg"
   xmlns="http://www.w3.org/2000/svg"
   version="1.1"
   width="487.71265"
   height="530.44098"
   id="svg3127">
  <defs
     id="defs3129" />
  <metadata
     id="metadata3132">
    <rdf:RDF>
      <cc:Work
         rdf:about="">
        <dc:format>image/svg+xml</dc:format>
        <dc:type
           rdf:resource="http://purl.org/dc/dcmitype/StillImage" />
        <dc:title></dc:title>
      </cc:Work>
    </rdf:RDF>
  </metadata>
  <g
     transform="translate(382.97233,-251.67825)"
     id="layer1">
    <g
       transform="translate(1583.2805,240.23825)"
       id="Zircon">
      <g
         id="g46">
        <path
           d="m -1681.255,432 c 0.025,5 -16.336,24.406 -24.668,40.668 -2.139,4.178 2.484,21.729 5.334,18 17.842,-23.334 39,-51.994 39,-60 0,-10.002 -20.666,-32.668 -31,-47.334 -3.248,-4.611 -6.365,16.527 -5,22 1.895,7.586 16.293,18.85 16.334,26.666 z"
           id="path48"
           style="fill:#152f51" />
        <path
           d="m -1571.255,284.498 c -5.105,8.367 -32,32.836 -46,62.836 -6.063,12.992 -26.668,64.666 -19.334,54.666 21.227,-28.939 72.529,-89.076 95.334,-107.332 8.328,-6.668 2.018,-14.662 -1,-18 -7.834,-8.668 -33.508,-20.838 -38.668,-32.334 -4.838,-10.779 -2,-19.334 5,-47 2.719,-10.742 -15.402,14 -15,41.334 0.561,38 24.445,38 19.668,45.83 z"
           id="path50"
           style="fill:#152f51" />
        <path
           d="m -1505.923,288 c 0.705,6.902 -7.834,18.561 -9.332,25.334 -2.146,9.701 2.088,46.861 3.666,39.334 1.908,-9.104 9.623,-26.852 14.334,-34.334 4.973,-7.898 19.668,-21.053 18.666,-30.334 -2.23,-20.666 -28.58,-26.699 -36,-48.666 -3.957,-11.715 18.994,-22.066 23.334,-30.666 5.01,-9.934 -1.584,-53.896 -6.668,-44 -11.643,22.664 -21.332,39.332 -39.332,48.666 -6.518,3.379 -1.334,29.334 -1.334,29.334 0,0 31.246,31.436 32.666,45.332 z"
           id="path52"
           style="fill:#152f51" />
        <path
           d="m -1763.536,432 c -0.025,5 16.336,24.406 24.666,40.668 2.141,4.178 -2.482,21.729 -5.334,18 -17.842,-23.334 -39,-51.994 -39,-60 0,-10.002 20.668,-32.668 31,-47.334 3.25,-4.611 6.367,16.527 5,22 -1.893,7.586 -16.293,18.85 -16.332,26.666 z"
           id="path54"
           style="fill:#152f51" />
        <path
           d="m -1873.536,284.498 c 5.104,8.367 32,32.836 46,62.836 6.063,12.992 26.666,64.666 19.332,54.666 -21.227,-28.939 -72.527,-89.076 -95.332,-107.332 -8.328,-6.668 -2.018,-14.662 1,-18 7.832,-8.668 33.506,-20.838 38.666,-32.334 4.84,-10.779 2,-19.334 -5,-47 -2.717,-10.742 15.404,14 15,41.334 -0.561,38 -24.443,38 -19.666,45.83 z"
           id="path56"
           style="fill:#152f51" />
        <path
           d="m -1938.87,288 c -0.705,6.902 7.834,18.561 9.334,25.334 2.145,9.701 -2.09,46.861 -3.668,39.334 -1.908,-9.104 -9.623,-26.852 -14.332,-34.334 -4.973,-7.898 -19.67,-21.053 -18.668,-30.334 2.23,-20.666 28.58,-26.699 36,-48.666 3.957,-11.715 -18.992,-22.066 -23.332,-30.666 -5.012,-9.934 1.582,-53.896 6.666,-44 11.645,22.664 21.334,39.332 39.334,48.666 6.516,3.379 1.332,29.334 1.332,29.334 0,0 -31.244,31.436 -32.666,45.332 z"
           id="path58"
           style="fill:#152f51" />
        <path
           d="m -1664.593,292 c 15.67,-8.5 32.6,-22.949 40.67,-33.33 17.791,-22.879 20.191,-31.049 21.33,-61.34 0.461,-12.1 -17.85,34.391 -26.33,44 -5.309,6.02 -30.5,33.17 -30,23.34 0.721,-14.15 0.801,-43.34 4.33,-57.67 2.891,-11.721 22.871,-14.299 35.34,-27 13.541,-13.789 16.68,-22 16.66,-40.67 0,-4.93 -22.83,21.67 -45.33,36.67 -4.58,3.051 1.43,-33.039 -2,-43.33 -6.469,-19.42 -34.529,-39.17 -52.67,-62.67 -9.969,-12.92 27.701,42.371 28.67,58.67 1.391,23.35 -1,49.83 -3.33,72.66 -0.879,8.541 -28.01,30.529 -36.289,30.121 -1.541,-0.07 -2.43,-0.922 -2.381,-2.781 1.5,-52.17 1.57,-172.92 -4,-216 -0.1,-0.82 -1.1,-1.16 -2.459,-1.23 h -0.031 c -1.359,0.07 -2.359,0.41 -2.459,1.23 -5.57,43.08 -5.5,163.83 -4,216 0.049,1.859 -0.84,2.711 -2.381,2.781 -8.279,0.408 -35.41,-21.58 -36.289,-30.121 -2.33,-22.83 -4.721,-49.311 -3.33,-72.66 0.969,-16.299 38.639,-71.59 28.67,-58.67 -18.141,23.5 -46.201,43.25 -52.67,62.67 -3.43,10.291 2.58,46.381 -2,43.33 -22.5,-15 -45.33,-41.6 -45.33,-36.67 -0.02,18.67 3.119,26.881 16.66,40.67 12.469,12.701 32.449,15.279 35.34,27 3.529,14.33 3.609,43.52 4.33,57.67 0.5,9.83 -24.691,-17.32 -30,-23.34 -8.48,-9.609 -26.791,-56.1 -26.33,-44 1.139,30.291 3.539,38.461 21.33,61.34 8.07,10.381 25,24.83 40.67,33.33 9.16,4.971 7.59,39.43 -1.34,41.67 -10.93,2.73 -32.98,-27.17 -54.66,-45.67 -5.82,-4.959 8.549,21.451 13,27.67 10.98,15.361 47.84,46.33 50.33,56.33 1.34,5.4 -13.691,23.32 -9,20.33 12.539,-7.99 17.109,-9.65 22.33,-26.33 2.529,-8.08 20.469,19.641 24,27.33 1.77,3.85 3.209,10.111 4.289,16.41 1.041,6.08 1.74,12.201 2.051,16.26 2.23,28.6 -2.871,81.301 4.33,114.67 0.17,0.781 1.16,1.121 2.479,1.211 1.32,-0.09 2.301,-0.43 2.471,-1.211 7.201,-33.369 2.1,-86.07 4.33,-114.67 0.32,-4.059 1.01,-10.18 2.051,-16.26 1.08,-6.299 2.52,-12.561 4.289,-16.41 3.531,-7.689 21.471,-35.41 24,-27.33 5.221,16.68 9.791,18.34 22.33,26.33 4.691,2.99 -10.34,-14.93 -9,-20.33 2.49,-10 39.35,-40.969 50.33,-56.33 4.451,-6.219 18.82,-32.629 13,-27.67 -21.68,18.5 -43.73,48.4 -54.66,45.67 -8.931,-2.24 -10.501,-36.699 -1.341,-41.67 z m -94.279,-62.67 c 0,-5.439 22.33,2.67 22.33,16 0,12.1 1,32.67 0.34,54.67 -0.24,7.67 -20.441,-12 -22.67,-22.67 -3.301,-15.75 0,-42.25 0,-48 z m 23.33,127.67 c 0,9.631 -23.33,-4.199 -23.33,-19 0,-27 0,0 0,-27 0,-6.93 23.709,8.08 23.33,15 -0.43,8 0,0 0,31 z m 49.619,-19 c 0,14.801 -23.33,28.631 -23.33,19 0,-31 0.43,-23 0,-31 -0.379,-6.92 23.33,-21.93 23.33,-15 0,27 0,0 0,27 z m 0,-60.67 c -2.23,10.67 -22.43,30.34 -22.67,22.67 -0.66,-22 0.34,-42.57 0.34,-54.67 0,-13.33 22.33,-21.439 22.33,-16 0,5.75 3.301,32.25 0,48 z"
           id="path60"
           style="fill:#152f51" />
      </g>
    </g>
  </g>
</svg>
