<?xml version="1.0" encoding="UTF-8" standalone="no"?>
<!-- Created with Inkscape (http://www.inkscape.org/) -->

<svg
   xmlns:dc="http://purl.org/dc/elements/1.1/"
   xmlns:cc="http://creativecommons.org/ns#"
   xmlns:rdf="http://www.w3.org/1999/02/22-rdf-syntax-ns#"
   xmlns:svg="http://www.w3.org/2000/svg"
   xmlns="http://www.w3.org/2000/svg"
   version="1.1"
   width="494.72772"
   height="509.728"
   id="svg3127">
  <defs
     id="defs3129" />
  <metadata
     id="metadata3132">
    <rdf:RDF>
      <cc:Work
         rdf:about="">
        <dc:format>image/svg+xml</dc:format>
        <dc:type
           rdf:resource="http://purl.org/dc/dcmitype/StillImage" />
        <dc:title></dc:title>
      </cc:Work>
    </rdf:RDF>
  </metadata>
  <g
     transform="translate(373.19331,-287.25523)"
     id="layer1">
    <g
       transform="translate(2260.1611,271.68423)"
       id="Garnet">
      <path
         d="m -2138.806,185.63 -26.296,26.296 c 0,0 -13.754,-40.496 -20.169,-51.725 -6.916,-12.069 -30.662,-46.439 -30.662,-46.439 l -2.63,-48.227 c 0,0 -7.835,38.551 -12.28,50.855 -3.864,10.704 -13.99,28.506 -21.037,40.313 -12.857,21.564 -58.955,72.315 -69.685,72.315 -12.807,-0.026 -10.78,-47.78 -14.463,-87.225 -2.945,-31.478 2.63,-126.222 -5.26,-126.222 -7.889,0 -3.338,103.869 -3.497,138.502 -0.105,22.377 0.5,87.357 18.407,87.646 9.861,0.158 54.485,-40.759 67.477,-56.09 9.677,-11.413 28.926,-43.836 28.926,-43.836 0,0 22.563,19.275 27.611,27.611 6.258,10.308 19.722,48.647 19.722,48.647 0,0 -37.998,14.805 -50.83,19.302 -12.622,4.418 -55.618,21.353 -56.959,21.879 1.027,-1.184 27.034,-31.241 21.459,-29.769 -5.838,1.552 -56.773,36.604 -59.167,44.704 -1.551,5.26 32.608,-2.104 42.942,-5.259 12.279,-3.734 36.367,-13.7 48.227,-17.54 10.021,-3.234 41.181,-8.757 41.181,-8.757 l -34.186,44.704 -68.37,5.259 -46.439,6.995 8.31,-8.31 -8.31,-57.431 h 3.497 c 0,0 -3.549,-19.907 -8.757,-18.407 0,0 0.236,29.557 0.868,38.576 0.552,7.679 6.417,23.982 2.63,30.688 -1.551,2.735 -9.099,4.471 -10.072,7.442 -2.709,8.31 0.16,34.421 -9.203,33.738 0,0 -3.076,-39.55 -5.26,-52.593 -2.077,-12.411 -7.703,-32.582 -10.754,-49.2 -2.263,-12.413 -4.155,-50.305 -4.155,-50.305 0,0 -1.893,37.892 -4.155,50.305 -3.051,16.618 -8.678,36.789 -10.755,49.2 -2.183,13.043 -5.259,52.593 -5.259,52.593 -9.362,0.683 -6.496,-25.429 -9.204,-33.738 -0.974,-2.972 -8.521,-4.707 -10.071,-7.442 -3.787,-6.705 2.077,-23.009 2.629,-30.688 0.632,-9.02 0.868,-38.576 0.868,-38.576 -5.206,-1.5 -8.757,18.407 -8.757,18.407 h 3.498 l -8.311,57.431 8.311,8.31 -46.439,-6.995 -68.371,-5.259 -34.185,-44.704 c 0,0 31.162,5.522 41.18,8.757 11.859,3.84 35.947,13.806 48.228,17.54 10.335,3.155 44.493,10.519 42.941,5.259 -2.393,-8.1 -53.328,-43.152 -59.166,-44.704 -5.575,-1.473 20.432,28.585 21.458,29.769 -1.342,-0.526 -44.336,-17.461 -56.958,-21.879 -12.833,-4.497 -50.831,-19.302 -50.831,-19.302 0,0 13.464,-38.34 19.722,-48.647 5.048,-8.336 27.611,-27.611 27.611,-27.611 0,0 19.25,32.423 28.926,43.836 12.99,15.331 57.616,56.248 67.476,56.09 17.908,-0.288 18.514,-65.269 18.408,-87.646 -0.158,-34.633 4.391,-138.502 -3.498,-138.502 -7.889,0 -2.313,94.744 -5.26,126.222 -3.681,39.444 -1.656,87.198 -14.463,87.225 -10.729,0 -56.825,-50.751 -69.685,-72.315 -7.048,-11.807 -17.171,-29.608 -21.037,-40.313 -4.444,-12.305 -12.28,-50.855 -12.28,-50.855 l -2.629,48.227 c 0,0 -23.747,34.37 -30.662,46.439 -6.416,11.229 -20.169,51.725 -20.169,51.725 l -26.296,-26.296 c -2.788,6.39 27.664,52.54 39.444,68.37 8.94,11.99 37.683,43.836 37.683,43.836 0,0 -20.432,13.148 -15.778,17.514 4.522,4.26 25.875,-4.813 25.875,-4.813 0,0 15.988,19.486 22.194,25.98 7.916,8.284 34.343,30.557 34.343,30.557 0,0 -28.242,26.111 -18.854,26.743 8.178,0.552 29.373,-19.723 29.373,-19.723 L -2444.71,396 c 0,0 -2.498,-9.571 -4.103,-12.411 -1.394,-2.473 -7.31,-8.626 -7.31,-8.626 v 7.889 l -14.885,-13.147 c 0,0 24.613,-9.913 32.424,-14.017 5.495,-2.892 21.037,-13.148 21.037,-13.148 0,0 -1.498,27.296 2.629,35.054 1.446,2.709 9.651,7.573 9.651,7.573 l 5.259,-54.039 6.258,0.999 0.737,61.244 c 0,0 -12.675,12.07 -14.016,17.54 l 6.127,30.661 -28.032,-28.032 c -6.338,2.42 14.095,37.183 17.514,49.963 3.604,13.41 3.971,42.205 10.309,54.565 1.156,2.288 7.23,7.231 7.23,7.231 0,0 -4.549,-40.443 -3.839,-53.959 0.474,-9.309 6.469,-36.764 6.469,-36.764 l 5.26,9.204 5.259,-9.204 c 0,0 5.996,27.455 6.469,36.764 0.712,13.516 -3.839,53.959 -3.839,53.959 0,0 6.073,-4.943 7.231,-7.231 6.338,-12.36 6.705,-41.155 10.308,-54.565 3.418,-12.78 23.852,-47.543 17.514,-49.963 l -28.032,28.032 6.128,-30.661 c -1.341,-5.47 -14.017,-17.54 -14.017,-17.54 l 0.737,-61.244 6.258,-0.999 5.26,54.039 c 0,0 8.204,-4.864 9.65,-7.573 4.129,-7.758 2.63,-35.054 2.63,-35.054 0,0 15.541,10.257 21.037,13.148 7.809,4.104 32.423,14.017 32.423,14.017 l -14.884,13.147 v -7.889 c 0,0 -5.917,6.153 -7.312,8.626 -1.603,2.84 -4.101,12.411 -4.101,12.411 l 34.186,-21.905 c 0,0 21.193,20.274 29.372,19.723 9.389,-0.632 -18.854,-26.743 -18.854,-26.743 0,0 26.428,-22.272 34.342,-30.557 6.207,-6.494 22.195,-25.98 22.195,-25.98 0,0 21.354,9.072 25.875,4.813 4.656,-4.365 -15.777,-17.514 -15.777,-17.514 0,0 28.741,-31.846 37.683,-43.836 11.782,-15.831 42.231,-61.981 39.444,-68.371 z m -285.761,144.63 c -7.1,7.599 -49.305,28.663 -55.222,27.164 -9.888,-2.474 -45.02,-39.183 -44.704,-47.334 0.289,-7.126 39.182,-4.154 51.278,-5.259 11.254,-0.999 35.946,-1.264 45.15,5.259 4.708,3.339 7.443,15.963 3.498,20.17 z m 30.687,-9.652 7.89,-35.053 7.889,35.053 h -15.779 z m 101.688,36.816 c -5.916,1.499 -48.121,-19.565 -55.222,-27.164 -3.944,-4.207 -1.21,-16.831 3.497,-20.17 9.204,-6.522 33.896,-6.258 45.151,-5.259 12.095,1.104 50.987,-1.867 51.277,5.259 0.317,8.151 -34.816,44.86 -44.703,47.334 z"
         id="path63"
         style="fill:#6f1a2d" />
    </g>
  </g>
</svg>
