<?xml version="1.0" encoding="UTF-8" standalone="no"?>
<!-- Created with Inkscape (http://www.inkscape.org/) -->

<svg
   xmlns:dc="http://purl.org/dc/elements/1.1/"
   xmlns:cc="http://creativecommons.org/ns#"
   xmlns:rdf="http://www.w3.org/1999/02/22-rdf-syntax-ns#"
   xmlns:svg="http://www.w3.org/2000/svg"
   xmlns="http://www.w3.org/2000/svg"
   version="1.1"
   width="453.63791"
   height="441.37625"
   id="svg3127">
  <defs
     id="defs3129" />
  <metadata
     id="metadata3132">
    <rdf:RDF>
      <cc:Work
         rdf:about="">
        <dc:format>image/svg+xml</dc:format>
        <dc:type
           rdf:resource="http://purl.org/dc/dcmitype/StillImage" />
        <dc:title></dc:title>
      </cc:Work>
    </rdf:RDF>
  </metadata>
  <g
     transform="translate(515.73442,-93.411136)"
     id="layer1">
    <g
       transform="translate(-576.73397,705.56904)"
       id="Emerald">
      <g
         id="g66">
        <path
           d="m 379,-307 c 19,-14.517 32.277,-29.729 40,-42 4.131,-6.563 4.131,-6.563 11,-29 2.852,-9.312 -26.564,12.29 -32,20 -7.84,11.12 -29.811,59.26 -19,51 z"
           id="path68"
           style="fill:#13643a" />
        <path
           d="m 401,-374 c 22.307,-28.003 33.838,-52.211 46,-69 11.219,-15.484 41.607,-40.345 51,-57 6.613,-11.727 23,-64.667 14,-52 -14.926,21.007 -49.168,59.667 -65,80 -26.703,34.297 -65.805,122.862 -46,98 z"
           id="path70"
           style="fill:#13643a" />
        <path
           d="m 357,-295.334 c 2.334,11.001 9.773,-42.398 15,-55 17.801,-42.916 26.695,-58.893 38,-77.666 17.414,-28.919 20.195,-48 20,-77 -0.051,-7.778 -15.555,16.12 -18,23 -4.063,11.431 -7.264,33.27 -11.5,43.943 -8.752,22.057 -30.904,53.839 -38.5,73.057 -9.75,24.667 -8.461,53.347 -5,69.666 z"
           id="path72"
           style="fill:#13643a" />
        <path
           d="m 310,-174 c -1.84,13.588 20.527,-19.333 22,-34 3.408,-33.947 1.135,-92.215 8,-122 5.611,-24.343 30.781,-68.41 39,-92 6.059,-17.387 13.654,-56.563 9.5,-75 -1.881,-8.35 -18.42,-38.341 -16.5,-30 4.066,17.667 4.684,49.62 0,67 -6.371,23.645 -35.086,68.826 -43,92 -6.215,18.203 -12.387,56.832 -14,76 -2.475,29.422 -1,88.48 -5,118 z"
           id="path74"
           style="fill:#13643a" />
        <path
           d="m 196.637,-307 c -19,-14.517 -32.275,-29.729 -40,-42 -4.131,-6.563 -4.131,-6.563 -11,-29 -2.85,-9.312 26.564,12.29 32,20 7.84,11.12 29.81,59.26 19,51 z"
           id="path76"
           style="fill:#13643a" />
        <path
           d="m 174.637,-374 c -22.307,-28.003 -33.836,-52.211 -46,-69 -11.219,-15.484 -41.605,-40.345 -51,-57 -6.613,-11.727 -23,-64.667 -14,-52 14.926,21.007 49.168,59.667 65,80 26.705,34.297 65.804,122.862 46,98 z"
           id="path78"
           style="fill:#13643a" />
        <path
           d="m 218.637,-295.334 c -2.332,11.001 -9.773,-42.398 -15,-55 -17.799,-42.916 -26.695,-58.893 -38,-77.666 -17.414,-28.919 -20.193,-48 -20,-77 0.053,-7.778 15.555,16.12 18,23 4.064,11.431 7.264,33.27 11.5,43.943 8.754,22.057 30.904,53.839 38.5,73.057 9.75,24.667 8.461,53.347 5,69.666 z"
           id="path80"
           style="fill:#13643a" />
        <path
           d="m 265.637,-174 c 1.842,13.588 -20.527,-19.333 -22,-34 -3.408,-33.947 -1.135,-92.215 -8,-122 -5.609,-24.343 -30.781,-68.41 -39,-92 -6.057,-17.387 -13.654,-56.563 -9.5,-75 1.881,-8.35 18.42,-38.341 16.5,-30 -4.066,17.667 -4.682,49.62 0,67 6.371,23.645 35.088,68.826 43,92 6.217,18.203 12.387,56.832 14,76 2.476,29.422 1,88.48 5,118 z"
           id="path82"
           style="fill:#13643a" />
        <path
           d="m 327.33,-488 c -3.109,56 -6,97.33 -19.66,175.33 -5.139,29.32 -4.799,81.34 -9.67,118.67 -0.07,0.55 -0.199,1.17 -0.359,1.84 -1.34,5.46 -5.561,14.07 -9.641,16.16 -0.059,0.03 -0.119,0.06 -0.18,0.08 -0.061,-0.021 -0.119,-0.05 -0.18,-0.08 -4.09,-2.08 -8.301,-10.68 -9.641,-16.14 -0.17,-0.681 -0.289,-1.301 -0.359,-1.86 -4.869,-37.33 -4.529,-89.35 -9.67,-118.67 -13.67,-78 -16.561,-119.33 -19.67,-175.33 -1.301,-23.54 0.289,-72.23 9.34,-94 3.6,-8.68 27.811,-37.29 24.5,-28.5 -8.23,21.83 -16.029,86.34 -15.5,115.5 0.77,42.57 2.33,114.71 20.09,169 0.141,0.43 0.529,0.71 1.09,0.9 0.561,-0.19 0.949,-0.471 1.09,-0.9 17.76,-54.29 19.32,-126.43 20.09,-169 0.531,-29.16 -7.27,-93.67 -15.5,-115.5 -3.309,-8.79 20.891,19.82 24.5,28.5 9.051,21.77 10.641,70.46 9.33,94 z"
           id="path84"
           style="fill:#13643a" />
      </g>
    </g>
  </g>
</svg>
