<?xml version="1.0" encoding="UTF-8" standalone="no"?>
<!-- Created with Inkscape (http://www.inkscape.org/) -->

<svg
   xmlns:dc="http://purl.org/dc/elements/1.1/"
   xmlns:cc="http://creativecommons.org/ns#"
   xmlns:rdf="http://www.w3.org/1999/02/22-rdf-syntax-ns#"
   xmlns:svg="http://www.w3.org/2000/svg"
   xmlns="http://www.w3.org/2000/svg"
   version="1.1"
   width="477.37802"
   height="529.59546"
   id="svg3127">
  <defs
     id="defs3129" />
  <metadata
     id="metadata3132">
    <rdf:RDF>
      <cc:Work
         rdf:about="">
        <dc:format>image/svg+xml</dc:format>
        <dc:type
           rdf:resource="http://purl.org/dc/dcmitype/StillImage" />
        <dc:title></dc:title>
      </cc:Work>
    </rdf:RDF>
  </metadata>
  <g
     transform="translate(281.97309,-304.44615)"
     id="layer1">
    <g
       transform="translate(994.5832,281.24362)"
       id="Amythest">
      <g
         id="g21">
        <path
           d="m -1062.68,192.851 c 0,8.366 -23.557,5.522 -43.055,-10.333 -15.129,-12.303 -43.253,-42.391 -39.565,-51.713 7.274,-18.383 41.258,29.441 57.648,40.006 19.5,12.568 24.972,11.707 24.972,22.04 z"
           id="path23"
           style="fill:#4c0d42" />
        <path
           d="m -1158.35,280.684 c -22.804,-25.715 -52.354,-50.805 -74.797,-74.113 -6.667,-6.924 -27.185,-15.742 -34.478,-24.053 -5.098,-5.809 -12.581,-25.999 -6.889,-30.139 3.4,-2.474 9.68,11.924 31.104,28.521 38.242,29.626 100.045,74.02 104.09,97.2 1.956,11.199 -14.48,22.082 -18.944,31 -6.503,12.992 5.731,59.023 -9.472,60.279 0,0 -11.009,-47.494 -7.75,-60.279 2.408,-9.445 22.816,-22.011 17.136,-28.416 z"
           id="path25"
           style="fill:#4c0d42" />
        <path
           d="m -1191.846,113.629 c 0,0 9.361,33.664 13.777,41.334 9.741,16.918 40.271,40.668 49.084,55.971 3.498,6.075 5.828,16.685 5.166,22.391 -0.835,7.203 -9.473,27.416 -9.473,27.416 0,0 0.039,-22.492 -3.282,-29.14 -5.376,-10.763 -24.796,-24.925 -33.745,-36.666 -4.344,-5.702 -19.749,-25.948 -21.527,-32.892 -3.003,-11.725 0,-48.414 0,-48.414 z"
           id="path27"
           style="fill:#4c0d42" />
        <path
           d="m -1112.625,241.934 c 8.768,0.188 -2.785,33.219 0,43.917 1.703,6.539 12.055,23.437 12.917,30.14 1.37,10.636 -4.212,30.163 -7.75,39.613 -5.849,15.618 -24.569,36.845 -26.693,53.387 -1.921,14.96 14.163,63.345 5.278,67.167 -10.283,4.425 -17.94,-40.35 -19.34,-55.11 -2.195,-23.134 16.412,-65.623 20.088,-88.696 1.729,-10.843 -1.378,-34.956 0,-46.5 1.356,-11.366 7.088,-44.098 15.5,-43.918 z"
           id="path29"
           style="fill:#4c0d42" />
        <path
           d="m -1123.944,193.713 c -8.79,9.254 32.487,21.882 44.043,25.834 7.853,2.686 2.29,23.596 0,31 -2.755,8.91 -11.115,26.025 -12.057,35.304 -1.755,17.296 6.53,37.983 12.057,68.89 2.578,14.421 -10.635,30.528 -11.194,38.75 -1.135,16.646 13.518,41.808 17.221,55.974 6.555,25.063 0,103.333 12.917,103.333 6.89,0 2.188,-77.782 -1.722,-103.333 -2.741,-17.912 -14.043,-52.24 -6.889,-68.891 2.46,-5.724 10.82,-13.33 11.193,-21.375 0.711,-15.278 -16.042,-44.078 -17.221,-58.708 -1.068,-13.229 5.398,-36.627 7.75,-49.943 1.802,-10.211 8.841,-33.794 1.721,-41.334 -5.26,-5.57 -14.248,-2.017 -29.844,-6.963 -11.715,-3.718 -25.315,-11.338 -27.975,-8.538 z"
           id="path31"
           style="fill:#4c0d42" />
        <path
           d="m -1013.055,192.851 c 0,8.366 23.558,5.522 43.056,-10.333 15.13,-12.303 43.253,-42.391 39.565,-51.713 -7.276,-18.383 -41.258,29.441 -57.648,40.006 -19.499,12.568 -24.973,11.707 -24.973,22.04 z"
           id="path33"
           style="fill:#4c0d42" />
        <path
           d="m -917.384,280.684 c 22.804,-25.715 52.354,-50.805 74.798,-74.113 6.666,-6.924 27.184,-15.742 34.477,-24.053 5.097,-5.809 12.581,-25.999 6.888,-30.139 -3.401,-2.474 -9.68,11.924 -31.104,28.521 -38.243,29.626 -100.046,74.02 -104.09,97.2 -1.956,11.199 14.48,22.082 18.943,31 6.504,12.992 -5.731,59.023 9.473,60.279 0,0 11.007,-47.494 7.75,-60.279 -2.406,-9.445 -22.814,-22.011 -17.135,-28.416 z"
           id="path35"
           style="fill:#4c0d42" />
        <path
           d="m -883.889,113.629 c 0,0 -9.359,33.664 -13.776,41.334 -9.741,16.918 -40.271,40.668 -49.084,55.971 -3.499,6.075 -5.83,16.685 -5.166,22.391 0.835,7.203 9.473,27.416 9.473,27.416 0,0 -0.04,-22.492 3.282,-29.14 5.376,-10.763 24.797,-24.925 33.745,-36.666 4.344,-5.702 19.751,-25.948 21.526,-32.892 3.002,-11.725 0,-48.414 0,-48.414 z"
           id="path37"
           style="fill:#4c0d42" />
        <path
           d="m -1026.521,176.498 c 0,0 -0.389,69.182 -4.031,114.598 -0.025,0.542 -0.051,1.06 -0.129,1.574 -1.367,21.365 -3.437,37.098 -6.483,37.098 -0.232,0 -0.465,-0.078 -0.696,-0.207 -0.235,0.129 -0.467,0.207 -0.699,0.207 -3.048,0 -5.113,-15.732 -6.483,-37.098 -0.053,-0.515 -0.104,-1.058 -0.129,-1.574 -3.669,-45.416 -4.057,-114.598 -4.057,-114.598 0,0 0.62,-38.053 2.43,-76.233 0,-0.259 0,-0.518 0.025,-0.749 1.213,-38.363 3.564,-76.467 8.214,-76.313 0.232,0 0.464,0.104 0.699,0.311 0.231,-0.207 0.464,-0.311 0.696,-0.311 4.649,-0.154 7,37.949 8.214,76.313 0,0.258 0.027,0.516 0.027,0.749 1.806,38.18 2.402,76.233 2.402,76.233 z"
           id="path39"
           style="fill:#4c0d42" />
        <path
           d="m -963.109,241.934 c -8.767,0.188 2.785,33.219 0,43.917 -1.702,6.539 -12.054,23.437 -12.916,30.14 -1.37,10.636 4.213,30.163 7.75,39.613 5.848,15.618 24.569,36.845 26.693,53.387 1.92,14.96 -14.163,63.345 -5.28,67.167 10.285,4.425 17.942,-40.35 19.343,-55.11 2.194,-23.134 -16.411,-65.623 -20.09,-88.696 -1.728,-10.843 1.378,-34.956 0,-46.5 -1.358,-11.366 -7.089,-44.098 -15.5,-43.918 z"
           id="path41"
           style="fill:#4c0d42" />
        <path
           d="m -951.789,193.713 c 8.792,9.254 -32.486,21.882 -44.043,25.834 -7.854,2.686 -2.288,23.596 0,31 2.755,8.91 11.115,26.025 12.057,35.304 1.756,17.296 -6.529,37.983 -12.057,68.89 -2.578,14.421 10.634,30.528 11.193,38.75 1.136,16.646 -13.517,41.808 -17.221,55.974 -6.554,25.063 0,103.333 -12.916,103.333 -6.89,0 -2.188,-77.782 1.721,-103.333 2.742,-17.912 14.044,-52.24 6.89,-68.891 -2.46,-5.724 -10.82,-13.33 -11.194,-21.375 -0.711,-15.278 16.043,-44.078 17.221,-58.708 1.07,-13.229 -5.398,-36.627 -7.75,-49.943 -1.801,-10.211 -8.84,-33.794 -1.721,-41.334 5.261,-5.57 14.249,-2.017 29.845,-6.963 11.715,-3.718 25.313,-11.338 27.975,-8.538 z"
           id="path43"
           style="fill:#4c0d42" />
      </g>
    </g>
  </g>
</svg>
