<?xml version="1.0"?>
<svg xmlns="http://www.w3.org/2000/svg" xmlns:xlink="http://www.w3.org/1999/xlink" version="1.1" id="Capa_1" x="0px" y="0px" viewBox="0 0 512 512" style="enable-background:new 0 0 512 512;" xml:space="preserve" width="512px" height="512px" class=""><g><g><path style="fill:#834F2E" d="M367.573,184.898l21.8-21.8l-40.472-40.472l-21.8,21.8c-12.824-8.186-27.156-14.213-42.484-17.586V96  h-41.354c-5.52,4.196-10.819,8.665-15.881,13.386v17.49c-7.772,1.721-15.285,4.127-22.477,7.148  C178.013,168.768,162,212.357,162,259.691c0,42.325,12.801,81.658,34.735,114.348c9.605,4.833,19.878,8.534,30.647,10.918v25.038  c2.197,2.049,4.437,4.052,6.722,6.004h50.514v-31.006c15.288-3.365,29.584-9.37,42.382-17.522l21.901,21.901l40.472-40.472  l-21.863-21.863c8.189-12.803,14.224-27.114,17.613-42.42H416v-57.236h-30.841C381.786,212.054,375.759,197.722,367.573,184.898z" data-original="#834F2E" class="" data-old_color="#844F2D"/><path style="fill:#F4EEF2" d="M256,348c-50.81,0-92-41.19-92-92s41.19-92,92-92s92,41.19,92,92S306.81,348,256,348z" data-original="#F4EEF2" class="" data-old_color="#F2E5EE"/><path style="fill:#6499E4" d="M318,323.969v-20.42c0-13.038-9.293-24.224-22.11-26.615l-15.713-2.931l-3.108,0.001l-15.71,2.93  c-12.817,2.39-22.11,13.577-22.11,26.615v20.42c11.007,10.046,24.47,17.439,39.375,21.21  C293.53,341.407,306.993,334.015,318,323.969z" data-original="#6499E4" class="" data-old_color="#6399E4"/><path style="fill:#FFDFE0;" d="M269.25,210.024c-9.624,4.595-16.274,14.416-16.274,25.792v21.124  c0,11.376,6.65,21.197,16.274,25.792c9.624-4.595,16.274-14.416,16.274-25.792v-21.124  C285.524,224.44,278.874,214.619,269.25,210.024z" data-original="#FFDFE0" class=""/><g>
	<path style="fill:#87070E" d="M484.762,441.611c-10.241,5.336-17.238,16.042-17.238,28.389s6.997,23.053,17.238,28.389   C495.003,493.053,502,482.347,502,470S495.003,446.947,484.762,441.611z" data-original="#87070E" class="" data-old_color="#85070E"/>
	<path style="fill:#87070E" d="M56.762,13.611C46.521,18.947,39.524,29.653,39.524,42s6.997,23.053,17.238,28.389   C67.003,65.053,74,54.347,74,42S67.003,18.947,56.762,13.611z" data-original="#87070E" class="" data-old_color="#85070E"/>
</g><path style="fill:#BF740C" d="M56.762,441.611C46.521,446.947,39.524,457.653,39.524,470s6.997,23.053,17.238,28.389  C67.003,493.053,74,482.347,74,470S67.003,446.947,56.762,441.611z" data-original="#BF740C" class="" data-old_color="#BD730C"/><path style="fill:#39489B" d="M484.762,13.611C474.521,18.947,467.524,29.653,467.524,42s6.997,23.053,17.238,28.389  C495.003,65.053,502,54.347,502,42S495.003,18.947,484.762,13.611z" data-original="#39489B" class="" data-old_color="#38479B"/><path d="M256,154c-56.243,0-102,45.757-102,102s45.757,102,102,102s102-45.757,102-102S312.243,154,256,154z M204,319.354v-15.805  c0-8.219,5.864-15.277,13.943-16.785l10.482-1.955c6.928,6.62,16.303,10.699,26.619,10.699h1.912  c10.316,0,19.691-4.079,26.619-10.699l10.482,1.955c8.079,1.508,13.943,8.566,13.943,16.785v15.805  C293.839,330.998,275.722,338,256,338S218.161,330.998,204,319.354z M275.524,256.939c0,10.238-8.33,18.568-18.568,18.568h-1.912  c-10.238,0-18.568-8.33-18.568-18.568v-21.123c0-10.238,8.33-18.568,18.568-18.568h1.912c10.238,0,18.568,8.33,18.568,18.568  L275.524,256.939L275.524,256.939z M327.303,296.419c-2.871-14.667-14.427-26.49-29.579-29.315l-3.393-0.633  c0.778-3.05,1.194-6.243,1.194-9.531v-21.123c0-21.267-17.301-38.568-38.568-38.568h-1.912c-21.267,0-38.568,17.302-38.568,38.568  v21.123c0,3.289,0.416,6.481,1.194,9.531l-3.394,0.633c-15.152,2.826-26.708,14.648-29.579,29.315  C177.903,284.48,174,270.691,174,256c0-45.215,36.785-82,82-82s82,36.785,82,82C338,270.691,334.097,284.48,327.303,296.419z" data-original="#000000" class="active-path"/><path d="M396.444,341.83L380.1,325.486c5.489-9.762,9.779-20.095,12.816-30.868H416c5.523,0,10-4.478,10-10V266h36  c5.523,0,10-4.478,10-10s-4.477-10-10-10h-36v-18.618c0-5.522-4.477-10-10-10h-23.038c-3.028-10.793-7.314-21.146-12.803-30.927  l16.285-16.285c3.905-3.905,3.905-10.237,0-14.143l-40.472-40.472c-3.905-3.904-10.237-3.904-14.143,0l-16.285,16.285  c-9.782-5.489-20.135-9.776-30.927-12.804V96c0-5.522-4.477-10-10-10h-57.235c-5.523,0-10,4.478-10,10v23.083  c-10.774,3.036-21.107,7.326-30.869,12.816l-16.343-16.344c-3.905-3.904-10.237-3.904-14.143,0l-40.472,40.472  c-3.905,3.905-3.905,10.237,0,14.143l16.392,16.392c-5.462,9.751-9.728,20.067-12.745,30.82H96c-5.523,0-10,4.478-10,10V246H50  c-5.523,0-10,4.478-10,10s4.477,10,10,10h36v18.618c0,5.522,4.477,10,10,10h23.249c3.025,10.733,7.295,21.03,12.757,30.762  l-16.45,16.45c-3.905,3.905-3.905,10.237,0,14.143l40.472,40.472c3.905,3.904,10.237,3.904,14.143,0l16.45-16.45  c9.732,5.462,20.03,9.732,30.762,12.757V416c0,5.522,4.477,10,10,10h57.235c5.523,0,10-4.478,10-10v-23.202  c10.751-3.017,21.068-7.283,30.821-12.745l16.392,16.392c3.905,3.904,10.237,3.904,14.143,0l40.472-40.472  C400.349,352.067,400.349,345.735,396.444,341.83z M375.36,282.456c-3.09,13.954-8.566,27.142-16.274,39.194  c-2.53,3.955-1.967,9.139,1.353,12.459l14.792,14.792l-26.33,26.329l-14.83-14.83c-3.315-3.315-8.49-3.883-12.444-1.363  c-12.052,7.678-25.227,13.125-39.159,16.19c-4.585,1.009-7.851,5.072-7.851,9.767V406h-37.235v-21.042  c0-4.689-3.259-8.75-7.838-9.764c-13.915-3.08-27.07-8.536-39.1-16.215c-3.955-2.524-9.133-1.96-12.452,1.357l-14.894,14.894  l-26.33-26.329l14.894-14.894c3.318-3.318,3.882-8.497,1.358-12.452c-7.678-12.028-13.134-25.184-16.215-39.1  c-1.014-4.579-5.074-7.838-9.764-7.838H106v-37.236h21.006c4.694,0,8.757-3.266,9.766-7.851c3.067-13.935,8.514-27.109,16.19-39.158  c2.519-3.955,1.953-9.129-1.363-12.444l-14.831-14.83l26.33-26.329l14.792,14.792c3.321,3.319,8.503,3.883,12.459,1.353  c12.052-7.709,25.239-13.184,39.194-16.273c4.579-1.014,7.838-5.073,7.838-9.764V106h37.235v20.841c0,4.694,3.266,8.758,7.851,9.767  c13.971,3.074,27.178,8.541,39.252,16.248c3.956,2.525,9.135,1.961,12.451-1.357l14.729-14.729l26.33,26.329L360.5,177.828  c-3.318,3.318-3.883,8.497-1.358,12.452c7.707,12.072,13.173,25.278,16.249,39.252c1.009,4.585,5.072,7.851,9.766,7.851H406v37.236  h-20.876C380.434,274.618,376.374,277.877,375.36,282.456z" data-original="#000000" class="active-path"/><path d="M470,428c-19.713,0-36.288,13.655-40.787,32H379.5v-44c0-5.522-4.477-10-10-10s-10,4.478-10,10v54c0,5.522,4.477,10,10,10  h59.713c4.499,18.345,21.075,32,40.787,32c23.159,0,42-18.841,42-42S493.159,428,470,428z M470,492c-12.131,0-22-9.869-22-22  s9.869-22,22-22s22,9.869,22,22S482.131,492,470,492z" data-original="#000000" class="active-path"/><path d="M142.5,106c5.523,0,10-4.478,10-10V42c0-5.522-4.477-10-10-10H82.787C78.288,13.655,61.713,0,42,0C18.841,0,0,18.841,0,42  s18.841,42,42,42c19.713,0,36.288-13.655,40.787-32H132.5v44C132.5,101.522,136.977,106,142.5,106z M42,64c-12.131,0-22-9.869-22-22  s9.869-22,22-22s22,9.869,22,22S54.131,64,42,64z" data-original="#000000" class="active-path"/><path d="M142.5,406c-5.523,0-10,4.478-10,10v44H82.787C78.288,441.655,61.713,428,42,428c-23.159,0-42,18.841-42,42s18.841,42,42,42  c19.713,0,36.288-13.655,40.787-32H142.5c5.523,0,10-4.478,10-10v-54C152.5,410.478,148.023,406,142.5,406z M42,492  c-12.131,0-22-9.869-22-22s9.869-22,22-22s22,9.869,22,22S54.131,492,42,492z" data-original="#000000" class="active-path"/><path d="M470,0c-19.713,0-36.288,13.655-40.787,32H369.5c-5.523,0-10,4.478-10,10v54c0,5.522,4.477,10,10,10s10-4.478,10-10V52  h49.713c4.499,18.345,21.075,32,40.787,32c23.159,0,42-18.841,42-42S493.159,0,470,0z M470,64c-12.131,0-22-9.869-22-22  s9.869-22,22-22s22,9.869,22,22S482.131,64,470,64z" data-original="#000000" class="active-path"/><path d="M511.23,252.17c-0.25-0.601-0.55-1.18-0.92-1.72c-0.36-0.551-0.78-1.061-1.24-1.521s-0.97-0.88-1.52-1.24  c-0.54-0.359-1.12-0.67-1.72-0.92c-0.61-0.25-1.24-0.45-1.88-0.58c-1.29-0.26-2.61-0.26-3.9,0c-0.64,0.13-1.27,0.33-1.88,0.58  c-0.6,0.25-1.18,0.561-1.72,0.92c-0.55,0.36-1.06,0.78-1.52,1.24s-0.88,0.97-1.24,1.521c-0.36,0.54-0.67,1.119-0.92,1.72  c-0.25,0.61-0.44,1.24-0.57,1.88s-0.2,1.3-0.2,1.95c0,0.649,0.07,1.31,0.2,1.95s0.32,1.27,0.57,1.869c0.25,0.61,0.56,1.19,0.92,1.73  c0.36,0.55,0.78,1.06,1.24,1.52c0.46,0.461,0.97,0.881,1.52,1.24c0.54,0.36,1.12,0.67,1.73,0.92c0.6,0.25,1.23,0.44,1.87,0.57  s1.3,0.2,1.95,0.2s1.31-0.07,1.95-0.2s1.27-0.32,1.87-0.57c0.61-0.25,1.19-0.56,1.73-0.92c0.55-0.359,1.06-0.779,1.52-1.24  c1.86-1.859,2.93-4.439,2.93-7.069c0-0.65-0.06-1.311-0.19-1.95C511.68,253.41,511.48,252.78,511.23,252.17z" data-original="#000000" class="active-path"/><path d="M4.45,264.31c0.54,0.36,1.12,0.67,1.73,0.92c0.6,0.25,1.23,0.44,1.87,0.57S9.35,266,10,266s1.31-0.07,1.95-0.2  s1.27-0.32,1.87-0.57c0.61-0.25,1.19-0.56,1.73-0.92c0.55-0.359,1.06-0.779,1.52-1.24c1.86-1.86,2.93-4.44,2.93-7.07  c0-0.65-0.06-1.311-0.19-1.95c-0.13-0.64-0.33-1.27-0.58-1.88c-0.25-0.601-0.56-1.18-0.92-1.72c-0.36-0.551-0.78-1.061-1.24-1.521  s-0.97-0.88-1.52-1.24c-0.54-0.359-1.12-0.67-1.72-0.92c-0.61-0.25-1.24-0.45-1.88-0.58c-1.29-0.26-2.61-0.26-3.9,0  c-0.64,0.13-1.27,0.33-1.88,0.58c-0.6,0.25-1.18,0.561-1.72,0.92c-0.55,0.36-1.06,0.78-1.52,1.24s-0.88,0.97-1.24,1.521  c-0.36,0.54-0.67,1.119-0.92,1.72c-0.25,0.61-0.45,1.24-0.57,1.88C0.07,254.69,0,255.35,0,256c0,2.63,1.07,5.21,2.93,7.069  C3.39,263.53,3.9,263.95,4.45,264.31z" data-original="#000000" class="active-path"/><path d="M208.099,52c5.523,0,9.951-4.478,9.951-10S213.523,32,208,32s-10,4.478-10,10s4.477,10,10,10H208.099z" data-original="#000000" class="active-path"/><path d="M256.049,52c5.523,0,9.951-4.478,9.951-10s-4.526-10-10.049-10s-10,4.478-10,10s4.477,10,10,10H256.049z" data-original="#000000" class="active-path"/><path d="M303.901,52H304c5.523,0,9.951-4.478,9.951-10s-4.526-10-10.049-10s-10,4.478-10,10S298.378,52,303.901,52z" data-original="#000000" class="active-path"/><path d="M208,460c-5.523,0-10,4.478-10,10s4.477,10,10,10h0.099c5.523,0,9.951-4.478,9.951-10S213.523,460,208,460z" data-original="#000000" class="active-path"/><path d="M255.951,460c-5.523,0-10,4.478-10,10s4.477,10,10,10h0.099c5.523,0,9.951-4.478,9.951-10S261.474,460,255.951,460z" data-original="#000000" class="active-path"/><path d="M303.901,460c-5.523,0-10,4.478-10,10s4.477,10,10,10H304c5.523,0,9.951-4.478,9.951-10S309.424,460,303.901,460z" data-original="#000000" class="active-path"/></g></g> </svg>
