<?xml version="1.0"?>
<svg xmlns="http://www.w3.org/2000/svg" xmlns:xlink="http://www.w3.org/1999/xlink" version="1.1" id="Capa_1" x="0px" y="0px" viewBox="0 0 387.481 387.481" style="enable-background:new 0 0 387.481 387.481;" xml:space="preserve" width="512px" height="512px" class=""><g><g>
	<g id="XMLID_7_">
		<g>
			<polygon style="fill:#6ADBA2" points="314.734,261.389 320.944,301.239 267.194,311.989 283.324,252.859    " data-original="#E6E6E6" class="active-path" data-old_color="#6BDBA3"/>
			<polygon style="fill:#B9F0D8" points="320.944,301.239 286.904,365.729 267.194,311.989    " data-original="#CCCCCC" class="" data-old_color="#B8EFD7"/>
			<polygon style="fill:#A2F7C9" points="299.444,163.279 314.734,261.389 283.324,252.859 252.864,233.159 270.773,186.569    " data-original="#F2F2F2" class="" data-old_color="#A1F6C8"/>
			<polygon style="fill:#6ADBA2" points="292.184,116.719 299.444,163.279 270.773,186.569 236.734,165.079 233.154,131.039    " data-original="#E6E6E6" class="active-path" data-old_color="#6BDBA3"/>
			<polygon style="fill:#A2F7C9" points="282.664,55.609 292.184,116.719 233.154,131.039 256.444,84.449    " data-original="#F2F2F2" class="" data-old_color="#A1F6C8"/>
			<polygon style="fill:#A2F7C9" points="267.194,311.989 286.904,365.729 188.364,387.229 125.664,303.029    " data-original="#F2F2F2" class="" data-old_color="#A1F6C8"/>
			<polygon style="fill:#B9F0D8" points="283.324,252.859 267.194,311.989 125.664,303.029 138.204,98.789 224.194,57.579      256.444,84.449 233.154,131.039 236.734,165.079 270.773,186.569 252.864,233.159    " data-original="#CCCCCC" class="" data-old_color="#B8EFD7"/>
			<polygon style="fill:#6ADBA2" points="277.944,25.329 282.664,55.609 256.444,84.449 224.194,57.579    " data-original="#E6E6E6" class="active-path" data-old_color="#6BDBA3"/>
			<polygon style="fill:#B9F0D8" points="277.944,25.329 224.194,57.579 243.904,0.249    " data-original="#CCCCCC" class="" data-old_color="#B8EFD7"/>
			<polygon style="fill:#A2F7C9" points="243.904,0.249 224.194,57.579 138.204,98.789 174.034,18.169    " data-original="#F2F2F2" class="" data-old_color="#A1F6C8"/>
			<polygon style="fill:#0B634A" points="125.664,303.029 188.364,387.229 66.534,310.189    " data-original="#B3B3B3" class="" data-old_color="#0C664C"/>
			<polygon style="fill:#0B634A" points="174.034,18.169 138.204,98.789 86.244,91.619    " data-original="#B3B3B3" class="" data-old_color="#0C664C"/>
			<polygon style="fill:#0B8766" points="138.204,98.789 125.664,303.029 66.534,310.189 86.244,91.619    " data-original="#999999" class="" data-old_color="#0B8867"/>
		</g>
		<g>
		</g>
	</g>
</g></g> </svg>
