<?xml version="1.0" encoding="iso-8859-1"?>
<!-- Generator: Adobe Illustrator 21.0.0, SVG Export Plug-In . SVG Version: 6.00 Build 0)  -->
<svg version="1.1" id="Capa_1" xmlns="http://www.w3.org/2000/svg" xmlns:xlink="http://www.w3.org/1999/xlink" x="0px" y="0px"
	 viewBox="0 0 512 512" style="enable-background:new 0 0 512 512;" xml:space="preserve">
<g transform="translate(-1)">
	<g>
		<g>
			<path d="M493.114,290.321c16.382-16.761,16.226-43.583-0.348-60.153s-43.397-16.718-60.153-0.331l-30.822,30.857V67.328
				c-0.002-9.496-3.96-18.563-10.922-25.021s-16.301-9.723-25.771-9.01c-5.185,0.403-10.197,2.051-14.609,4.804v-3.883
				C350.487,15.32,335.167,0,316.269,0S282.05,15.32,282.05,34.219v3.712c-5.167-3.067-11.058-4.702-17.067-4.736
				c-18.865,0-34.172,15.268-34.219,34.133v62.737l-34.338-94.379c-3.224-8.82-9.967-15.904-18.617-19.559
				c-8.65-3.655-18.43-3.553-27.002,0.282c-4.625,2.114-8.679,5.3-11.827,9.293l-1.254-3.413c-3.078-8.42-9.36-15.281-17.476-19.089
				c-12.392-5.797-27.057-3.552-37.147,5.686S69.485,32.535,74.17,45.389l1.22,3.251c-5.792-1.066-11.762-0.58-17.306,1.408
				C40.529,56.439,31.47,75.844,37.843,93.406l10.24,27.981c-6.628-1.208-13.466-0.397-19.627,2.33
				c-16.338,7.8-23.933,26.85-17.442,43.75L66.993,321.28c4.877,13.428,11.734,26.052,20.343,37.453l50.133,66.278
				c-7.047,4.178-10.131,12.775-7.347,20.48l20.087,55.219c1.54,4.262,4.712,7.736,8.816,9.657
				c4.104,1.921,8.804,2.131,13.063,0.583l25.779-9.387c2.671,6.336,8.885,10.45,15.761,10.436h179.627
				c14.139,0,25.6-11.461,25.6-25.6v-42.837c-0.041-10.957-7.086-20.66-17.493-24.09V379.58L493.114,290.321z M299.134,34.219
				c0-9.473,7.679-17.152,17.152-17.152s17.152,7.679,17.152,17.152v120.32c-11.117-4.438-23.601-3.91-34.304,1.451V34.219z
				 M247.849,67.328c0.016-6.914,4.19-13.139,10.581-15.777c6.391-2.638,13.741-1.171,18.629,3.719
				c3.215,3.187,5.02,7.53,5.009,12.058V171.52c-0.942,1.367-1.797,2.792-2.56,4.267l-17.92,38.929l-13.739-37.751V67.328z
				 M27.048,161.63c-3.337-8.494,0.28-18.136,8.38-22.34c4.245-1.895,9.087-1.946,13.371-0.139c4.284,1.806,7.627,5.308,9.234,9.671
				l31.701,87.117c0.375,0.973,0.925,1.869,1.621,2.645c0.197,0.207,0.405,0.404,0.623,0.589c0.533,0.505,1.13,0.938,1.775,1.289
				c0.261,0.142,0.528,0.27,0.802,0.384c0.727,0.302,1.495,0.495,2.278,0.572c0.222,0,0.427,0.094,0.657,0.102
				c0.085,0,0.171,0,0.265,0c2.785-0.001,5.395-1.361,6.991-3.644s1.978-5.2,1.022-7.817l-31.693-87.057L53.894,87.569
				c-3.148-8.69,1.328-18.289,10.01-21.461c8.689-3.14,18.283,1.329,21.47,10.001l43.23,118.775
				c0.369,0.974,0.916,1.871,1.613,2.645c0.205,0.23,0.435,0.41,0.657,0.623c0.516,0.481,1.089,0.896,1.707,1.237
				c0.275,0.161,0.56,0.304,0.853,0.427c0.681,0.273,1.396,0.453,2.125,0.538c0.273,0,0.521,0.111,0.794,0.12
				c0.077,0,0.154,0,0.239,0c0.993,0.002,1.979-0.174,2.91-0.521c2.129-0.77,3.864-2.355,4.825-4.405s1.066-4.398,0.295-6.526
				l-54.4-149.47c-3.149-8.69,1.328-18.289,10.01-21.461c4.17-1.536,8.783-1.33,12.8,0.572c4.018,1.88,7.134,5.268,8.67,9.429
				l54.383,149.504c1.391,3.81,5.272,6.114,9.283,5.512c4.011-0.602,7.044-3.945,7.255-7.995c0.06-1.141-0.114-2.283-0.512-3.354
				l-9.387-25.737l-33.314-91.699c-3.339-8.487,0.271-18.125,8.363-22.332c4.248-1.901,9.095-1.953,13.383-0.144
				c4.288,1.809,7.634,5.316,9.238,9.685l65.152,178.995c2.33,6.455,8.333,10.859,15.189,11.145
				c6.89,0.412,13.311-3.496,16.111-9.805l18.142-38.895c3.467-7.564,10.461-12.914,18.669-14.282
				c8.207-1.368,16.558,1.425,22.291,7.455c7.239,7.479,9.116,18.648,4.719,28.083l-55.262,118.528
				c-0.105,0.326-0.184,0.66-0.239,0.998c-0.281,0.711-0.462,1.458-0.538,2.219c-0.054,1.138,0.12,2.275,0.512,3.345l13.38,36.762
				l-86.844,31.573c-1.041-2.935-2.108-5.854-3.14-8.806c-14.507-41.481-30.916-88.482-83.413-102.093
				c-17.188-4.394-35.228-4.199-52.318,0.563L27.048,161.63z M100.99,348.442c-7.583-10.046-13.622-21.168-17.92-32.998
				l-4.352-11.947c13.811-3.64,28.323-3.699,42.163-0.171c43.674,11.332,57.233,50.125,71.586,91.204
				c1.058,3.029,2.142,5.973,3.209,9.02l-41.54,15.121L100.99,348.442z M166.287,494.933l-20.07-55.245l7.569-2.756l158.413-57.66
				c0.932-0.34,1.917-0.514,2.91-0.512c3.592-0.005,6.802,2.24,8.03,5.615l14.225,39.185c0.774,2.13,0.669,4.479-0.291,6.532
				c-0.96,2.052-2.698,3.638-4.829,4.408L166.287,494.933z M401.79,443.571l0.017,42.829c0,4.713-3.82,8.533-8.533,8.533H216.139
				l70.571-25.685h80.947v8.533c0,4.713,3.82,8.533,8.533,8.533s8.533-3.82,8.533-8.533v-8.533
				c-0.033-9.445-7.707-17.081-17.152-17.067H333.6l4.514-1.638c7.14-2.629,12.726-8.318,15.223-15.505h39.919
				C397.969,435.038,401.79,438.858,401.79,443.571z M386.857,369.86v0.051c-0.849,0.857-1.509,1.884-1.937,3.012
				c-0.38,0.954-0.582,1.969-0.597,2.995v0.06v41.984h-30.848c0-0.077,0-0.162-0.06-0.239l-14.268-39.194
				c-3.721-10.057-13.315-16.729-24.038-16.717l-12.74-34.987l53.76-115.319c6.911-14.629,4.71-31.938-5.641-44.373V68.779
				c-0.237-9.318,6.638-17.293,15.889-18.432c4.729-0.356,9.393,1.272,12.873,4.494c3.48,3.221,5.463,7.745,5.474,12.488v193.365
				c-0.019,6.92,4.142,13.166,10.535,15.815c6.393,2.648,13.752,1.174,18.632-3.732l30.78-30.857
				c10.1-9.538,25.95-9.327,35.794,0.475c9.844,9.802,10.121,25.651,0.626,35.792L386.857,369.86z"/>
			<path d="M316.03,413.619c-3.224-8.782-12.935-13.311-21.734-10.138l-15.215,5.538c-0.137,0.051-0.273,0.094-0.41,0.154
				L175.52,446.72c-2.922,1-5.075,3.5-5.631,6.538s0.573,6.139,2.952,8.108s5.635,2.5,8.516,1.388l103.646-37.794
				c0.243-0.075,0.483-0.164,0.717-0.265l14.293-5.214l2.884,7.919c1.046,2.864,3.54,4.953,6.543,5.48
				c3.003,0.527,6.059-0.589,8.017-2.927s2.519-5.542,1.474-8.406L316.03,413.619z"/>
		</g>
	</g>
</g>
<g>
</g>
<g>
</g>
<g>
</g>
<g>
</g>
<g>
</g>
<g>
</g>
<g>
</g>
<g>
</g>
<g>
</g>
<g>
</g>
<g>
</g>
<g>
</g>
<g>
</g>
<g>
</g>
<g>
</g>
</svg>
