<?xml version="1.0" encoding="iso-8859-1"?>
<!-- Generator: Adobe Illustrator 19.0.0, SVG Export Plug-In . SVG Version: 6.00 Build 0)  -->
<svg version="1.1" id="Capa_1" xmlns="http://www.w3.org/2000/svg" xmlns:xlink="http://www.w3.org/1999/xlink" x="0px" y="0px"
	 viewBox="0 0 512 512" style="enable-background:new 0 0 512 512;" xml:space="preserve">
<g>
	<g>
		<g>
			<path d="M426.667,153.6h-0.286C421.256,45.099,319.619,22.333,290.133,18.031v-0.964C290.121,7.646,282.487,0.012,273.067,0
				h-34.133c-9.421,0.012-17.054,7.646-17.067,17.067v0.964C192.381,22.333,90.743,45.099,85.619,153.6h-0.286
				c-9.421,0.012-17.054,7.646-17.067,17.067V204.8c0.012,9.421,7.646,17.054,17.067,17.067v174.208
				c0.008,6.164,3.332,11.846,8.7,14.875l131.155,73.771l24.779,24.779c1.6,1.601,3.77,2.5,6.033,2.5s4.433-0.899,6.033-2.5
				l24.779-24.779l131.171-73.779c5.36-3.031,8.676-8.709,8.683-14.867V221.867c9.421-0.012,17.054-7.646,17.067-17.067v-34.133
				C443.721,161.246,436.087,153.612,426.667,153.6z M290.133,35.135C318.719,39.277,404.391,59.57,409.321,153.6H290.133V35.135z
				 M221.867,35.157V153.6H102.68C107.622,59.815,193.273,39.364,221.867,35.157z M221.867,463.279L102.4,396.075V221.867H128V256
				c0.012,9.421,7.646,17.054,17.067,17.067h76.8V463.279z M221.867,256h-76.8v-34.133h76.8V256z M273.067,474.333L256,491.4
				l-17.067-17.067V221.867h34.133V474.333z M409.6,396.083l-119.467,67.198V273.067h76.8c9.421-0.012,17.054-7.646,17.067-17.067
				v-34.133h25.6V396.083z M290.133,256v-34.133h76.8V256H290.133z M426.667,204.8H85.333v-34.133H230.4
				c2.264,0.001,4.435-0.897,6.035-2.498s2.499-3.772,2.498-6.035V17.067h34.133v145.067c-0.001,2.264,0.897,4.435,2.498,6.035
				s3.772,2.499,6.035,2.498h145.067V204.8z"/>
			<path d="M131.242,290.817c-3.177-1.342-6.849-0.634-9.3,1.792c-1.561,1.634-2.445,3.798-2.475,6.058
				c-0.023,2.27,0.869,4.454,2.475,6.059c0.816,0.772,1.772,1.38,2.817,1.792c1.013,0.476,2.123,0.71,3.242,0.683
				c2.27,0.022,4.453-0.87,6.058-2.475c1.605-1.605,2.497-3.789,2.475-6.058c-0.033-2.259-0.917-4.422-2.475-6.059
				C133.241,291.838,132.285,291.23,131.242,290.817z"/>
			<path d="M158.891,306.517c1.013,0.476,2.123,0.71,3.242,0.683c2.27,0.022,4.453-0.87,6.058-2.475
				c1.605-1.605,2.497-3.789,2.475-6.058c-0.033-2.259-0.917-4.422-2.475-6.059c-0.817-0.77-1.773-1.378-2.817-1.791
				c-3.177-1.342-6.849-0.634-9.3,1.792c-1.561,1.634-2.445,3.798-2.475,6.058c-0.023,2.27,0.869,4.454,2.475,6.059
				C156.89,305.497,157.846,306.106,158.891,306.517z"/>
			<path d="M193.025,306.517c1.013,0.476,2.123,0.71,3.242,0.683c2.27,0.022,4.453-0.87,6.058-2.475
				c1.605-1.605,2.497-3.789,2.475-6.058c-0.033-2.259-0.917-4.422-2.475-6.059c-0.817-0.77-1.773-1.378-2.817-1.792
				c-3.177-1.342-6.849-0.634-9.3,1.792c-1.561,1.634-2.446,3.799-2.475,6.059c-0.023,2.27,0.869,4.454,2.475,6.059
				C191.024,305.497,191.98,306.105,193.025,306.517z"/>
			<path d="M131.242,324.942c-3.177-1.342-6.849-0.634-9.3,1.792c-1.561,1.634-2.445,3.799-2.475,6.059
				c-0.023,2.27,0.869,4.454,2.475,6.059c0.816,0.772,1.772,1.38,2.817,1.792c1.013,0.476,2.123,0.709,3.242,0.682
				c2.27,0.022,4.453-0.87,6.058-2.475c1.605-1.605,2.497-3.788,2.475-6.058c-0.033-2.259-0.917-4.422-2.475-6.059
				C133.241,325.963,132.285,325.355,131.242,324.942z"/>
			<path d="M165.375,324.942c-3.177-1.342-6.849-0.634-9.3,1.792c-1.561,1.634-2.445,3.799-2.475,6.059
				c-0.023,2.27,0.869,4.454,2.475,6.059c0.816,0.772,1.772,1.38,2.817,1.792c1.013,0.476,2.123,0.709,3.242,0.682
				c2.27,0.022,4.453-0.87,6.058-2.475c1.605-1.605,2.497-3.788,2.475-6.058c-0.033-2.259-0.917-4.422-2.475-6.059
				C167.375,325.963,166.419,325.355,165.375,324.942z"/>
			<path d="M199.508,324.942c-3.177-1.342-6.849-0.634-9.3,1.792c-1.561,1.634-2.445,3.799-2.475,6.059
				c-0.023,2.27,0.869,4.454,2.475,6.059c0.816,0.772,1.772,1.38,2.817,1.792c1.013,0.476,2.123,0.709,3.242,0.682
				c2.27,0.022,4.453-0.87,6.058-2.475c1.605-1.605,2.497-3.788,2.475-6.058c-0.033-2.259-0.917-4.422-2.475-6.059
				C201.508,325.963,200.552,325.355,199.508,324.942z"/>
			<path d="M131.242,359.065c-3.177-1.342-6.849-0.634-9.3,1.792c-1.561,1.634-2.445,3.799-2.475,6.059
				c-0.023,2.27,0.869,4.454,2.475,6.059c0.816,0.772,1.772,1.38,2.817,1.792c1.013,0.476,2.123,0.709,3.242,0.682
				c2.27,0.022,4.453-0.87,6.058-2.475c1.605-1.605,2.497-3.788,2.475-6.058c-0.033-2.259-0.917-4.422-2.475-6.059
				C133.241,360.086,132.285,359.478,131.242,359.065z"/>
			<path d="M165.375,359.065c-3.177-1.342-6.849-0.634-9.3,1.792c-1.561,1.634-2.445,3.799-2.475,6.059
				c-0.023,2.27,0.869,4.454,2.475,6.059c0.816,0.772,1.772,1.38,2.817,1.792c1.013,0.476,2.123,0.709,3.242,0.682
				c2.27,0.022,4.453-0.87,6.058-2.475s2.497-3.788,2.475-6.058c-0.033-2.259-0.917-4.422-2.475-6.059
				C167.375,360.086,166.419,359.478,165.375,359.065z"/>
			<path d="M199.508,359.065c-3.177-1.342-6.849-0.634-9.3,1.792c-1.561,1.634-2.445,3.799-2.475,6.059
				c-0.023,2.27,0.869,4.454,2.475,6.059c0.816,0.772,1.772,1.38,2.817,1.792c1.013,0.476,2.123,0.709,3.242,0.682
				c2.27,0.022,4.453-0.87,6.058-2.475c1.605-1.605,2.497-3.788,2.475-6.058c-0.033-2.259-0.917-4.422-2.475-6.059
				C201.508,360.086,200.552,359.478,199.508,359.065z"/>
			<path d="M165.375,393.19c-3.177-1.342-6.849-0.634-9.3,1.792c-1.561,1.634-2.445,3.799-2.475,6.059
				c-0.023,2.27,0.869,4.454,2.475,6.059c0.816,0.772,1.772,1.38,2.817,1.792c1.013,0.476,2.123,0.71,3.242,0.682
				c2.27,0.022,4.453-0.87,6.058-2.475c1.605-1.605,2.497-3.788,2.475-6.058c-0.033-2.259-0.917-4.422-2.475-6.059
				C167.375,394.211,166.419,393.603,165.375,393.19z"/>
			<path d="M199.508,393.19c-3.177-1.342-6.849-0.634-9.3,1.792c-1.561,1.634-2.445,3.799-2.475,6.059
				c-0.023,2.27,0.869,4.454,2.475,6.059c0.816,0.772,1.772,1.38,2.817,1.792c1.013,0.476,2.123,0.71,3.242,0.682
				c2.27,0.022,4.453-0.87,6.058-2.475c1.605-1.605,2.497-3.788,2.475-6.058c-0.033-2.259-0.917-4.422-2.475-6.059
				C201.508,394.211,200.552,393.603,199.508,393.19z"/>
			<path d="M377.942,292.609c-1.558,1.636-2.441,3.799-2.475,6.058c-0.022,2.27,0.87,4.453,2.475,6.058
				c1.605,1.605,3.789,2.497,6.058,2.475c1.119,0.027,2.229-0.207,3.242-0.683c1.045-0.412,2.001-1.02,2.817-1.792
				c1.606-1.604,2.498-3.788,2.475-6.058c-0.029-2.26-0.914-4.424-2.475-6.059c-2.451-2.426-6.124-3.133-9.3-1.791
				C379.714,291.23,378.759,291.839,377.942,292.609z"/>
			<path d="M346.625,290.817c-1.044,0.414-2,1.022-2.817,1.792c-1.558,1.636-2.441,3.799-2.475,6.058
				c-0.022,2.27,0.87,4.453,2.475,6.058c1.605,1.605,3.788,2.497,6.058,2.475c1.119,0.027,2.229-0.207,3.242-0.683
				c1.045-0.412,2.001-1.02,2.817-1.792c1.606-1.604,2.498-3.788,2.475-6.058c-0.03-2.26-0.914-4.424-2.475-6.059
				C353.474,290.182,349.802,289.475,346.625,290.817z"/>
			<path d="M312.492,290.817c-1.044,0.414-2,1.022-2.817,1.792c-1.558,1.636-2.441,3.799-2.475,6.058
				c-0.022,2.27,0.87,4.453,2.475,6.058c1.605,1.605,3.788,2.497,6.058,2.475c1.119,0.027,2.229-0.207,3.242-0.683
				c1.045-0.412,2.001-1.02,2.817-1.792c1.606-1.604,2.498-3.788,2.475-6.058c-0.03-2.26-0.914-4.424-2.475-6.059
				C319.341,290.182,315.668,289.475,312.492,290.817z"/>
			<path d="M380.758,324.942c-1.044,0.414-2,1.022-2.817,1.792c-1.558,1.636-2.441,3.8-2.475,6.059
				c-0.022,2.27,0.87,4.453,2.475,6.058s3.788,2.497,6.058,2.475c1.119,0.027,2.229-0.207,3.242-0.683
				c1.045-0.412,2.001-1.02,2.817-1.792c1.606-1.605,2.498-3.789,2.475-6.059c-0.03-2.26-0.914-4.424-2.475-6.059
				C387.608,324.307,383.935,323.6,380.758,324.942z"/>
			<path d="M346.625,324.942c-1.044,0.414-2,1.022-2.817,1.792c-1.558,1.636-2.441,3.8-2.475,6.059
				c-0.022,2.27,0.87,4.453,2.475,6.058s3.788,2.497,6.058,2.475c1.119,0.027,2.229-0.207,3.242-0.683
				c1.045-0.412,2.001-1.02,2.817-1.792c1.606-1.605,2.498-3.789,2.475-6.059c-0.03-2.26-0.914-4.424-2.475-6.059
				C353.474,324.307,349.802,323.6,346.625,324.942z"/>
			<path d="M312.492,324.942c-1.044,0.414-2,1.022-2.817,1.792c-1.558,1.636-2.441,3.8-2.475,6.059
				c-0.022,2.27,0.87,4.453,2.475,6.058s3.788,2.497,6.058,2.475c1.119,0.027,2.229-0.207,3.242-0.683
				c1.045-0.412,2.001-1.02,2.817-1.792c1.606-1.605,2.498-3.789,2.475-6.059c-0.03-2.26-0.914-4.424-2.475-6.059
				C319.341,324.307,315.668,323.6,312.492,324.942z"/>
			<path d="M380.758,359.065c-1.044,0.414-2,1.022-2.817,1.792c-1.558,1.636-2.441,3.8-2.475,6.059
				c-0.022,2.27,0.87,4.453,2.475,6.058s3.788,2.497,6.058,2.475c1.119,0.027,2.229-0.207,3.242-0.683
				c1.045-0.412,2.001-1.02,2.817-1.792c1.606-1.605,2.498-3.789,2.475-6.059c-0.03-2.26-0.914-4.424-2.475-6.059
				C387.608,358.43,383.935,357.723,380.758,359.065z"/>
			<path d="M346.625,359.065c-1.044,0.414-2,1.022-2.817,1.792c-1.558,1.636-2.441,3.8-2.475,6.059
				c-0.022,2.27,0.87,4.453,2.475,6.058s3.788,2.497,6.058,2.475c1.119,0.027,2.229-0.207,3.242-0.683
				c1.045-0.412,2.001-1.02,2.817-1.792c1.606-1.605,2.498-3.789,2.475-6.059c-0.03-2.26-0.914-4.424-2.475-6.059
				C353.474,358.43,349.802,357.723,346.625,359.065z"/>
			<path d="M312.492,359.065c-1.044,0.414-2,1.022-2.817,1.792c-1.558,1.636-2.441,3.8-2.475,6.059
				c-0.022,2.27,0.87,4.453,2.475,6.058s3.788,2.497,6.058,2.475c1.119,0.027,2.229-0.207,3.242-0.683
				c1.045-0.412,2.001-1.02,2.817-1.792c1.606-1.605,2.498-3.789,2.475-6.059c-0.03-2.26-0.914-4.424-2.475-6.059
				C319.341,358.43,315.668,357.723,312.492,359.065z"/>
			<path d="M346.625,393.19c-1.044,0.414-2,1.022-2.817,1.792c-1.558,1.636-2.441,3.8-2.475,6.059
				c-0.022,2.27,0.87,4.453,2.475,6.058s3.788,2.497,6.058,2.475c1.119,0.027,2.229-0.207,3.242-0.683
				c1.045-0.412,2.001-1.02,2.817-1.792c1.606-1.605,2.498-3.789,2.475-6.059c-0.03-2.26-0.914-4.424-2.475-6.059
				C353.474,392.555,349.802,391.847,346.625,393.19z"/>
			<path d="M312.492,393.19c-1.044,0.414-2,1.022-2.817,1.792c-1.558,1.636-2.441,3.8-2.475,6.059
				c-0.022,2.27,0.87,4.453,2.475,6.058s3.788,2.497,6.058,2.475c1.119,0.027,2.229-0.207,3.242-0.683
				c1.045-0.412,2.001-1.02,2.817-1.792c1.606-1.605,2.498-3.789,2.475-6.059c-0.03-2.26-0.914-4.424-2.475-6.059
				C319.341,392.555,315.668,391.847,312.492,393.19z"/>
		</g>
	</g>
</g>
<g>
</g>
<g>
</g>
<g>
</g>
<g>
</g>
<g>
</g>
<g>
</g>
<g>
</g>
<g>
</g>
<g>
</g>
<g>
</g>
<g>
</g>
<g>
</g>
<g>
</g>
<g>
</g>
<g>
</g>
</svg>
