<?xml version="1.0" encoding="iso-8859-1"?>
<!-- Generator: Adobe Illustrator 19.0.0, SVG Export Plug-In . SVG Version: 6.00 Build 0)  -->
<svg xmlns="http://www.w3.org/2000/svg" xmlns:xlink="http://www.w3.org/1999/xlink" version="1.1" id="Capa_1" x="0px" y="0px" viewBox="0 0 512.021 512.021" style="enable-background:new 0 0 512.021 512.021;" xml:space="preserve" width="512px" height="512px">
<g transform="translate(0 -1)">
	<g>
		<g>
			<path d="M494.944,129.021h-17.067v-17.067c0-21.329-44.267-29.279-73.82-32.213c-8.597-14.325-23.164-24.039-39.692-26.47     c-3.049-29.858-28.317-52.492-58.329-52.25c-19.367-0.507-37.864,8.044-50.025,23.125C243.849,9.065,225.353,0.515,205.986,1.021     c-30.013-0.245-55.282,22.391-58.329,52.25c-16.531,2.424-31.101,12.141-39.693,26.47c-29.553,2.934-73.82,10.884-73.82,32.213     v17.067H17.077c-9.421,0.011-17.056,7.646-17.067,17.067v315.733c0.011,9.421,7.645,17.056,17.067,17.067h190.646     c7.24,20.458,26.586,34.133,48.287,34.133s41.047-13.675,48.288-34.133h190.646c9.421-0.011,17.056-7.646,17.067-17.067V146.088     C512,136.667,504.365,129.032,494.944,129.021z M410.786,97.681c33.598,4.233,48.506,11.744,50.024,14.274V416.57     c-29.877-13.941-89.359-14.482-98.133-14.482s-68.257,0.541-98.133,14.482v-87.992c12.86,14.221,31.143,22.328,50.317,22.309     c2.458,0.018,4.915-0.124,7.354-0.425c1.025-0.075,2.046-0.225,2.825-0.358c2.169-0.289,4.317-0.712,6.433-1.267     c0.933-0.208,1.942-0.492,2.942-0.792c1.25-0.375,2.496-0.767,3.833-1.25c1.975-0.733,3.942-1.525,5.687-2.383     c3.019-1.408,5.931-3.034,8.713-4.867c0.846-0.575,1.696-1.158,2.408-1.692c4.257-3.093,8.135-6.676,11.554-10.675     c0.717-0.875,1.429-1.75,2.125-2.65c1.297-1.67,2.502-3.409,3.613-5.208c0.354-0.55,0.704-1.108,1.008-1.658     c0.561-0.899,1.073-1.828,1.533-2.783c0.377-0.681,0.717-1.382,1.017-2.1c0.603-1.155,1.135-2.346,1.592-3.567     c0.7-1.6,1.29-3.245,1.766-4.925c0.125-0.367,0.25-0.742,0.367-1.125c25.643-6.19,43.735-29.104,43.808-55.484     c0.006-3.182-0.271-6.359-0.829-9.492c-0.199-1.232-0.461-2.453-0.783-3.658c-0.38-1.853-0.907-3.672-1.575-5.442     c-0.496-1.533-1.129-3.058-1.771-4.525l-0.041-0.081l-0.03-0.077c-0.06-0.128-0.135-0.248-0.196-0.376     c-0.681-1.494-1.438-2.951-2.269-4.368c12.229-11.249,19.211-27.09,19.265-43.706c0-1.208-0.062-2.417-0.117-3.042     c0.017-0.94-0.05-1.88-0.2-2.808c-0.071-1.058-0.204-2.108-0.383-3.392c-0.208-1.267-0.479-2.542-0.708-3.533     c-0.268-1.394-0.637-2.767-1.104-4.108c-2.617-8.944-7.342-17.129-13.779-23.867c-0.556-0.636-1.149-1.24-1.775-1.808     c-2.748-2.714-5.752-5.156-8.971-7.292C411.653,117.053,412.558,107.215,410.786,97.681z M292.643,297.189     c1.6,1.6,3.771,2.499,6.035,2.499c2.263,0.001,4.434-0.898,6.035-2.499c1.6-1.6,2.499-3.771,2.499-6.035v-25.6     c0.001-2.263-0.898-4.434-2.499-6.035c-1.6-1.6-3.771-2.499-6.035-2.499h-34.133v-17.067h34.133c4.713,0,8.533-3.82,8.533-8.533     s-3.82-8.533-8.533-8.533h-34.133v-25.6h42.667c2.263,0.001,4.434-0.898,6.035-2.499c1.6-1.6,2.499-3.771,2.499-6.035v-17.067     h34.133c4.713,0,8.533-3.82,8.533-8.533s-3.82-8.533-8.533-8.533h-42.667c-2.263-0.001-4.434,0.898-6.035,2.499     c-1.6,1.6-2.499,3.771-2.499,6.035v17.067h-34.133v-42.667h34.133c4.713,0,8.533-3.82,8.533-8.533s-3.82-8.533-8.533-8.533     h-34.133V77.821h25.6v8.533c0,4.713,3.82,8.533,8.533,8.533s8.533-3.821,8.533-8.533V69.288c0.001-2.263-0.898-4.434-2.499-6.035     c-1.6-1.6-3.771-2.499-6.035-2.499h-34.133v-8.533c0-0.189-0.096-0.347-0.108-0.533c0.012-0.186,0.108-0.344,0.108-0.533     c0-21.475,21.379-33.067,41.492-33.067c20.61-0.196,38.157,14.948,40.979,35.364c-6.56,1.02-12.886,3.203-18.68,6.444     c-4.1,2.313-5.553,7.508-3.248,11.613s7.498,5.568,11.606,3.271c5.888-3.33,12.54-5.07,19.304-5.05l0.029-0.006l0.029,0.006     c20.951-0.295,38.19,16.417,38.546,37.367c-0.012,3.967-0.682,7.904-1.984,11.651c-6.112-1.957-12.49-2.958-18.908-2.967     c-4.713,0-8.533,3.82-8.533,8.533c0,4.713,3.82,8.533,8.533,8.533c6.808-0.026,13.534,1.493,19.671,4.442l0.033,0.007     c4.497,2.178,8.599,5.09,12.138,8.618c0.275,0.242,0.508,0.525,0.887,0.933c4.709,4.926,8.149,10.923,10.025,17.475     c0.279,0.805,0.499,1.629,0.658,2.467c0.2,0.867,0.396,1.775,0.512,2.458c0.087,0.667,0.188,1.333,0.325,2.808     c0.06,0.453,0.088,0.91,0.083,1.367c0.046,0.817,0.1,1.675,0.1,2.533c-0.07,11.394-4.714,22.283-12.889,30.221     c-6.59-6.205-14.549-10.771-23.232-13.329c-4.52-1.339-9.269,1.239-10.608,5.758s1.239,9.269,5.758,10.608     c8.219,2.435,15.467,7.389,20.72,14.164c0.614,0.778,1.195,1.548,1.813,2.503c1.19,1.763,2.242,3.616,3.146,5.541     c0.388,0.883,0.767,1.798,1.083,2.719c0.092,0.254,0.175,0.452,0.271,0.74c0.447,1.212,0.798,2.458,1.05,3.725     c0.217,0.799,0.392,1.608,0.525,2.425l0.025,0.15c0.383,2.145,0.573,4.321,0.567,6.5c-0.089,15.884-9.594,30.202-24.198,36.45     c-0.123-14.064-4.86-27.699-13.485-38.808c-2.893-3.702-8.235-4.37-11.951-1.494s-4.408,8.215-1.549,11.944     c6.501,8.343,10.018,18.624,9.988,29.2c0.01,3.094-0.288,6.181-0.887,9.217v0.051l-0.029,0.082     c-0.175,0.928-0.4,1.846-0.675,2.75c-0.042,0.133-0.179,0.767-0.213,0.908l-0.417,1.3c-0.35,1.216-0.78,2.408-1.287,3.567     c-0.284,0.768-0.618,1.517-1,2.242c-0.137,0.25-0.467,1.025-0.579,1.292c-0.155,0.251-0.297,0.51-0.425,0.775     c-0.225,0.504-0.485,0.991-0.779,1.458c-0.137,0.208-0.358,0.6-0.479,0.817l-0.475,0.758c-0.827,1.34-1.723,2.636-2.683,3.883     l-1.808,2.258c-2.528,2.921-5.389,5.536-8.525,7.792c-0.613,0.467-1.229,0.875-1.825,1.283c-2.076,1.357-4.248,2.56-6.5,3.6     c-1.365,0.657-2.763,1.244-4.187,1.758c-0.983,0.35-1.971,0.658-2.892,0.942c-0.596,0.175-1.237,0.358-2.196,0.583     c-1.614,0.419-3.251,0.74-4.904,0.958c-0.467,0.075-0.979,0.158-1.946,0.25c-1.86,0.227-3.732,0.336-5.605,0.325     c-27.369,0.367-49.874-21.482-50.317-48.85c0-0.26-0.125-0.479-0.148-0.733c0.023-0.254,0.148-0.473,0.148-0.733v-9.417h25.6     v17.067C290.143,293.418,291.042,295.589,292.643,297.189z M106.886,145.53c3.425-3.374,7.386-6.156,11.721-8.235l0.033-0.007     c6.137-2.949,12.862-4.467,19.671-4.442c4.713,0,8.533-3.82,8.533-8.533s-3.82-8.533-8.533-8.533     c-6.418,0.009-12.796,1.01-18.908,2.968c-1.302-3.747-1.972-7.684-1.984-11.651c0.363-20.969,17.634-37.687,38.604-37.367     c6.532-0.032,12.966,1.587,18.704,4.708c2.68,1.454,5.931,1.369,8.531-0.225c2.599-1.593,4.151-4.452,4.071-7.5     c-0.08-3.048-1.78-5.821-4.46-7.275c-5.569-3.001-11.61-5.026-17.862-5.988c2.822-20.416,20.37-35.558,40.979-35.362     c20.112,0,41.492,11.592,41.492,33.067c0,0.189,0.096,0.347,0.108,0.533c-0.012,0.186-0.108,0.344-0.108,0.533v8.533h-25.6     v-8.533c0-4.713-3.821-8.533-8.533-8.533c-4.713,0-8.533,3.82-8.533,8.533v17.067c-0.001,2.263,0.898,4.434,2.499,6.035     c1.6,1.6,3.771,2.499,6.035,2.499h34.133v17.067h-34.133c-4.713,0-8.533,3.82-8.533,8.533s3.821,8.533,8.533,8.533h34.133v25.6     h-42.667c-2.263-0.001-4.434,0.898-6.035,2.499c-1.6,1.6-2.499,3.771-2.499,6.035v8.533h-34.133c-4.713,0-8.533,3.82-8.533,8.533     s3.82,8.533,8.533,8.533h42.667c2.263,0.001,4.434-0.898,6.035-2.499c1.6-1.6,2.499-3.771,2.499-6.035v-8.533h34.133v42.667     h-34.133c-4.713,0-8.533,3.82-8.533,8.533s3.821,8.533,8.533,8.533h34.133v42.667h-34.133v-17.067     c0-4.713-3.821-8.533-8.533-8.533s-8.533,3.82-8.533,8.533v25.6c-0.001,2.263,0.898,4.434,2.499,6.035     c1.6,1.6,3.771,2.499,6.035,2.499h42.667v9.417c0,0.26,0.125,0.479,0.148,0.733c-0.023,0.254-0.148,0.473-0.148,0.733     c-0.442,27.368-22.948,49.217-50.317,48.85c-2.027,0.005-4.052-0.12-6.063-0.375c-0.508-0.042-1.021-0.125-1.65-0.225     c-1.719-0.236-3.422-0.575-5.1-1.017c-0.6-0.142-1.242-0.325-1.766-0.483c-0.992-0.3-1.979-0.608-2.875-0.925     c-1.51-0.546-2.991-1.169-4.437-1.867c-2.19-1.019-4.304-2.194-6.325-3.517c-0.608-0.417-1.225-0.825-1.971-1.392     c-3.07-2.215-5.872-4.78-8.35-7.642l-1.871-2.333c-0.952-1.24-1.841-2.528-2.662-3.858l-0.467-0.742     c-0.146-0.287-0.309-0.565-0.487-0.833c-0.294-0.467-0.554-0.954-0.779-1.458c-0.129-0.267-0.475-1.033-0.629-1.283     c-0.112-0.267-0.237-0.529-0.375-0.783c-0.432-0.834-0.812-1.694-1.138-2.575c-0.453-1.052-0.838-2.132-1.15-3.233     c-0.046-0.158-0.341-1.05-0.4-1.208c-0.055-0.338-0.131-0.672-0.229-1c-0.275-0.904-0.5-1.822-0.675-2.75l-0.029-0.082v-0.051     c-0.6-3.035-0.897-6.123-0.888-9.217c-0.03-10.576,3.487-20.857,9.988-29.2c2.859-3.729,2.166-9.067-1.549-11.944     c-3.716-2.876-9.057-2.209-11.951,1.494c-8.625,11.11-13.363,24.744-13.485,38.808c-14.604-6.248-24.109-20.566-24.198-36.45     c-0.004-2.23,0.194-4.456,0.592-6.65c0.133-0.808,0.304-1.617,0.621-2.817c0.273-1.309,0.652-2.594,1.133-3.842     c0.317-0.962,0.724-1.913,1.126-2.83c0.941-2.018,2.04-3.959,3.286-5.804c0.514-0.795,1.08-1.544,1.675-2.298     c0.076-0.092,0.093-0.137,0.175-0.235c5.229-6.706,12.432-11.6,20.592-13.992c4.52-1.339,7.098-6.089,5.758-10.609     c-1.339-4.52-6.089-7.098-10.608-5.758c-8.683,2.559-16.643,7.122-23.239,13.322c-8.171-7.937-12.813-18.822-12.883-30.213     c0-0.858,0.054-1.717,0.117-3.042c0.018-0.556,0.071-1.109,0.158-1.658c0.046-0.675,0.146-1.342,0.2-1.775     c0.15-0.917,0.346-1.825,0.592-2.9c0.193-0.943,0.453-1.87,0.779-2.775c1.902-6.424,5.332-12.291,9.996-17.1     C106.082,146.288,106.472,145.896,106.886,145.53z M51.211,112.51c2.076-3.287,17.023-10.663,50.025-14.828     c-1.772,9.531-0.868,19.367,2.613,28.415c-3.073,2.017-5.938,4.334-8.554,6.917c-0.727,0.64-1.413,1.325-2.054,2.05     c-6.392,6.622-11.106,14.676-13.75,23.492c-0.514,1.441-0.923,2.917-1.225,4.417c-0.275,1.2-0.546,2.475-0.787,3.975     c-0.128,0.781-0.215,1.568-0.258,2.358c-0.176,1.024-0.268,2.061-0.275,3.1c-0.071,1.133-0.134,2.342-0.134,3.55     c0.055,16.62,7.039,32.464,19.271,43.716c-0.908,1.558-1.757,3.192-2.546,4.9c-0.638,1.458-1.271,2.983-1.587,4.008     c-0.051,0.129-0.083,0.258-0.132,0.388l-0.047,0.12l-0.003,0.027c-0.609,1.638-1.103,3.316-1.476,5.023     c-0.371,1.375-0.667,2.75-0.867,3.975c-0.566,3.157-0.848,6.359-0.842,9.567c0.073,26.38,18.165,49.294,43.808,55.484     c0.079,0.258,0.158,0.483,0.225,0.667c0.477,1.721,1.068,3.408,1.771,5.05c0.442,1.227,0.974,2.419,1.592,3.567     c0.335,0.834,0.721,1.646,1.154,2.433c0.46,0.954,0.971,1.883,1.529,2.783c0.304,0.55,0.642,1.084,0.938,1.542     c1.127,1.831,2.351,3.6,3.667,5.3c0.717,0.925,1.429,1.8,2.433,3.025c3.308,3.822,7.044,7.253,11.133,10.225     c0.846,0.633,1.696,1.217,2.758,1.933c2.664,1.747,5.448,3.3,8.333,4.65c1.908,0.933,3.875,1.725,5.938,2.492     c1.25,0.45,2.496,0.842,3.817,1.242c0.929,0.275,1.937,0.558,2.513,0.683c2.181,0.576,4.394,1.019,6.629,1.325     c0.942,0.158,1.963,0.308,2.529,0.333c2.591,0.328,5.201,0.487,7.813,0.475c19.173,0.018,37.457-8.088,50.317-22.309v87.992     c-29.877-13.941-89.359-14.482-98.133-14.482c-8.774,0-68.257,0.541-98.133,14.482V112.51z M494.944,461.821H297.823     c-4.064,0.001-7.563,2.867-8.367,6.85c-3.257,15.882-17.234,27.283-33.446,27.283s-30.189-11.401-33.446-27.283     c-0.804-3.983-4.303-6.848-8.367-6.85H17.077V146.088h17.067v290.133c-0.06,4.773,3.697,8.722,8.467,8.9     c2.217,0.081,4.371-0.744,5.967-2.284c1.596-1.54,2.497-3.664,2.495-5.882c3.275-6.392,38.913-17.801,98.271-17.801     c59.358,0,94.996,11.408,98.133,17.067c-0.06,4.773,3.697,8.722,8.467,8.9c2.217,0.081,4.371-0.744,5.967-2.284     c1.596-1.54,2.497-3.664,2.495-5.882c3.275-6.392,38.913-17.801,98.271-17.801c59.358,0,94.996,11.408,98.133,17.067     c0,4.713,3.82,8.533,8.533,8.533s8.533-3.82,8.533-8.533V146.088h17.067V461.821z" fill="#FFFFFF"/>
			<path d="M170.677,214.355h8.533c4.713,0,8.533-3.821,8.533-8.533s-3.82-8.533-8.533-8.533h-8.533     c-4.713,0-8.533,3.82-8.533,8.533S165.964,214.355,170.677,214.355z" fill="#FFFFFF"/>
			<path d="M170.677,111.955h8.533c4.713,0,8.533-3.82,8.533-8.533s-3.82-8.533-8.533-8.533h-8.533c-4.713,0-8.533,3.82-8.533,8.533     S165.964,111.955,170.677,111.955z" fill="#FFFFFF"/>
			<path d="M341.344,120.488h-8.533c-4.713,0-8.533,3.82-8.533,8.533s3.821,8.533,8.533,8.533h8.533c4.713,0,8.533-3.82,8.533-8.533     S346.057,120.488,341.344,120.488z" fill="#FFFFFF"/>
			<path d="M332.811,239.955h8.533c4.713,0,8.533-3.82,8.533-8.533s-3.82-8.533-8.533-8.533h-8.533c-4.713,0-8.533,3.82-8.533,8.533     S328.098,239.955,332.811,239.955z" fill="#FFFFFF"/>
		</g>
	</g>
</g>
<g>
</g>
<g>
</g>
<g>
</g>
<g>
</g>
<g>
</g>
<g>
</g>
<g>
</g>
<g>
</g>
<g>
</g>
<g>
</g>
<g>
</g>
<g>
</g>
<g>
</g>
<g>
</g>
<g>
</g>
</svg>
