<svg xmlns="http://www.w3.org/2000/svg" viewBox="0 0 469.567 469.567" width="512" height="512"><path fill="#FFF" d="M43.341 34.327h16v16h-16zM75.341 34.327h16v16h-16zM107.341 34.327h16v16h-16zM395.341 106.327h-16c0 13.232-10.768 24-24 24v16c13.232 0 24 10.768 24 24h16c0-13.232 10.768-24 24-24v-16c-13.232 0-24-10.768-24-24zm-8 40.248a39.904 39.904 0 0 0-8.248-8.248 39.904 39.904 0 0 0 8.248-8.248 39.904 39.904 0 0 0 8.248 8.248 39.904 39.904 0 0 0-8.248 8.248zM443.341 18.327h-16c0 13.232-10.768 24-24 24v16c13.232 0 24 10.768 24 24h16c0-13.232 10.768-24 24-24v-16c-13.232 0-24-10.768-24-24zm-8 40.248a39.904 39.904 0 0 0-8.248-8.248 39.904 39.904 0 0 0 8.248-8.248 39.904 39.904 0 0 0 8.248 8.248 39.904 39.904 0 0 0-8.248 8.248z"/><path d="M286.693 452.759c-80.384-6.8-172.288-36.936-245.848-80.64l-21.816-12.952c3.248-7.6 5.128-15.544 6.96-23.28a437.44 437.44 0 0 1 1.672-6.92c1.688-6.616 3.56-17.4 5.728-29.872 3.12-17.96 7-40.312 10.504-49.296l47.92-122.816c1.048-2.68 2-5.568 2.976-8.52 2.592-7.888 5.28-16.056 10.304-20.472 2.832-2.496 6.52-4.352 10.08-5.992a6.682 6.682 0 0 0 1.168-.664l94.824-72.616a12.933 12.933 0 0 1 16.032.16l47.552 38.04a12.94 12.94 0 0 1 4.864 9.856 12.977 12.977 0 0 1-4.432 10.064l-30.336 26.536c-5.152 4.504-12.928 4.224-17.752-.584a12.942 12.942 0 0 1-3.744-10.472 12.982 12.982 0 0 1 5.736-9.536l2.688-1.8-8.888-13.296-2.68 1.792a28.893 28.893 0 0 0-12.776 21.264c-.864 8.68 2.184 17.192 8.352 23.36 10.76 10.768 28.16 11.344 39.592 1.32l25.512-22.32 7.848 11.776-47.928 41.088-57.256-7.16a174.14 174.14 0 0 1 3.04-12.2l-15.36-4.456a187.94 187.94 0 0 0-7.408 56.824c.24 10.328 1.344 20.616 2.416 30.568 1.248 11.696 2.432 22.744 2.36 33.936-.216 33.512-13.2 64.8-34.728 83.672l10.544 12.032c15.24-13.36 26.528-31.384 33.216-52 2.416-.808 5.488-.752 8.504-.496 10.504.936 20.704 3.816 30.28 8.128a95.153 95.153 0 0 0-9.456 20.024l15.168 5.096c2.064-6.152 4.896-11.976 8.376-17.424.192.128.4.224.584.352l7.672-11.192c15.072-16.88 37.28-28.648 63.112-32.512 38.68-5.8 74.64 7.464 94.008 34.536l13.016-9.312c-8.032-11.224-18.448-20.4-30.464-27.36 23.176-19.288 56.72-26.232 85.32-16.296l5.248-15.112c-36.064-12.56-78.752-2.4-106.168 23.952-19.04-7.256-40.848-9.608-63.32-6.232-29.912 4.464-55.688 18.336-73.232 38.296-12.112-5.928-25.256-9.664-38.744-10.872a57.42 57.42 0 0 0-5.6-.216 148.075 148.075 0 0 0 2.656-26.952c.08-12.112-1.208-24.128-2.456-35.752-1.032-9.624-2.096-19.576-2.32-29.24-.192-8.032.256-16.04 1.184-23.984l61.328 7.664c.352.024.688.048 1.016.048 1.896 0 3.752-.68 5.2-1.928l56-48a7.988 7.988 0 0 0 1.456-10.504l-14.032-21.056c2.392-4.384 3.768-9.288 3.656-14.424a28.939 28.939 0 0 0-10.872-22.008l-47.544-38.04a28.937 28.937 0 0 0-35.792-.336l-90.584 69.696-2.96 2.024c-4.28 1.992-9.144 4.536-13.328 8.216-8.288 7.288-11.832 18.016-14.944 27.488-.872 2.664-1.736 5.28-2.68 7.712l-47.92 122.816c-4.088 10.48-7.792 31.784-11.368 52.376-2.024 11.64-3.928 22.64-5.464 28.664a408.187 408.187 0 0 0-1.744 7.176c-2.24 9.488-4.36 18.44-8.776 26.056-2.192 3.792-.928 8.648 2.832 10.88l28.184 16.744c75.544 44.872 170 75.832 252.68 82.824 6.408.544 14.48.864 23.696.864 45.992 0 120.184-8.048 155.384-37.064l-10.168-12.344c-36.352 29.968-127.08 36.008-167.56 32.6z" fill="#FFF"/></svg>