<svg viewBox="-31 1 511 511.99901" xmlns="http://www.w3.org/2000/svg"><path d="m413.632812 173.796875c-2.886718-15.585937-5.78125-30.492187-8.605468-44.539063.0625-.441406.105468-.890624.105468-1.351562 0-1.859375-.519531-3.59375-1.402343-5.085938-5.21875-25.6875-10.144531-48.25-14.273438-66.453124-.011719-.066407-.03125-.132813-.042969-.199219-6.84375-30.175781-11.476562-48.300781-11.570312-48.65625-1.132812-4.421875-5.117188-7.511719-9.683594-7.511719h-286.179687c-4.449219 0-8.367188 2.941406-9.601563 7.21875-.097656.332031-5.269531 18.300781-12.765625 48.914062-.015625.066407-.035156.132813-.046875.203126-4.605468 18.804687-10.082031 42.363281-15.796875 69.527343-.019531.078125-.039062.15625-.050781.238281-2.40625 11.4375-4.855469 23.507813-7.296875 36.132813-13.148437 67.96875-28.320313 163.617187-33.804687 264.546875-.046876.386719-.074219.777344-.074219 1.175781 0 .039063.003906.078125.003906.117188-1.308594 24.445312-2.046875 49.191406-2.046875 73.925781 0 5.519531 4.476562 10 10 10h153.113281c5.515625 0 9.992188-4.46875 9.996094-9.988281.003906-1.863281.726563-184.390625 43.496094-304.03125h15.738281c42.957031 119.570312 43.488281 302.15625 43.488281 304.019531 0 5.523438 4.476563 10 9.996094 10h153.109375c5.523438 0 10-4.480469 10-10 0-111.488281-19.472656-240.015625-35.804688-328.203125zm-177.773437-105.46875v38.953125c0 13.429688-8.671875 24.875-20.710937 29.035156v-67.988281zm-77.054687-20.003906v-28.324219h20v28.324219zm-81.574219 20h56.464843c-13.511718 25.855469-38.664062 43.917969-67.539062 48.449219 3.941406-18.175782 7.707031-34.464844 11.074219-48.449219zm121.570312-20v-28.324219h51.125v28.324219zm71.125-28.324219h19.996094v28.324219h-19.996094zm112.121094 96.941406c-29.105469-4.230468-54.261719-22.386718-67.453125-48.617187h57.023438c3.148437 14.097656 6.6875 30.460937 10.429687 48.617187zm-14.96875-68.617187h-57.15625v-28.324219h50.425781c1.496094 6.097656 3.824219 15.742188 6.730469 28.324219zm-228.269531-28.324219v28.324219h-56.652344c3.199219-12.683594 5.773438-22.316407 7.417969-28.324219zm242.585937 472c-.898437-19.273438-1.902343-37.699219-3.007812-55.304688 3.070312-1.707031 5.144531-4.976562 5.144531-8.738281 0-4.226562-2.625-7.832031-6.332031-9.292969-7.429688-107.542968-19.050781-182.894531-35.855469-233.816406-1.730469-5.246094-7.386719-8.09375-12.628906-6.359375-5.246094 1.730469-8.09375 7.382813-6.363282 12.628907 16.191407 49.0625 27.464844 122.199218 34.761719 226.84375h-13.578125c-5.519531 0-10 4.476562-10 10 0 5.519531 4.480469 9.996093 10 9.996093h14.898438c1.078125 17.203125 2.058594 35.207031 2.941406 54.046875h-65.167969c-.203125-10.878906-.734375-29.980468-2.140625-54.046875h19.472656c5.519532 0 9.996094-4.476562 9.996094-9.996093 0-5.523438-4.476562-10-9.996094-10h-20.777343c-.644531-8.894532-1.398438-18.25-2.289063-27.949219-7.800781-84.765625-21.703125-153.933594-41.316406-205.578125-1.472656-3.882813-5.195312-6.449219-9.347656-6.449219h-29.683594c-4.160156 0-7.882812 2.574219-9.351562 6.464844-19.515626 51.640625-33.382813 120.796875-41.21875 205.558593-.898438 9.699219-1.65625 19.054688-2.304688 27.953126h-24.722656c-5.519532 0-10 4.476562-10 10 0 5.519531 4.480468 9.996093 10 9.996093h23.402344c-1.425782 24.070313-1.972657 43.171875-2.1875 54.046875h-63.71875c.890624-18.945312 1.863281-36.9375 2.929687-54.046875h9.578125c5.523438 0 10-4.476562 10-9.996093 0-5.523438-4.476562-10-10-10h-8.265625c2.25-32.4375 4.863281-61.550782 7.882813-87.882813.628906-5.484375-3.308594-10.441406-8.796876-11.070313-5.476562-.636718-10.445312 3.308594-11.070312 8.796876-3.097656 26.996093-5.769531 56.855468-8.0625 90.15625h-1.683594c-5.523437 0-10 4.476562-10 10 0 5.519531 4.476563 9.996093 10 9.996093h.378906c-1.058593 17.125-2.027343 35.117188-2.910156 54.046875h-49.464844c.144532-18.070312.679688-36.125 1.53125-54.046875h20.46875c5.519532 0 9.996094-4.476562 9.996094-9.996093 0-5.523438-4.476562-10-9.996094-10h-19.386718c5.839844-96.054688 20.285156-186.664063 32.859375-251.691407 1.929687-9.972656 3.859375-19.582031 5.769531-28.816406 41.636719-3.6875 78.011719-30.4375 93.933594-69.128906h39.4375v79.660156c0 5.523437 4.476562 10 10 10 27.957031 0 50.703125-22.746094 50.703125-50.703125v-38.957031h36.859375c15.460937 39.082031 51.679687 65.855469 93.5 69.207031 15.449218 77.632812 32.953125 181.199219 40.015625 280.429688h-22.699219c-5.523438 0-10 4.476562-10 9.996093 0 5.523438 4.476562 10 10 10h23.984375c1.039063 18.300781 1.691406 36.378907 1.871094 54.042969zm0 0"/><path d="m235.886719 32.707031c-.128907-.640625-.320313-1.261719-.570313-1.871093-.25-.597657-.558594-1.179688-.917968-1.71875-.359376-.550782-.78125-1.0625-1.242188-1.519532-.457031-.472656-.976562-.882812-1.519531-1.25-.550781-.359375-1.128907-.671875-1.730469-.921875-.597656-.25-1.226562-.4375-1.867188-.570312-1.289062-.257813-2.621093-.257813-3.910156 0-.640625.132812-1.261718.320312-1.871094.570312-.597656.25-1.179687.5625-1.71875.921875-.550781.367188-1.058593.777344-1.519531 1.25-.472656.457032-.878906.96875-1.25 1.519532-.359375.539062-.671875 1.121093-.921875 1.71875-.25.601562-.4375 1.230468-.566406 1.871093-.132812.648438-.191406 1.308594-.191406 1.960938 0 .648437.0625 1.308593.191406 1.949219.128906.640624.316406 1.269531.566406 1.867187.25.609375.5625 1.191406.921875 1.730469.371094.550781.777344 1.058594 1.25 1.519531.460938.460937.96875.882813 1.519531 1.242187.539063.359376 1.121094.667969 1.71875.917969.609376.25 1.230469.441407 1.871094.570313.648438.128906 1.300782.199218 1.960938.199218.648437 0 1.308594-.070312 1.949218-.199218.636719-.128906 1.269532-.320313 1.867188-.570313.601562-.25 1.183594-.558593 1.730469-.917969.539062-.359374 1.0625-.78125 1.519531-1.242187.460938-.460937.882812-.96875 1.242188-1.519531.359374-.539063.667968-1.121094.917968-1.730469.25-.597656.441406-1.226563.570313-1.867187.128906-.640626.199219-1.300782.199219-1.949219 0-.652344-.070313-1.3125-.199219-1.960938zm0 0"/><path d="m122.6875 178.488281c-5.242188-1.734375-10.898438 1.113281-12.628906 6.359375-5.75 17.417969-10.964844 38.011719-15.503906 61.207032-1.058594 5.421874 2.472656 10.671874 7.894531 11.734374.648437.125 1.292969.1875 1.929687.1875 4.6875 0 8.867188-3.3125 9.800782-8.082031 4.382812-22.378906 9.382812-42.152343 14.871093-58.78125 1.730469-5.242187-1.117187-10.898437-6.363281-12.625zm0 0"/><path d="m107.199219 285.121094c-.25-.601563-.558594-1.179688-.917969-1.71875-.359375-.550782-.78125-1.0625-1.242188-1.519532-.457031-.460937-.96875-.882812-1.519531-1.25-.539062-.359374-1.128906-.671874-1.730469-.921874-.597656-.25-1.226562-.4375-1.867187-.570313-1.289063-.257813-2.621094-.257813-3.910156 0-.628907.132813-1.261719.320313-1.871094.570313-.597656.25-1.179687.5625-1.71875.921874-.550781.367188-1.058594.789063-1.519531 1.25-.460938.457032-.882813.96875-1.25 1.519532-.359375.539062-.671875 1.117187-.921875 1.71875-.25.609375-.4375 1.230468-.570313 1.871094-.128906.648437-.1875 1.296874-.1875 1.957031 0 .652343.058594 1.3125.1875 1.953125.128906.636718.320313 1.269531.570313 1.867187.25.601563.5625 1.191407.921875 1.730469.367187.550781.789062 1.058594 1.25 1.519531.460937.460938.96875.878907 1.519531 1.242188.539063.355469 1.121094.667969 1.71875.917969.609375.25 1.242187.4375 1.871094.570312.648437.128906 1.308593.199219 1.960937.199219.648438 0 1.308594-.070313 1.949219-.199219.640625-.132812 1.269531-.320312 1.867187-.570312.601563-.25 1.191407-.5625 1.730469-.917969.550781-.363281 1.0625-.78125 1.519531-1.242188.460938-.460937.882813-.96875 1.242188-1.519531.359375-.539062.667969-1.128906.917969-1.730469.25-.597656.441406-1.230469.570312-1.867187.128907-.640625.199219-1.300782.199219-1.953125 0-.660157-.070312-1.308594-.199219-1.957031-.128906-.640626-.320312-1.261719-.570312-1.871094zm0 0"/></svg>