<svg xmlns="http://www.w3.org/2000/svg" width="512" height="512"><path d="M59.733 8.533h392.533c28.277 0 51.2 22.923 51.2 51.2v392.533c0 28.277-22.923 51.2-51.2 51.2H59.733c-28.277 0-51.2-22.923-51.2-51.2V59.733c0-28.277 22.923-51.2 51.2-51.2z" data-original="#DC6C33" fill="#dc6c33"/><g fill="#faedbd"><circle cx="72.533" cy="72.533" r="21.333" data-original="#FAEDBD"/><circle cx="439.467" cy="72.533" r="21.333" data-original="#FAEDBD"/><circle cx="72.533" cy="439.467" r="21.333" data-original="#FAEDBD"/><circle cx="439.467" cy="439.467" r="21.333" data-original="#FAEDBD"/><path d="M206.4 324.267h83.733c9.426 0 17.067-7.641 17.067-17.067v-27.064c0-4.526 1.798-8.867 4.999-12.068l7.069-7.069A17.067 17.067 0 0 1 331.336 256h28.528c4.526 0 8.867-1.798 12.068-4.999l32.669-32.669a17.067 17.067 0 0 0 4.999-12.068v-71.195c0-4.526-1.798-8.867-4.999-12.068l-32.669-32.669a17.067 17.067 0 0 0-12.068-4.999H160.669a17.067 17.067 0 0 0-12.068 4.999l-32.669 32.669a17.067 17.067 0 0 0-4.999 12.068v52.664c0 9.426 7.641 17.067 17.067 17.067h34.133c9.426 0 17.067-7.641 17.067-17.067v-18.531c0-4.526 1.798-8.867 4.999-12.068l7.069-7.069a17.067 17.067 0 0 1 12.068-4.999h105.328c4.526 0 8.867 1.798 12.068 4.999l7.069 7.069a17.067 17.067 0 0 1 4.999 12.068v27.064c0 9.426-7.641 17.067-17.067 17.067h-44.131a17.067 17.067 0 0 0-12.068 4.999l-49.736 49.736a17.067 17.067 0 0 0-4.999 12.068v44.131M221.867 366.933h68.267c9.426 0 17.067 7.641 17.067 17.067v34.133c0 9.426-7.641 17.067-17.067 17.067h-68.267c-9.426 0-17.067-7.641-17.067-17.067V384c0-9.426 7.641-17.067 17.067-17.067z" data-original="#FAEDBD"/></g><path d="M59.733 8.533h392.533c28.277 0 51.2 22.923 51.2 51.2v392.533c0 28.277-22.923 51.2-51.2 51.2H59.733c-28.277 0-51.2-22.923-51.2-51.2V59.733c0-28.277 22.923-51.2 51.2-51.2z" data-original="#DD5919" class="active-path" data-old_color="#481D03" fill="#491e04"/><path d="M56.926 8.533h362.906c27.316 0 49.459 22.144 49.459 49.459v396.015c0 27.316-22.144 49.459-49.459 49.459H56.926c-27.316 0-49.459-22.144-49.459-49.459V57.993c0-27.316 22.143-49.46 49.459-49.46z" data-original="#FF6E2C" data-old_color="#825416" fill="#805316"/><circle cx="72.533" cy="72.533" r="21.333" data-original="#FFBA00" data-old_color="#F7F6F2" fill="#f9f9f9"/><circle cx="439.467" cy="72.533" r="21.333" data-original="#FFBA00" data-old_color="#F7F6F2" fill="#f9f9f9"/><circle cx="72.533" cy="439.467" r="21.333" data-original="#FFBA00" data-old_color="#F7F6F2" fill="#f9f9f9"/><circle cx="439.467" cy="439.467" r="21.333" data-original="#FFBA00" data-old_color="#F7F6F2" fill="#f9f9f9"/><path d="M409.6 135.083v71.168a17.117 17.117 0 0 1-5.035 12.117l-32.597 32.597A17.123 17.123 0 0 1 359.851 256H331.35a17.119 17.119 0 0 0-12.117 5.035l-6.997 6.997a17.119 17.119 0 0 0-5.035 12.117V307.2c-.028 9.414-7.652 17.039-17.067 17.067H204.8V280.15a17.119 17.119 0 0 1 5.035-12.117l49.664-49.664a17.123 17.123 0 0 1 12.117-5.035h44.117c9.414-.028 17.039-7.653 17.067-17.067v-27.051a17.119 17.119 0 0 0-5.035-12.117l-6.997-6.997a17.123 17.123 0 0 0-12.117-5.035H203.349a17.117 17.117 0 0 0-12.117 5.035l-6.997 6.997a17.119 17.119 0 0 0-5.035 12.117v18.517c-.028 9.414-7.653 17.039-17.067 17.067H128c-9.414-.028-17.039-7.653-17.067-17.067v-52.651a17.119 17.119 0 0 1 5.035-12.117l32.597-32.597a17.123 17.123 0 0 1 12.117-5.035H359.85a17.119 17.119 0 0 1 12.117 5.035l32.597 32.597a17.116 17.116 0 0 1 5.036 12.118zM221.867 366.933h68.267c9.426 0 17.067 7.641 17.067 17.067v34.133c0 9.426-7.641 17.067-17.067 17.067h-68.267c-9.426 0-17.067-7.641-17.067-17.067V384c0-9.426 7.641-17.067 17.067-17.067z" data-original="#FFBA00" data-old_color="#F7F6F2" fill="#f9f9f9"/><g><path d="M375.467 135.083v71.168a17.117 17.117 0 0 1-5.035 12.117l-32.597 32.597A17.123 17.123 0 0 1 325.718 256h-28.501a17.119 17.119 0 0 0-12.117 5.035l-6.997 6.997a17.119 17.119 0 0 0-5.035 12.117V307.2c-.028 9.414-7.652 17.039-17.067 17.067h-51.2V280.15a17.119 17.119 0 0 1 5.035-12.117l49.664-49.664a17.123 17.123 0 0 1 12.117-5.035h44.117c9.414-.028 17.039-7.653 17.067-17.067v-27.051a17.119 17.119 0 0 0-5.035-12.117l-6.997-6.997a17.123 17.123 0 0 0-12.117-5.035H169.216a17.119 17.119 0 0 0-12.117 5.035l-6.997 6.997a17.119 17.119 0 0 0-5.035 12.117v18.517c0 9.426-7.641 17.067-17.067 17.067s-17.067-7.641-17.067-17.067v-52.651a17.119 17.119 0 0 1 5.035-12.117l32.597-32.597a17.123 17.123 0 0 1 12.117-5.035h165.035a17.119 17.119 0 0 1 12.117 5.035l32.597 32.597a17.12 17.12 0 0 1 5.036 12.118zM221.867 366.933H256c9.426 0 17.067 7.641 17.067 17.067v34.133c0 9.426-7.641 17.067-17.067 17.067h-34.133c-9.426 0-17.067-7.641-17.067-17.067V384c0-9.426 7.641-17.067 17.067-17.067z" data-original="#FFC500" data-old_color="#FCFBFB" fill="#fcfcfc"/></g><g><path d="M452.267 0H59.733C26.759.037.037 26.759 0 59.733v392.533C.037 485.241 26.759 511.963 59.733 512h392.533c32.974-.037 59.696-26.759 59.733-59.733V59.733C511.963 26.759 485.241.037 452.267 0zm42.666 452.267c-.028 23.553-19.114 42.639-42.667 42.667H59.733c-23.553-.028-42.639-19.114-42.667-42.667V59.733c.028-23.553 19.114-42.639 42.667-42.667h392.533c23.553.028 42.639 19.114 42.667 42.667v392.534z" data-original="#000000"/><path d="M72.533 102.4c16.495 0 29.867-13.372 29.867-29.867S89.028 42.667 72.533 42.667 42.667 56.038 42.667 72.533c.02 16.487 13.38 29.847 29.866 29.867zm0-42.667c7.069 0 12.8 5.731 12.8 12.8 0 7.069-5.731 12.8-12.8 12.8-7.069 0-12.8-5.731-12.8-12.8.008-7.066 5.734-12.792 12.8-12.8zM439.467 42.667c-16.495 0-29.867 13.372-29.867 29.867s13.372 29.867 29.867 29.867 29.867-13.372 29.867-29.867c-.021-16.487-13.381-29.847-29.867-29.867zm0 42.666c-7.069 0-12.8-5.731-12.8-12.8 0-7.069 5.731-12.8 12.8-12.8 7.069 0 12.8 5.731 12.8 12.8-.008 7.066-5.734 12.793-12.8 12.8zM72.533 409.6c-16.495 0-29.867 13.372-29.867 29.867s13.372 29.867 29.867 29.867 29.867-13.372 29.867-29.867c-.02-16.487-13.38-29.847-29.867-29.867zm0 42.667c-7.069 0-12.8-5.731-12.8-12.8 0-7.069 5.731-12.8 12.8-12.8 7.069 0 12.8 5.731 12.8 12.8-.007 7.066-5.734 12.792-12.8 12.8zM439.467 409.6c-16.495 0-29.867 13.372-29.867 29.867s13.372 29.867 29.867 29.867 29.867-13.372 29.867-29.867c-.021-16.487-13.381-29.847-29.867-29.867zm0 42.667c-7.069 0-12.8-5.731-12.8-12.8 0-7.069 5.731-12.8 12.8-12.8 7.069 0 12.8 5.731 12.8 12.8-.008 7.066-5.734 12.792-12.8 12.8zM418.133 206.263v-71.192a25.43 25.43 0 0 0-7.5-18.104L377.967 84.3a25.43 25.43 0 0 0-18.104-7.5H160.671a25.43 25.43 0 0 0-18.104 7.5L109.9 116.966a25.43 25.43 0 0 0-7.5 18.104v52.663c.015 14.132 11.468 25.585 25.6 25.6h34.133c14.132-.015 25.585-11.468 25.6-25.6v-18.529a8.486 8.486 0 0 1 2.5-6.038l7.067-7.067a8.485 8.485 0 0 1 6.037-2.5h105.325a8.486 8.486 0 0 1 6.038 2.5l7.067 7.067a8.486 8.486 0 0 1 2.5 6.038v27.062a8.544 8.544 0 0 1-8.533 8.533h-44.129a25.43 25.43 0 0 0-18.104 7.5l-49.733 49.733a25.43 25.43 0 0 0-7.5 18.104v44.129a8.631 8.631 0 0 0 9.333 8.496c.262.025.529.037.8.037h83.733c14.132-.015 25.585-11.468 25.6-25.6v-27.063a8.486 8.486 0 0 1 2.5-6.038l7.067-7.067a8.485 8.485 0 0 1 6.037-2.5h28.525a25.43 25.43 0 0 0 18.104-7.5l32.667-32.666a25.412 25.412 0 0 0 7.499-18.101zm-17.066 0a8.486 8.486 0 0 1-2.5 6.038L365.9 244.966a8.486 8.486 0 0 1-6.038 2.5h-28.525a25.43 25.43 0 0 0-18.104 7.5l-7.067 7.067a25.43 25.43 0 0 0-7.5 18.104V307.2a8.544 8.544 0 0 1-8.533 8.533h-76.8v-35.596a8.486 8.486 0 0 1 2.5-6.038l49.733-49.733a8.486 8.486 0 0 1 6.038-2.5h44.129c14.132-.015 25.585-11.468 25.6-25.6v-27.063a25.43 25.43 0 0 0-7.5-18.104l-7.067-7.067a25.43 25.43 0 0 0-18.104-7.5H203.337a25.43 25.43 0 0 0-18.104 7.5l-7.067 7.067a25.43 25.43 0 0 0-7.5 18.104v18.529a8.544 8.544 0 0 1-8.533 8.533H128a8.544 8.544 0 0 1-8.533-8.533v-52.663a8.486 8.486 0 0 1 2.5-6.038l32.666-32.666a8.485 8.485 0 0 1 6.037-2.5h199.192a8.486 8.486 0 0 1 6.038 2.5l32.666 32.666a8.486 8.486 0 0 1 2.5 6.038v71.194zM290.133 358.4h-68.267c-14.132.015-25.585 11.468-25.6 25.6v34.133c.015 14.132 11.468 25.585 25.6 25.6h68.267c14.132-.015 25.585-11.468 25.6-25.6V384c-.015-14.132-11.468-25.585-25.6-25.6zm8.534 59.733a8.544 8.544 0 0 1-8.533 8.533h-68.267a8.544 8.544 0 0 1-8.533-8.533V384a8.544 8.544 0 0 1 8.533-8.533h68.267a8.544 8.544 0 0 1 8.533 8.533v34.133z" data-original="#000000"/></g></svg>