<svg xmlns="http://www.w3.org/2000/svg" viewBox="0 0 464 464"><path d="M16 120h432v200H16V120z" fill="#fce9cc"/><path d="M0 288h464v32H0v-32z" fill="#6cbbc7"/><path d="M48 256c0 17.673 14.327 32 32 32h8c17.673 0 32-14.327 32-32H48z" fill="#ffa900"/><path d="M48 224c0 17.673 14.327 32 32 32h8c17.673 0 32-14.327 32-32H48z" fill="#f80"/><path d="M152 288l8-32h24l8 32h-40z" fill="#ff421d"/><path d="M216 288l8-32h24l8 32h-40z" fill="#ff6536"/><path d="M288 224h128v64H288v-64z" fill="#763a02"/><path d="M312 248h80v16h-80v-16z" fill="#592c02"/><path d="M16 320h48v144H16V320z" fill="#ff6536"/><path d="M64 320h48v144H64V320z" fill="#fdb62f"/><path d="M112 320h48v144h-48V320z" fill="#ff6536"/><path d="M160 320h48v144h-48V320z" fill="#fdb62f"/><path d="M208 320h48v144h-48V320z" fill="#ff6536"/><path d="M256 320h48v144h-48V320z" fill="#fdb62f"/><path d="M304 320h48v144h-48V320z" fill="#ff6536"/><path d="M352 320h48v144h-48V320z" fill="#fdb62f"/><g fill="#ff6536"><path d="M400 320h48v144h-48V320zM208 120h48v16c0 13.255-10.745 24-24 24s-24-10.745-24-24v-16z"/></g><path d="M256 120h48v16c0 13.255-10.745 24-24 24s-24-10.745-24-24v-16z" fill="#fdb62f"/><path d="M304 120h48v16c0 13.255-10.745 24-24 24s-24-10.745-24-24v-16z" fill="#ff6536"/><path d="M352 120h48v16c0 13.255-10.745 24-24 24s-24-10.745-24-24v-16z" fill="#fdb62f"/><path d="M400 120h48v16c0 13.255-10.745 24-24 24s-24-10.745-24-24v-16z" fill="#ff6536"/><path d="M160 120h48v16c0 13.255-10.745 24-24 24s-24-10.745-24-24v-16z" fill="#fdb62f"/><path d="M112 120h48v16c0 13.255-10.745 24-24 24s-24-10.745-24-24v-16z" fill="#ff6536"/><path d="M64 120h48v16c0 13.255-10.745 24-24 24s-24-10.745-24-24v-16z" fill="#fdb62f"/><path d="M16 120h48v16c0 13.255-10.745 24-24 24s-24-10.745-24-24v-16z" fill="#ff6536"/><path d="M64 120L96 0H56L16 120h48z" fill="#ff421d"/><path d="M96 0L64 120h48L136 0H96z" fill="#ffa900"/><path d="M112 120h48L176 0h-40l-24 120z" fill="#ff421d"/><path d="M176 0l-16 120h48l8-120h-40z" fill="#ffa900"/><path d="M256 0v120h-48l8-120h40z" fill="#ff421d"/><path d="M304 120h-48V0h40l8 120z" fill="#ffa900"/><path d="M352 120h-48L296 0h40l16 120z" fill="#ff421d"/><path d="M400 120h-48L336 0h40l24 120z" fill="#ffa900"/><path d="M448 120h-48L376 0h40l32 120z" fill="#ff421d"/></svg>