<svg xmlns="http://www.w3.org/2000/svg" viewBox="0 0 512 512"><circle cx="256" cy="256" r="256" fill="#4482c3"/><g fill="#4fba6f"><path d="M369.823 135.662c-3.354 10.328-15.448 14.83-23.57 20.48a149.158 149.158 0 0 1-34.428 19.509c-12.27 4.414-26.394 5.032-37.429 12.182-11.034 7.15-10.417 17.479-9.004 28.954a9.71 9.71 0 0 1-1.942 8.121 10.154 10.154 0 0 1-11.123.618c-8.21-3.354-15.448-8.828-24.541-5.032a21.84 21.84 0 0 0-13.065 20.392c0 18.803 16.243 29.131 29.219 39.636 3.708 3.09 20.48 21.01 10.505 25.159a10.496 10.496 0 0 1-6.356-.265 6902.342 6902.342 0 0 0-57.732-14.301c-16.066-3.884-33.81-9.004-41.843-23.393-6.797-12.182-4.855-28.16-13.065-39.283-7.239-9.799-20.039-13.065-31.691-16.419-11.652-3.354-24.276-8.916-28.601-20.215-7.062-18.626 13.153-38.577 8.21-57.909C78.689 115.8 59.71 114.3 45.233 120.744a26.546 26.546 0 0 0-8.298 5.65l-1.148-1.148A255.293 255.293 0 0 1 185.591 9.781a56.098 56.098 0 0 0 44.226 25.335c14.83.706 29.572-5.208 43.432 3.531a19.748 19.748 0 0 1 9.357 21.981c-4.061 11.388-21.01 17.037-19.95 29.043.883 9.534 13.33 13.594 22.599 11.388 9.269-2.207 17.567-8.033 27.101-9.446 14.83-2.119 28.601 7.062 40.783 15.801 9.534 6.886 20.268 17.126 16.684 28.248zM420.961 451.628a254.314 254.314 0 0 1-164.458 60.028 249.624 249.624 0 0 1-40.077-3.178 133.524 133.524 0 0 1-12.182-7.592 36.35 36.35 0 0 1-17.037-27.189c.44-6.718 2.5-13.23 6.003-18.979 4.326-8.475 3.619-19.421 10.152-26.659 5.561-6.091 14.124-7.68 20.568-12.623a59.134 59.134 0 0 0 14.83-17.832 153.816 153.816 0 0 1 16.596-30.19c11.476-12.094 30.455-7.15 43.52-.883a144.32 144.32 0 0 1 39.018 26.041 408.173 408.173 0 0 0 36.634 34.339 170.18 170.18 0 0 0 46.433 24.717z"/></g></svg>