<svg xmlns="http://www.w3.org/2000/svg" viewBox="0 0 512 512"><path d="M511.907 248.54c-3.828-37.261-17.453-72.946-43.452-100.144 1.961-7.198.154-15.094-5.318-20.847a109.063 109.063 0 0 0-6.345-6.12c.454-2.069.553-4.219.226-6.345-.729-4.736-3.42-9-7.381-11.697-17.772-12.102-38.714-20.409-62.25-24.696a17.311 17.311 0 0 0-14.208 3.746 17.307 17.307 0 0 0-3.34 3.76 216.397 216.397 0 0 0-20.437-1.009l-40.273-5.196a19.438 19.438 0 0 0-.96-.062H203.834c-.134 0-.836.046-.96.062l-40.272 5.196c-6.918.017-13.765.358-20.438 1.009a17.352 17.352 0 0 0-3.339-3.76 17.303 17.303 0 0 0-14.216-3.746c-23.529 4.285-44.471 12.594-62.245 24.695a17.406 17.406 0 0 0-7.38 11.699 17.306 17.306 0 0 0 .227 6.343 109.122 109.122 0 0 0-6.345 6.121c-5.471 5.752-7.279 13.649-5.318 20.847C17.705 175.364 3.942 211.091.092 248.541c-.9 8.771 4.862 16.971 13.405 19.076l54.088 13.339c9.262 2.281 18.53-3.65 20.379-12.929 3.681-18.484 11.941-31.984 17.244-39.142.886.36 1.839.563 2.821.563h28.59v104.051l-10.39 12.598a18.145 18.145 0 0 0-6.016 13.523v42.948c0 4.743 1.942 9.245 5.359 12.492l10.29 13.615c1.673 2.21 6.038 4.916 11.243 4.916h217.79c5.01 0 9.464-2.565 11.243-4.916l10.29-13.615a17.21 17.21 0 0 0 5.358-12.492V359.62a18.141 18.141 0 0 0-6.016-13.523L375.381 333.5v-56.529c0-4.143-3.357-7.5-7.5-7.5a7.499 7.499 0 0 0-7.5 7.5v14.612h-58.037a2.754 2.754 0 0 1-2.752-2.752v-79.423c0-1.937.557-3.82 1.609-5.446l40.15-62.006v45.87a7.5 7.5 0 0 0 .95 3.653l18.079 32.419v18.07c0 4.143 3.357 7.5 7.5 7.5s7.5-3.357 7.5-7.5v-12.521h28.59a7.48 7.48 0 0 0 2.819-.562c5.308 7.164 13.566 20.661 17.246 39.141 1.847 9.28 11.121 15.209 20.379 12.929l54.086-13.339c8.544-2.105 14.308-10.307 13.407-19.076zM298.992 94.931c-5.766 19.4-20.422 33.858-38.869 42.378a9.812 9.812 0 0 1-8.246 0c-18.391-8.496-33.107-23.042-38.872-42.378h85.987zM169.701 191.48a7.5 7.5 0 0 0 .95-3.653v-45.87l40.15 62.006a9.999 9.999 0 0 1 1.609 5.446v80.079c0 1.155-.94 2.096-2.097 2.096h-58.691v-67.686l18.079-32.418zm-98.894-75.696c16.03-10.914 35.036-18.429 56.483-22.334a2.348 2.348 0 0 1 2.768 2.304v68.982c0 4.44-2.691 8.303-6.856 9.84-4.097 1.512-8.612.478-11.614-3.035l-41.18-52.214c-1.058-1.533-.602-2.86.399-3.543zm-19.113 45.872l17.202 22.143c-4.255 8.373-17.538 28.898-48.698 37.813 6.407-24.212 17.312-44.186 31.496-59.956zm21.56 103.442c-.187.937-1.133 1.526-2.076 1.293L17.09 253.052c-1.345-.331-2.217-1.584-2.073-2.978.394-3.831.929-7.894 1.64-12.126 35.627-7.614 53.896-28.281 62.169-41.367l16.221 20.88c-6.178 7.756-17.116 24.151-21.793 47.637zm38.448-50.65l-1.027-1.322-.002-.003-51.424-66.193c-2.112-2.723-1.909-6.525.487-9.044a90.872 90.872 0 0 1 3.476-3.461l36.568 46.368c.139.175.28.349.41.5 15.339 17.951 44.868 7.147 44.868-16.559v-63.755c3.483-.313 7.021-.535 10.591-.665v85.562l-15.935 28.572h-28.012zm252.644 129.246l10.253 12.433c.912 1.11 2.188 1.604 2.188 3.494v14.022H273.503a7.5 7.5 0 0 0-7.5 7.501c0 4.143 3.357 7.5 7.5 7.5h103.283v13.926c0 1.403-.927 1.598-1.901 2.886l-9.926 13.134a.664.664 0 0 1-.063.003H147.107a.649.649 0 0 1-.063-.003l-9.926-13.134c-.876-1.157-1.902-1.506-1.902-2.886v-13.926H238.5c4.143 0 7.5-3.357 7.5-7.5a7.5 7.5 0 0 0-7.5-7.501H135.216v-14.022c0-1.88 1.257-2.365 2.188-3.494l10.254-12.433h216.688zM288.61 195.809a24.98 24.98 0 0 0-4.018 13.6v79.423c0 9.789 7.964 17.753 17.753 17.753h58.037v22.107h-208.76v-22.107h58.692c9.428 0 17.098-7.67 17.098-17.097v-80.079a24.98 24.98 0 0 0-4.018-13.6l-52.742-81.453V99.275l27.07-3.493c5.554 22.547 21.747 43.033 47.723 55.077.048.022.093.046.141.068a24.78 24.78 0 0 0 20.83 0l.071-.034c26.198-12.122 42.371-32.811 47.794-55.111l27.071 3.493v15.081h.001l-52.743 81.453zm171.699-34.153c15.539 17.274 25.653 37.878 31.496 59.956-31.182-8.919-44.46-29.464-48.7-37.81l17.204-22.146zm-78.365-65.902h.001a2.344 2.344 0 0 1 2.761-2.305c21.454 3.906 40.46 11.422 56.488 22.336 1 .679 1.466 2.003.398 3.544l-41.106 52.122-.079.097c-6.374 7.458-18.463 2.866-18.463-6.813V95.754zm18.357 118.694h-28.014l-15.935-28.572v-85.562c3.569.13 7.105.352 10.591.665v63.755c0 10.792 6.541 20.178 16.662 23.912 10.835 4.002 22.235.175 28.638-7.88l36.547-46.342a92.398 92.398 0 0 1 3.477 3.462c2.396 2.519 2.599 6.322.483 9.046l-52.449 67.516zm94.61 38.604l-54.086 13.339c-.945.234-1.89-.357-2.076-1.292v-.001c-4.676-23.487-15.616-39.88-21.793-47.636l16.221-20.88c8.273 13.086 26.542 33.753 62.169 41.368a191.677 191.677 0 0 1 1.64 12.126c.143 1.392-.729 2.645-2.075 2.976z"/></svg>