<svg xmlns="http://www.w3.org/2000/svg" viewBox="0 0 511.999 511.999" width="512" height="512"><path d="M46.778 317.381h63.435v178.876H46.778a6.16 6.16 0 0 1-6.16-6.16V323.542a6.16 6.16 0 0 1 6.16-6.161z" data-original="#A86D38" fill="#a86d38"/><path d="M60.959 490.097V323.542a6.16 6.16 0 0 1 6.16-6.16h-20.34a6.16 6.16 0 0 0-6.16 6.16v166.555a6.16 6.16 0 0 0 6.16 6.16H67.12a6.16 6.16 0 0 1-6.161-6.16z" data-original="#995F30" fill="#995f30"/><path d="M30.58 459.182V442.07a4.678 4.678 0 0 1 4.677-4.678h74.957v26.467H35.257a4.677 4.677 0 0 1-4.677-4.677zM35.257 350.692h74.957v26.467H35.257a4.677 4.677 0 0 1-4.677-4.677V355.37a4.677 4.677 0 0 1 4.677-4.678z" data-original="#995F30" fill="#995f30"/><path d="M50.921 459.182V442.07a4.677 4.677 0 0 1 4.677-4.678H35.257a4.677 4.677 0 0 0-4.677 4.678v17.112a4.677 4.677 0 0 0 4.677 4.677h20.341a4.677 4.677 0 0 1-4.677-4.677zM50.921 372.481v-17.112a4.678 4.678 0 0 1 4.677-4.678H35.257a4.677 4.677 0 0 0-4.677 4.678v17.112a4.677 4.677 0 0 0 4.677 4.677h20.341a4.677 4.677 0 0 1-4.677-4.677z" data-original="#8E552B" fill="#8e552b"/><path d="M465.222 317.381h-63.435v178.876h63.435a6.16 6.16 0 0 0 6.16-6.16V323.542a6.16 6.16 0 0 0-6.16-6.161z" data-original="#A86D38" fill="#a86d38"/><path d="M424.452 317.381h-22.665v178.876h22.665V317.381z" data-original="#995F30" fill="#995f30"/><path d="M481.42 459.182V442.07a4.678 4.678 0 0 0-4.677-4.678h-74.957v26.467h74.957a4.677 4.677 0 0 0 4.677-4.677z" data-original="#995F30" fill="#995f30"/><path d="M424.452 437.392h-22.665v26.467h22.665v-26.467z" data-original="#8E552B" fill="#8e552b"/><path d="M476.743 350.692h-74.957v26.467h74.957a4.677 4.677 0 0 0 4.677-4.677V355.37a4.677 4.677 0 0 0-4.677-4.678z" data-original="#995F30" fill="#995f30"/><path d="M424.452 350.692h-22.665v26.467h22.665v-26.467z" data-original="#8E552B" fill="#8e552b"/><path d="M368.642 108.257l12.393-92.918c.643-4.818-2.664-9.255-7.388-9.911L335.135.081c-4.722-.655-9.072 2.719-9.714 7.537l-13.423 100.639h56.644z" data-original="#B78046" fill="#b78046"/><path d="M349.093 2.019L335.135.081c-4.722-.655-9.072 2.719-9.714 7.537l-13.423 100.639h20.605L346.025 7.618a8.807 8.807 0 0 1 3.068-5.599z" data-original="#A86D38" fill="#a86d38"/><path d="M143.359 108.257h56.644L186.581 7.618c-.643-4.818-4.992-8.192-9.715-7.537l-38.512 5.347c-4.723.656-8.031 5.093-7.388 9.911l12.393 92.918z" data-original="#B78046" fill="#b78046"/><path d="M151.571 27.359c-.643-4.818 2.664-9.255 7.388-9.911l28.407-3.944-.785-5.886c-.643-4.818-4.992-8.192-9.715-7.537l-38.512 5.347c-4.723.656-8.03 5.093-7.388 9.911l12.393 92.918h19.002l-10.79-80.898z" data-original="#A86D38" fill="#a86d38"/><path d="M387.419 106.106H124.581c-9.035 0-16.427 7.392-16.427 16.427v373.039c0 9.035 7.392 16.427 16.427 16.427H387.42c9.035 0 16.427-7.392 16.427-16.427V122.533c0-9.035-7.392-16.427-16.428-16.427z" data-original="#B78046" fill="#b78046"/><path d="M128.758 495.573v-373.04c0-9.035 7.392-16.427 16.427-16.427H124.58c-9.035 0-16.427 7.392-16.427 16.427v373.039c0 9.035 7.392 16.427 16.427 16.427h20.605c-9.034.001-16.427-7.391-16.427-16.426z" data-original="#A86D38" fill="#a86d38"/><path d="M292.277 113.833a7.727 7.727 0 0 1-7.727-7.727c0-15.742-12.808-28.55-28.55-28.55-15.743 0-28.551 12.808-28.551 28.55a7.727 7.727 0 0 1-15.454 0c0-24.264 19.74-44.004 44.004-44.004s44.004 19.74 44.004 44.004a7.726 7.726 0 0 1-7.726 7.727z" data-original="#B78046" fill="#b78046"/><path d="M387.419 106.106H124.581c-9.035 0-16.427 7.392-16.427 16.427v98.222c0 27.293 22.331 49.624 49.624 49.624h196.445c27.293 0 49.624-22.331 49.624-49.624v-98.222c0-9.035-7.392-16.427-16.428-16.427z" data-original="#A86D38" fill="#a86d38"/><path d="M128.758 220.756v-98.222c0-9.035 7.392-16.427 16.427-16.427H124.58c-9.035 0-16.427 7.392-16.427 16.427v98.222c0 27.293 22.331 49.624 49.624 49.624h20.605c-27.293 0-49.624-22.331-49.624-49.624z" data-original="#995F30" fill="#995f30"/><path d="M348.404 377.158H163.596c-6.964 0-12.663 5.698-12.663 12.663v61.375c0 6.964 5.698 12.663 12.663 12.663h184.808c6.964 0 12.663-5.698 12.663-12.663v-61.375c0-6.964-5.698-12.663-12.663-12.663z" data-original="#A86D38" fill="#a86d38"/><path d="M171.538 451.196v-61.375c0-6.964 5.698-12.663 12.663-12.663h-20.605c-6.964 0-12.663 5.698-12.663 12.663v61.375c0 6.964 5.698 12.663 12.663 12.663h20.605c-6.965 0-12.663-5.699-12.663-12.663z" data-original="#995F30" fill="#995f30"/><path d="M330.608 428.236a7.727 7.727 0 0 1-7.727-7.727v-20.692a7.727 7.727 0 0 1 15.454 0v20.692a7.728 7.728 0 0 1-7.727 7.727z" data-original="#E1F1FB" class="active-path" data-old_color="#E1F1FB" fill="#a86d38"/><path d="M170.047 106.106v30.648c0 7.05 5.716 12.765 12.766 12.765h145.109c7.05 0 12.765-5.715 12.765-12.765v-30.648h-170.64z" data-original="#995F30" fill="#995f30"/><path d="M190.652 136.754v-30.648h-20.605v30.648c0 7.05 5.716 12.765 12.766 12.765h20.605c-7.05 0-12.766-5.715-12.766-12.765z" data-original="#8E552B" fill="#8e552b"/><path d="M236.835 237.746v66.435a5.29 5.29 0 0 0 1.618 3.808l12.987 12.523a6.57 6.57 0 0 0 9.12 0l13.113-12.644a4.88 4.88 0 0 0 1.493-3.513v-66.61l-38.331.001z" data-original="#995F30" fill="#995f30"/><path d="M259.058 307.99a5.29 5.29 0 0 1-1.618-3.808v-66.435h-20.605v66.435a5.29 5.29 0 0 0 1.618 3.808l12.987 12.523a6.57 6.57 0 0 0 9.12 0l5.743-5.537-7.245-6.986z" data-original="#8E552B" fill="#8e552b"/><path d="M278.816 211.515h-45.632c-5.772 0-10.495 4.723-10.495 10.495v7.301c0 5.773 4.723 10.495 10.495 10.495h45.632c5.773 0 10.495-4.722 10.495-10.495v-7.301c0-5.772-4.722-10.495-10.495-10.495z" data-original="#B78046" fill="#b78046"/><g><path d="M278.816 222.164h-45.632c-3.894 0-7.303-2.153-9.115-5.324a10.391 10.391 0 0 0-1.381 5.171v7.301c0 5.773 4.723 10.495 10.495 10.495h45.632c5.772 0 10.495-4.723 10.495-10.495v-7.301c0-1.878-.507-3.641-1.38-5.171-1.81 3.17-5.22 5.324-9.114 5.324zM348.404 377.158H163.596c-6.964 0-12.663 5.698-12.663 12.663v17.454h210.134v-17.454c0-6.964-5.698-12.663-12.663-12.663z" data-original="#995F30" fill="#995f30"/></g><path d="M150.933 389.821v17.454h20.605v-17.454c0-6.964 5.698-12.663 12.663-12.663h-20.605c-6.965 0-12.663 5.699-12.663 12.663z" data-original="#8E552B" fill="#8e552b"/></svg>