<svg xmlns="http://www.w3.org/2000/svg" width="465.318" height="485"><g fill="#d3ce6a"><path d="M324.91 225c.857-3.475-22.5-16-22-19.385.405-2.748 20.641-9.945 34.25-19.615 11.448-8.137 14.895-25.477 13-27-2.132-1.714-69.023 31.643-70.25 34-1.173 2.25 4.511 37.966 7 40.5 2.022 2.061 37.554-6.696 38-8.5zM439.91 233.812c.001-3.037-17.78-1.771-23.5-.312-19.27 4.914-67.493 39.992-65.76 42.75 2.521 4.016 26.68-7.361 32.26-9 18.82-5.529 56.998-31.476 57-33.438z"/><path d="M453.41 188.5c-8.58 1.359-47.44 22.58-64.5 29.5-13.6 5.51-36.5 10-57 14-13.23 2.58-26.96 3.42-36 3.5-4.76.04-10.33-.22-19.03-.24-8.97-.01-10.97-2.26-10.97-2.26s1.01-18.74 1-25c-.01-5.76-2.06-21.189-1-23 1.5-2.58 46.41-23.12 61-33 13.91-9.42 40.1-26.75 49-41 4.73-7.57 19.63-29.2 12-34 0 0-52.79 45.87-72 59-15.16 10.359-63.2 34.439-64 36-.98 1.92 3.33 32.971 0 59-.89 6.95-9 13-9 13s-.91-76.2 0-78c.94-1.84 53.28-37.26 68-53 11.96-12.79 23.34-36.3 32.23-51.51C355.04 41.13 344.91 8 344.91 8s-30.34 68.73-46 88c-11.43 14.061-56 46-56 46V44c0-29-7.5-44-7.5-44h-5.5s-7.5 15-7.5 44v98s-44.57-31.939-56-46c-15.66-19.27-46-88-46-88s-10.13 33.13 1.77 53.49c8.89 15.21 20.27 38.72 32.23 51.51 14.72 15.74 67.06 51.16 68 53 .91 1.8 0 78 0 78s-8.11-6.05-9-13c-3.33-26.029.98-57.08 0-59-.8-1.561-48.84-25.641-64-36-19.21-13.13-72-59-72-59-7.63 4.8 7.27 26.43 12 34 8.9 14.25 35.09 31.58 49 41 14.59 9.88 59.5 30.42 61 33 1.06 1.811-.99 17.24-1 23-.01 6.26 1 25 1 25s-2 2.25-10.972 2.26c-8.699.021-14.27.28-19.029.24-9.04-.08-22.77-.92-36-3.5-20.5-4-43.4-8.49-57-14-17.06-6.92-55.92-28.141-64.5-29.5-9.38-1.49-13.25 2.84-11.5 5.5 3.37 5.109 55.27 32.11 75 40 15.34 6.13 60.19 11.83 61 13 .98 1.4-8.31 54.46-6 57 1.25 1.38 8.4-7.81 12-8 3.05-.16 7.431 6.04 8 9 1.03 5.34 2.431 45.8 4 61 1.601 15.5 11 36.75 11 29 0-4 3.25-118.32 0-125.32-2.64-5.699-16.5 7.82-18 6.32-3.51-3.49-3.069-26.59-1-27 3.71-.74 13.49 1.99 26 2.01 13.86.03 27.54-2.569 28.75-2.01 2.93 1.35 7.49 10.11 6.74 11-.83.98-21.87-3.5-29.49 9.68-4.75 8.2-5.49 21.15-5 28.32 1.12 16.5 1.62 31.88 9.5 43.5 11.33 16.7 37.25 34.25 38.5 39.5 1.721 7.24-.859 80.11 2 91 1.79 6.8 6.5 13 6.5 13h6.5s3.71-6.2 5.5-13c2.86-10.89.28-83.76 2-91 1.25-5.25 27.17-22.8 38.5-39.5 7.88-11.62 8.38-27 9.5-43.5.49-7.17-.25-20.12-5-28.32-7.62-13.18-28.66-8.699-29.49-9.68-.75-.89 3.811-9.65 6.74-11 1.21-.56 14.89 2.04 28.75 2.01 12.51-.02 22.29-2.75 26-2.01 2.07.41 2.51 23.51-1 27-1.5 1.5-15.36-12.02-18-6.32-3.25 7 0 121.32 0 125.32 0 7.75 9.4-13.5 11-29 1.57-15.2 2.97-55.66 4-61 .57-2.96 4.95-9.16 8-9 3.6.19 10.75 9.38 12 8 2.31-2.54-6.98-55.6-6-57 .81-1.17 45.66-6.87 61-13 19.73-7.89 71.63-34.891 75-40 1.75-2.66-2.12-6.99-11.5-5.5zm-230 167.5c.3 6.67-31.33-21.33-33-37-1.12-10.57-3.35-30.91 0-42.5 1.17-4.06 10.33-9.17 19-6.5 12.06 3.71 14 12.11 14 16 0 62-.892 50.01 0 70zm51.5-79.5c3.35 11.59 1.12 31.93 0 42.5-1.67 15.67-33.3 43.67-33 37 .89-19.99 0-8 0-70 0-3.89 1.94-12.29 14-16 8.67-2.67 17.83 2.44 19 6.5z"/><path d="M140.41 225c-.859-3.475 22.5-16 22-19.385-.407-2.748-20.643-9.945-34.25-19.615-11.45-8.137-14.897-25.477-13-27 2.13-1.714 69.021 31.643 70.25 34 1.171 2.25-4.513 37.966-7 40.5-2.024 2.061-37.556-6.696-38-8.5zM25.41 233.812c-.003-3.037 17.778-1.771 23.5-.312 19.27 4.914 67.491 39.992 65.76 42.75-2.523 4.016-26.682-7.361-32.26-9-18.822-5.529-57-31.476-57-33.438z"/></g></svg>