<svg xmlns="http://www.w3.org/2000/svg" viewBox="0 0 511.999 511.999"><path d="M349.091 259.793a29.06 29.06 0 0 1-21.513 9.554c-15.987 0-28.995-13.007-28.995-28.996 0-15.988 13.007-28.996 28.995-28.996 8.28 0 16.183 3.554 21.687 9.75 3.667 4.129 9.988 4.504 14.116.836 4.13-3.667 4.504-9.987.836-14.116a49.045 49.045 0 0 0-36.64-16.467c-27.016 0-48.994 21.979-48.994 48.995s21.978 48.995 48.994 48.995a49.1 49.1 0 0 0 36.345-16.137c3.705-4.096 3.389-10.419-.707-14.124-4.097-3.706-10.419-3.391-14.124.706z"/><path d="M366.572 230.352c-5.522 0-10 4.477-10 10v.111c0 5.523 4.478 10 10 10s10-4.477 10-10v-.111c0-5.523-4.478-10-10-10zM327.577 230.297c-5.522 0-10 4.477-10 10v.111c0 5.523 4.478 10 10 10s10-4.477 10-10v-.111c-.001-5.523-4.478-10-10-10zM261.693 347.219a29.057 29.057 0 0 1-21.512 9.554c-15.987 0-28.995-13.007-28.995-28.996 0-15.988 13.007-28.996 28.995-28.996a29.03 29.03 0 0 1 21.687 9.75c3.668 4.128 9.987 4.502 14.116.835 4.13-3.668 4.504-9.989.836-14.117a49.052 49.052 0 0 0-36.64-16.467c-27.016 0-48.994 21.979-48.994 48.995s21.978 48.995 48.994 48.995a49.1 49.1 0 0 0 36.344-16.135c3.705-4.096 3.388-10.42-.708-14.124-4.096-3.707-10.418-3.391-14.123.706z"/><path d="M279.176 317.776c-5.522 0-10 4.477-10 10v.111c0 5.523 4.478 10 10 10s10-4.477 10-10v-.111c0-5.523-4.478-10-10-10zM240.167 317.707c-5.522 0-10 4.477-10 10v.111c0 5.523 4.478 10 10 10s10-4.477 10-10v-.111c0-5.523-4.478-10-10-10zM435.815 121.958h-55.146c-5.522 0-10 4.477-10 10v10.779c0 29.979 24.39 54.367 54.367 54.367h10.778c5.522 0 10-4.477 10-10v-55.146c0-5.523-4.477-10-9.999-10zm-10 55.147h-.779c-18.951 0-34.368-15.417-34.368-34.368v-.779h35.147v35.147zM142.553 370.854h-10.78c-5.522 0-10 4.477-10 10V436c0 5.523 4.478 10 10 10h55.147c5.522 0 10-4.477 10-10v-10.779c0-29.978-24.39-54.367-54.367-54.367zM176.92 426h-35.148v-35.147h.78c18.951 0 34.368 15.417 34.368 34.368V426z"/><path d="M506.366 135.036L376.964 5.634l-.007-.006c-8.063-8.057-25.858-13.772-87.023 29.32-40.033 28.205-88.569 70.225-136.666 118.321s-90.117 96.633-118.32 136.665c-43.103 61.181-37.373 78.971-29.314 87.031l.038.037 129.364 129.364c2.977 2.977 7.276 5.634 14.601 5.634 12.511 0 33.84-7.761 72.43-34.947 40.033-28.205 88.569-70.226 136.666-118.321 48.097-48.096 90.117-96.631 118.32-136.665 43.102-61.181 37.371-78.972 29.313-87.031zM19.989 362.608c-.607-4.951 4.492-24.115 35.198-66.61 27.489-38.042 67.344-83.709 112.223-128.588 44.878-44.878 90.545-84.732 128.588-112.222 42.497-30.708 61.657-35.803 66.61-35.199.606 4.952-4.493 24.115-35.198 66.61-27.489 38.042-67.344 83.709-112.223 128.589-44.878 44.878-90.545 84.733-128.588 112.222-42.498 30.707-61.671 35.807-66.61 35.198zm436.822-146.607c-27.489 38.042-67.344 83.709-112.223 128.588C299.71 389.467 254.043 429.322 216 456.811c-44.199 31.938-63.151 36.173-67.138 35.1L36.397 379.444l-.002-.002c12.858-4.374 30.805-13.851 56.269-31.792 40.033-28.205 88.568-70.226 136.665-118.321 48.097-48.097 90.117-96.632 118.32-136.665 17.943-25.468 27.419-43.412 31.792-56.27l.003.003L491.91 148.864c1.073 3.98-3.162 22.939-35.099 67.137z"/></svg>