<svg xmlns="http://www.w3.org/2000/svg" width="512" height="512"><path d="M348.001 70.001c-53.07 22.824-91.96 19.842-152.999 0l146.999 302H502l-153.999-302z" data-original="#FEDC75" class="active-path" data-old_color="#6D3106" fill="#6d3105"/><path data-original="#FFB571" data-old_color="#D8B496" fill="#d8b495" d="M342 372h160v70H342z"/><path data-original="#6E6E6E" data-old_color="#010000" d="M268.001 442.001l-73-121-73 121z"/><path data-original="#FFB571" data-old_color="#D8B496" fill="#d8b495" d="M195.001 70.001l-144.999 302v70h71.999l73-121V70.002zM195.001 70.002v250.999l73 121h74v-70z"/><path data-original="#FEDC75" class="active-path" data-old_color="#6D3106" fill="#6d3105" d="M195.001 321.001l73 121v-104zM122.001 442.001l73-121-73 14z"/><path d="M510.908 367.458l-153.999-302a10 10 0 0 0-12.859-4.644c-47.239 20.316-82.706 20.236-145.961-.324-4.625-1.499-9.995.795-12.102 5.183L41.143 367.349 1.319 437.04c-2.74 4.795-1.074 10.903 3.722 13.644 4.741 2.711 10.943 1.005 13.643-3.722l21.317-37.305v32.344c0 5.522 4.478 10 10 10H502c5.522 0 10-4.478 10-10v-70c0-.218-.48-3.344-1.092-4.543zm-398.906-32.457v97h-52v-57.724l125-260.345v198.804l-64.884 12.443a10.001 10.001 0 0 0-8.116 9.822zm19.999 8.264l42.846-8.217-42.846 71.018v-62.801zm7.713 88.736l55.288-91.641 55.288 91.641H139.714zm118.287-25.934l-42.204-69.956 42.204 9.828v60.128zm74 25.934h-54v-94a10 10 0 0 0-7.731-9.739l-65.268-15.199V113.394l127 260.911v57.696h-.001zm-90.237-288.778a309.375 309.375 0 0 0 18.867 3.688c5.363.892 10.609-2.927 11.469-8.271.88-5.45-2.83-10.59-8.27-11.47-10.66-1.73-20.34-4.01-26.59-5.63a262.06 262.06 0 0 1-6.95-1.887L214.018 86.22c45.314 12.584 82.648 14.582 129.253-3.481l142.405 279.263H348.255L241.764 143.223zm110.237 288.778v-30.665l23.655 30.665h-23.655zm139.999 0h-91.084l-38.571-50H492v50z" data-original="#000000"/><circle cx="302.09" cy="139.2" r="10" data-original="#000000"/></svg>