<svg xmlns="http://www.w3.org/2000/svg" width="512" height="512" viewBox="0 0 418.023 418.022"><path d="M368.291 126.845a8.703 8.703 0 0 0-2.039-.935c-.15-.07-.295-.146-.451-.208l-148.812-59.73V7.982a7.98 7.98 0 1 0-15.962 0v58.523L50.95 144.946c-.135.07-.26.152-.389.229-.415.2-.82.423-1.204.691a8.689 8.689 0 0 0-3.703 7.117v200.18a8.691 8.691 0 0 0 5.725 8.17l154.665 56.166c.15.054.303.097.455.143l.193.062c.333.093.67.16 1.009.214.083.013.165.021.248.033.354.043.708.072 1.062.072a8.73 8.73 0 0 0 1.175-.089c.117-.017.231-.039.348-.06.287-.053.569-.117.853-.197.113-.032.227-.061.338-.097a8.706 8.706 0 0 0 1.078-.43l.037-.019a.014.014 0 0 1 .006-.002l154.621-74.923a8.688 8.688 0 0 0 4.902-7.82v-200.18a8.692 8.692 0 0 0-4.078-7.361zm-167.972 270.08l-137.28-49.852V165.39l137.28 49.853v181.682zm8.207-197.196L75.85 151.545 201.025 86.12v71.013l-35.591-35.591a7.95 7.95 0 0 0-5.643-2.338 7.955 7.955 0 0 0-5.644 2.338 7.977 7.977 0 0 0 0 11.287l49.216 49.216a7.979 7.979 0 0 0 11.287 0l49.225-49.216c3.119-3.113 3.119-8.169.002-11.287a7.983 7.983 0 0 0-11.289 0l-35.6 35.592V84.706l125.201 50.255-133.663 64.768zm146.458 129.213l-137.281 66.519V214.597l137.281-66.52v180.865z" fill="#FFF"/></svg>