<svg xmlns="http://www.w3.org/2000/svg" viewBox="0 0 387.481 387.481" width="512" height="512"><path data-original="#E6E6E6" class="active-path" data-old_color="#6BDBA3" fill="#6adba2" d="M314.734 261.389l6.21 39.85-53.75 10.75 16.13-59.13z"/><path data-original="#CCCCCC" data-old_color="#B8EFD7" fill="#b9f0d8" d="M320.944 301.239l-34.04 64.49-19.71-53.74z"/><path data-original="#F2F2F2" data-old_color="#A1F6C8" fill="#a2f7c9" d="M299.444 163.279l15.29 98.11-31.41-8.53-30.46-19.7 17.909-46.59z"/><path data-original="#E6E6E6" class="active-path" data-old_color="#6BDBA3" fill="#6adba2" d="M292.184 116.719l7.26 46.56-28.671 23.29-34.039-21.49-3.58-34.04z"/><path data-original="#F2F2F2" data-old_color="#A1F6C8" fill="#a2f7c9" d="M282.664 55.609l9.52 61.11-59.03 14.32 23.29-46.59zM267.194 311.989l19.71 53.74-98.54 21.5-62.7-84.2z"/><path data-original="#CCCCCC" data-old_color="#B8EFD7" fill="#b9f0d8" d="M283.324 252.859l-16.13 59.13-141.53-8.96 12.54-204.24 85.99-41.21 32.25 26.87-23.29 46.59 3.58 34.04 34.039 21.49-17.909 46.59z"/><path data-original="#E6E6E6" class="active-path" data-old_color="#6BDBA3" fill="#6adba2" d="M277.944 25.329l4.72 30.28-26.22 28.84-32.25-26.87z"/><path data-original="#CCCCCC" data-old_color="#B8EFD7" fill="#b9f0d8" d="M277.944 25.329l-53.75 32.25 19.71-57.33z"/><path data-original="#F2F2F2" data-old_color="#A1F6C8" fill="#a2f7c9" d="M243.904.249l-19.71 57.33-85.99 41.21 35.83-80.62z"/><path data-original="#B3B3B3" data-old_color="#0C664C" fill="#0b634a" d="M125.664 303.029l62.7 84.2-121.83-77.04zM174.034 18.169l-35.83 80.62-51.96-7.17z"/><path data-original="#999999" data-old_color="#0B8867" fill="#0b8766" d="M138.204 98.789l-12.54 204.24-59.13 7.16 19.71-218.57z"/></svg>