<svg xmlns="http://www.w3.org/2000/svg" width="512" height="512"><path d="M376.182 32.203H135.818a15.635 15.635 0 0 0-13.541 7.818L2.095 248.182a15.636 15.636 0 0 0 0 15.636L122.277 471.98a15.635 15.635 0 0 0 13.541 7.818h240.364c5.586 0 10.748-2.98 13.541-7.818l120.182-208.162a15.636 15.636 0 0 0 0-15.636L389.723 40.021a15.635 15.635 0 0 0-13.541-7.818z" data-original="#FFD45D" data-old_color="#BBF959" fill="#bcfb59"/><path d="M512 256H409.521L332.76 388.953 384 477.702a15.62 15.62 0 0 0 5.723-5.723l120.182-208.162A15.617 15.617 0 0 0 512 256z" data-original="#FF6500" data-old_color="#34B50B" fill="#34b60b"/><path d="M332.76 388.953H179.24L128 477.702a15.624 15.624 0 0 0 7.818 2.095h240.364c2.793 0 5.48-.745 7.818-2.095l-51.24-88.749z" data-original="#FF9416" data-old_color="#0E9535" fill="#0e9335"/><path d="M179.24 388.953L102.479 256H0c0 2.699.698 5.399 2.095 7.818L122.277 471.98a15.628 15.628 0 0 0 5.723 5.723l51.24-88.75z" data-original="#FFC13F" data-old_color="#0CB245" fill="#0cb546"/><path d="M179.24 123.047L128 34.297a15.62 15.62 0 0 0-5.723 5.723L2.095 248.183A15.617 15.617 0 0 0 0 256h102.479l76.761-132.953z" data-original="#FFD45D" data-old_color="#BBF959" fill="#bcfb59"/><path d="M179.24 123.047h153.52L384 34.297a15.624 15.624 0 0 0-7.818-2.095H135.818c-2.793 0-5.48.745-7.818 2.095l51.24 88.75z" data-original="#FFC13F" data-old_color="#0CB245" fill="#0cb546"/><path d="M332.76 123.047L409.521 256H512c0-2.699-.698-5.399-2.095-7.817L389.723 40.02A15.62 15.62 0 0 0 384 34.297l-51.24 88.75z" data-original="#FF9416" data-old_color="#0E9535" fill="#0e9335"/><path data-original="#FF7B05" class="active-path" data-old_color="#5BEE5B" fill="#5cef5c" d="M332.761 123.047H179.239L102.479 256l76.76 132.953h153.522L409.521 256z"/><path d="M182.006 113.738l9.786-7.309c2.227-1.663 5.173.821 3.91 3.297l-5.55 10.88a2.625 2.625 0 0 0 .824 3.337l9.975 7.048c2.27 1.604.818 5.174-1.927 4.737l-12.063-1.917a2.626 2.626 0 0 0-2.92 1.815l-3.621 11.665c-.824 2.654-4.668 2.376-5.101-.369l-1.905-12.064a2.626 2.626 0 0 0-2.628-2.216l-12.213.161c-2.779.037-3.703-3.705-1.226-4.965l10.885-5.54a2.625 2.625 0 0 0 1.295-3.184l-3.927-11.565c-.894-2.632 2.379-4.666 4.344-2.7l8.632 8.641a2.628 2.628 0 0 0 3.43.248z" data-original="#FFFFFF" fill="#fff"/></svg>