<svg xmlns="http://www.w3.org/2000/svg" width="512" height="512"><path data-original="#ECF8FD" fill="#ecf8fd" d="M423.724 75.034L512 180.966H374.634z"/><path data-original="#CBEDF9" fill="#cbedf9" d="M256 75.034l118.634 105.932 49.09-105.932z"/><path data-original="#AAE2F5" fill="#aae2f5" d="M512 180.966l-256 256 118.634-256z"/><path data-original="#7DD2F0" fill="#7dd2f0" d="M88.276 75.034L0 180.966h137.366z"/><path data-original="#64B9DC" fill="#64b9dc" d="M256 75.034L137.366 180.966 88.276 75.034z"/><path data-original="#AAE2F5" fill="#aae2f5" d="M256 75.034L137.366 180.966h237.268z"/><path data-original="#7DD2F0" fill="#7dd2f0" d="M137.366 180.966l118.634 256 118.634-256z"/><path data-original="#64B9DC" fill="#64b9dc" d="M0 180.966l256 256-118.634-256z"/><path d="M434.955 128.531c-17.301-3.945-30.92-17.564-34.863-34.865-.297-1.303-2.022-1.303-2.319 0-3.944 17.301-17.564 30.92-34.863 34.865-1.303.297-1.303 2.022 0 2.319 17.301 3.944 30.92 17.562 34.863 34.863.297 1.303 2.022 1.303 2.319 0 3.944-17.301 17.564-30.92 34.863-34.863 1.302-.298 1.302-2.022 0-2.319zM394.522 192.124c-13.58-3.518-24.273-14.209-27.789-27.789-.353-1.364-2.119-1.364-2.472 0-3.518 13.58-14.209 24.273-27.789 27.789-1.364.353-1.364 2.119 0 2.472 13.58 3.517 24.273 14.209 27.789 27.789.353 1.364 2.119 1.364 2.472 0 3.517-13.581 14.209-24.273 27.789-27.789 1.365-.354 1.365-2.119 0-2.472z" data-original="#FFFFFF" class="active-path" fill="#fff"/></svg>