<svg xmlns="http://www.w3.org/2000/svg" viewBox="0 0 512 512"><path d="M492.114 290.321c16.382-16.761 16.226-43.583-.348-60.153s-43.397-16.718-60.153-.331l-30.822 30.857V67.328c-.002-9.496-3.96-18.563-10.922-25.021s-16.301-9.723-25.771-9.01a32.33 32.33 0 0 0-14.609 4.804v-3.883C349.487 15.32 334.167 0 315.269 0S281.05 15.32 281.05 34.219v3.712a33.811 33.811 0 0 0-17.067-4.736c-18.865 0-34.172 15.268-34.219 34.133v62.737l-34.338-94.379a33.849 33.849 0 0 0-45.619-19.277 32.001 32.001 0 0 0-11.827 9.293l-1.254-3.413A33.969 33.969 0 0 0 119.25 3.2a33.801 33.801 0 0 0-46.08 42.189l1.22 3.251a33.372 33.372 0 0 0-17.306 1.408C39.529 56.439 30.47 75.844 36.843 93.406l10.24 27.981a33.604 33.604 0 0 0-19.627 2.33c-16.338 7.8-23.933 26.85-17.442 43.75L65.993 321.28a143.374 143.374 0 0 0 20.343 37.453l50.133 66.278a17.067 17.067 0 0 0-7.347 20.48l20.087 55.219a17.066 17.066 0 0 0 21.879 10.24l25.779-9.387a17.067 17.067 0 0 0 15.761 10.436h179.627c14.139 0 25.6-11.461 25.6-25.6v-42.837a25.465 25.465 0 0 0-17.493-24.09V379.58l91.752-89.259zM298.134 34.219c0-9.473 7.679-17.152 17.152-17.152s17.152 7.679 17.152 17.152v120.32a41.905 41.905 0 0 0-34.304 1.451V34.219zm-51.285 33.109a17.11 17.11 0 0 1 29.21-12.058 16.921 16.921 0 0 1 5.009 12.058V171.52a39.52 39.52 0 0 0-2.56 4.267l-17.92 38.929-13.739-37.751V67.328zM26.048 161.63c-3.337-8.494.28-18.136 8.38-22.34a16.793 16.793 0 0 1 22.605 9.532l31.701 87.117a8.588 8.588 0 0 0 1.621 2.645c.197.207.405.404.623.589a8.46 8.46 0 0 0 2.577 1.673 7.974 7.974 0 0 0 2.278.572c.222 0 .427.094.657.102h.265a8.534 8.534 0 0 0 8.013-11.461l-31.693-87.057-20.181-55.433c-3.148-8.69 1.328-18.289 10.01-21.461 8.689-3.14 18.283 1.329 21.47 10.001l43.23 118.775a8.4 8.4 0 0 0 1.613 2.645c.205.23.435.41.657.623a8.584 8.584 0 0 0 1.707 1.237c.275.161.56.304.853.427a8.291 8.291 0 0 0 2.125.538c.273 0 .521.111.794.12h.239a8.285 8.285 0 0 0 2.91-.521 8.536 8.536 0 0 0 5.12-10.931l-54.4-149.47c-3.149-8.69 1.328-18.289 10.01-21.461a16.546 16.546 0 0 1 12.8.572 16.856 16.856 0 0 1 8.67 9.429l54.383 149.504a8.534 8.534 0 0 0 16.538-2.483 8.369 8.369 0 0 0-.512-3.354l-9.387-25.737-33.314-91.699c-3.339-8.487.271-18.125 8.363-22.332a16.795 16.795 0 0 1 22.621 9.541l65.152 178.995a16.897 16.897 0 0 0 15.189 11.145 16.545 16.545 0 0 0 16.111-9.805l18.142-38.895a25.069 25.069 0 0 1 40.96-6.827 25.121 25.121 0 0 1 4.719 28.083l-55.262 118.528c-.105.326-.184.66-.239.998a8.275 8.275 0 0 0-.538 2.219 8.545 8.545 0 0 0 .512 3.345l13.38 36.762-86.844 31.573c-1.041-2.935-2.108-5.854-3.14-8.806-14.507-41.481-30.916-88.482-83.413-102.093a101.372 101.372 0 0 0-52.318.563L26.048 161.63zM99.99 348.442a126.43 126.43 0 0 1-17.92-32.998l-4.352-11.947a84.014 84.014 0 0 1 42.163-.171c43.674 11.332 57.233 50.125 71.586 91.204 1.058 3.029 2.142 5.973 3.209 9.02l-41.54 15.121-53.146-70.229zm65.297 146.491l-20.07-55.245 7.569-2.756 158.413-57.66a8.442 8.442 0 0 1 2.91-.512 8.532 8.532 0 0 1 8.03 5.615l14.225 39.185a8.536 8.536 0 0 1-5.12 10.94l-165.957 60.433zm235.503-51.362l.017 42.829a8.533 8.533 0 0 1-8.533 8.533H215.139l70.571-25.685h80.947v8.533c0 4.713 3.82 8.533 8.533 8.533s8.533-3.82 8.533-8.533v-8.533c-.033-9.445-7.707-17.081-17.152-17.067H332.6l4.514-1.638a25.409 25.409 0 0 0 15.223-15.505h39.919a8.533 8.533 0 0 1 8.534 8.533zm-14.933-73.711v.051a8.632 8.632 0 0 0-1.937 3.012 8.426 8.426 0 0 0-.597 2.995V417.962h-30.848c0-.077 0-.162-.06-.239l-14.268-39.194a25.6 25.6 0 0 0-24.038-16.717l-12.74-34.987 53.76-115.319a41.59 41.59 0 0 0-5.641-44.373V68.779c-.237-9.318 6.638-17.293 15.889-18.432a17.07 17.07 0 0 1 18.347 16.982v193.365a17.068 17.068 0 0 0 29.167 12.083l30.78-30.857c10.1-9.538 25.95-9.327 35.794.475 9.844 9.802 10.121 25.651.626 35.792l-94.234 91.673z"/><path d="M315.03 413.619c-3.224-8.782-12.935-13.311-21.734-10.138l-15.215 5.538c-.137.051-.273.094-.41.154L174.52 446.72a8.533 8.533 0 1 0 5.837 16.034l103.646-37.794c.243-.075.483-.164.717-.265l14.293-5.214 2.884 7.919a8.533 8.533 0 1 0 16.034-5.853l-2.901-7.928z"/></svg>