<svg xmlns="http://www.w3.org/2000/svg" viewBox="0 0 512 512"><path d="M426.667 153.6h-.286C421.256 45.099 319.619 22.333 290.133 18.031v-.964C290.121 7.646 282.487.012 273.067 0h-34.133c-9.421.012-17.054 7.646-17.067 17.067v.964C192.381 22.333 90.743 45.099 85.619 153.6h-.286c-9.421.012-17.054 7.646-17.067 17.067V204.8c.012 9.421 7.646 17.054 17.067 17.067v174.208a17.105 17.105 0 0 0 8.7 14.875l131.155 73.771 24.779 24.779a8.529 8.529 0 0 0 12.066 0l24.779-24.779 131.171-73.779a17.1 17.1 0 0 0 8.683-14.867V221.867c9.421-.012 17.054-7.646 17.067-17.067v-34.133c-.012-9.421-7.646-17.055-17.066-17.067zM290.133 35.135C318.719 39.277 404.391 59.57 409.321 153.6H290.133V35.135zm-68.266.022V153.6H102.68c4.942-93.785 90.593-114.236 119.187-118.443zm0 428.122L102.4 396.075V221.867H128V256c.012 9.421 7.646 17.054 17.067 17.067h76.8v190.212zm0-207.279h-76.8v-34.133h76.8V256zm51.2 218.333L256 491.4l-17.067-17.067V221.867h34.133v252.466zm136.533-78.25l-119.467 67.198V273.067h76.8c9.421-.012 17.054-7.646 17.067-17.067v-34.133h25.6v174.216zM290.133 256v-34.133h76.8V256h-76.8zm136.534-51.2H85.333v-34.133H230.4a8.525 8.525 0 0 0 8.533-8.533V17.067h34.133v145.067a8.525 8.525 0 0 0 8.533 8.533h145.067V204.8z"/><path d="M131.242 290.817a8.512 8.512 0 0 0-9.3 1.792 8.94 8.94 0 0 0-2.475 6.058 8.445 8.445 0 0 0 2.475 6.059 8.788 8.788 0 0 0 2.817 1.792 7.214 7.214 0 0 0 3.242.683 8.451 8.451 0 0 0 8.533-8.533 8.979 8.979 0 0 0-2.475-6.059 8.867 8.867 0 0 0-2.817-1.792zM158.891 306.517a7.214 7.214 0 0 0 3.242.683 8.451 8.451 0 0 0 8.533-8.533 8.979 8.979 0 0 0-2.475-6.059 8.86 8.86 0 0 0-2.817-1.791 8.512 8.512 0 0 0-9.3 1.792 8.94 8.94 0 0 0-2.475 6.058 8.445 8.445 0 0 0 2.475 6.059 8.786 8.786 0 0 0 2.817 1.791zM193.025 306.517a7.214 7.214 0 0 0 3.242.683 8.451 8.451 0 0 0 8.533-8.533 8.979 8.979 0 0 0-2.475-6.059 8.88 8.88 0 0 0-2.817-1.792 8.512 8.512 0 0 0-9.3 1.792 8.938 8.938 0 0 0-2.475 6.059 8.445 8.445 0 0 0 2.475 6.059 8.803 8.803 0 0 0 2.817 1.791zM131.242 324.942a8.512 8.512 0 0 0-9.3 1.792 8.943 8.943 0 0 0-2.475 6.059 8.445 8.445 0 0 0 2.475 6.059 8.788 8.788 0 0 0 2.817 1.792 7.214 7.214 0 0 0 3.242.682 8.451 8.451 0 0 0 8.533-8.533 8.979 8.979 0 0 0-2.475-6.059 8.867 8.867 0 0 0-2.817-1.792zM165.375 324.942a8.512 8.512 0 0 0-9.3 1.792 8.943 8.943 0 0 0-2.475 6.059 8.445 8.445 0 0 0 2.475 6.059 8.788 8.788 0 0 0 2.817 1.792 7.214 7.214 0 0 0 3.242.682 8.451 8.451 0 0 0 8.533-8.533 8.979 8.979 0 0 0-2.475-6.059 8.845 8.845 0 0 0-2.817-1.792zM199.508 324.942a8.512 8.512 0 0 0-9.3 1.792 8.943 8.943 0 0 0-2.475 6.059 8.445 8.445 0 0 0 2.475 6.059 8.788 8.788 0 0 0 2.817 1.792 7.214 7.214 0 0 0 3.242.682 8.451 8.451 0 0 0 8.533-8.533 8.979 8.979 0 0 0-2.475-6.059 8.845 8.845 0 0 0-2.817-1.792zM131.242 359.065a8.512 8.512 0 0 0-9.3 1.792 8.943 8.943 0 0 0-2.475 6.059 8.445 8.445 0 0 0 2.475 6.059 8.788 8.788 0 0 0 2.817 1.792 7.214 7.214 0 0 0 3.242.682 8.451 8.451 0 0 0 8.533-8.533 8.979 8.979 0 0 0-2.475-6.059 8.867 8.867 0 0 0-2.817-1.792zM165.375 359.065a8.512 8.512 0 0 0-9.3 1.792 8.943 8.943 0 0 0-2.475 6.059 8.445 8.445 0 0 0 2.475 6.059 8.788 8.788 0 0 0 2.817 1.792 7.214 7.214 0 0 0 3.242.682 8.451 8.451 0 0 0 8.533-8.533 8.979 8.979 0 0 0-2.475-6.059 8.845 8.845 0 0 0-2.817-1.792zM199.508 359.065a8.512 8.512 0 0 0-9.3 1.792 8.943 8.943 0 0 0-2.475 6.059 8.445 8.445 0 0 0 2.475 6.059 8.788 8.788 0 0 0 2.817 1.792 7.214 7.214 0 0 0 3.242.682 8.451 8.451 0 0 0 8.533-8.533 8.979 8.979 0 0 0-2.475-6.059 8.845 8.845 0 0 0-2.817-1.792zM165.375 393.19a8.512 8.512 0 0 0-9.3 1.792 8.943 8.943 0 0 0-2.475 6.059 8.445 8.445 0 0 0 2.475 6.059 8.788 8.788 0 0 0 2.817 1.792 7.2 7.2 0 0 0 3.242.682 8.451 8.451 0 0 0 8.533-8.533 8.979 8.979 0 0 0-2.475-6.059 8.845 8.845 0 0 0-2.817-1.792zM199.508 393.19a8.512 8.512 0 0 0-9.3 1.792 8.943 8.943 0 0 0-2.475 6.059 8.445 8.445 0 0 0 2.475 6.059 8.788 8.788 0 0 0 2.817 1.792 7.2 7.2 0 0 0 3.242.682 8.451 8.451 0 0 0 8.533-8.533 8.979 8.979 0 0 0-2.475-6.059 8.845 8.845 0 0 0-2.817-1.792zM377.942 292.609a8.979 8.979 0 0 0-2.475 6.058A8.451 8.451 0 0 0 384 307.2a7.214 7.214 0 0 0 3.242-.683 8.788 8.788 0 0 0 2.817-1.792 8.441 8.441 0 0 0 2.475-6.058 8.94 8.94 0 0 0-2.475-6.059 8.512 8.512 0 0 0-9.3-1.791 8.851 8.851 0 0 0-2.817 1.792zM346.625 290.817a8.88 8.88 0 0 0-2.817 1.792 8.979 8.979 0 0 0-2.475 6.058 8.451 8.451 0 0 0 8.533 8.533 7.214 7.214 0 0 0 3.242-.683 8.788 8.788 0 0 0 2.817-1.792 8.441 8.441 0 0 0 2.475-6.058 8.945 8.945 0 0 0-2.475-6.059 8.511 8.511 0 0 0-9.3-1.791zM312.492 290.817a8.88 8.88 0 0 0-2.817 1.792 8.979 8.979 0 0 0-2.475 6.058 8.451 8.451 0 0 0 8.533 8.533 7.214 7.214 0 0 0 3.242-.683 8.788 8.788 0 0 0 2.817-1.792 8.441 8.441 0 0 0 2.475-6.058 8.945 8.945 0 0 0-2.475-6.059 8.512 8.512 0 0 0-9.3-1.791zM380.758 324.942a8.88 8.88 0 0 0-2.817 1.792 8.981 8.981 0 0 0-2.475 6.059 8.451 8.451 0 0 0 8.533 8.533 7.214 7.214 0 0 0 3.242-.683 8.788 8.788 0 0 0 2.817-1.792 8.445 8.445 0 0 0 2.475-6.059 8.945 8.945 0 0 0-2.475-6.059 8.51 8.51 0 0 0-9.3-1.791zM346.625 324.942a8.88 8.88 0 0 0-2.817 1.792 8.981 8.981 0 0 0-2.475 6.059 8.451 8.451 0 0 0 8.533 8.533 7.214 7.214 0 0 0 3.242-.683 8.788 8.788 0 0 0 2.817-1.792 8.445 8.445 0 0 0 2.475-6.059 8.945 8.945 0 0 0-2.475-6.059 8.511 8.511 0 0 0-9.3-1.791zM312.492 324.942a8.88 8.88 0 0 0-2.817 1.792 8.981 8.981 0 0 0-2.475 6.059 8.451 8.451 0 0 0 8.533 8.533 7.214 7.214 0 0 0 3.242-.683 8.788 8.788 0 0 0 2.817-1.792 8.445 8.445 0 0 0 2.475-6.059 8.945 8.945 0 0 0-2.475-6.059 8.512 8.512 0 0 0-9.3-1.791zM380.758 359.065a8.88 8.88 0 0 0-2.817 1.792 8.981 8.981 0 0 0-2.475 6.059 8.451 8.451 0 0 0 8.533 8.533 7.214 7.214 0 0 0 3.242-.683 8.788 8.788 0 0 0 2.817-1.792 8.445 8.445 0 0 0 2.475-6.059 8.945 8.945 0 0 0-2.475-6.059 8.51 8.51 0 0 0-9.3-1.791zM346.625 359.065a8.88 8.88 0 0 0-2.817 1.792 8.981 8.981 0 0 0-2.475 6.059 8.451 8.451 0 0 0 8.533 8.533 7.214 7.214 0 0 0 3.242-.683 8.788 8.788 0 0 0 2.817-1.792 8.445 8.445 0 0 0 2.475-6.059 8.945 8.945 0 0 0-2.475-6.059 8.511 8.511 0 0 0-9.3-1.791zM312.492 359.065a8.88 8.88 0 0 0-2.817 1.792 8.981 8.981 0 0 0-2.475 6.059 8.451 8.451 0 0 0 8.533 8.533 7.214 7.214 0 0 0 3.242-.683 8.788 8.788 0 0 0 2.817-1.792 8.445 8.445 0 0 0 2.475-6.059 8.945 8.945 0 0 0-2.475-6.059 8.512 8.512 0 0 0-9.3-1.791zM346.625 393.19a8.88 8.88 0 0 0-2.817 1.792 8.981 8.981 0 0 0-2.475 6.059 8.451 8.451 0 0 0 8.533 8.533 7.214 7.214 0 0 0 3.242-.683 8.788 8.788 0 0 0 2.817-1.792 8.445 8.445 0 0 0 2.475-6.059 8.945 8.945 0 0 0-2.475-6.059 8.51 8.51 0 0 0-9.3-1.791zM312.492 393.19a8.88 8.88 0 0 0-2.817 1.792 8.981 8.981 0 0 0-2.475 6.059 8.451 8.451 0 0 0 8.533 8.533 7.214 7.214 0 0 0 3.242-.683 8.788 8.788 0 0 0 2.817-1.792 8.445 8.445 0 0 0 2.475-6.059 8.945 8.945 0 0 0-2.475-6.059 8.51 8.51 0 0 0-9.3-1.791z"/></svg>