<svg height="512pt" viewBox="0 -12 512 512" width="512pt" xmlns="http://www.w3.org/2000/svg"><path d="M496.938 438.984c9.421 9.442 9.437 24.633 0 34-9.364 9.36-24.563 9.36-33.922 0a23.824 23.824 0 0 1-6.97-18.32 24.277 24.277 0 0 1 6.97-15.68c4.312-4.32 9.921-6.726 15.671-6.96 6.56-.399 13.2 1.921 18.25 6.96zm0 0" fill="#fff"/><path d="M456.375 409.785l-22.559-22.64-30.64-30.633-22.64 22.64 19.28 19.274 22.641 22.636 33.59 33.602a24.277 24.277 0 0 1 6.969-15.68c4.312-4.32 9.921-6.726 15.671-6.96zm0 0" fill="#94c1ff"/><path d="M398.527 315.945c-4.312-8.882-2.718-19.922 4.641-27.367 9.36-9.363 24.559-9.355 33.922.086 9.36 9.36 9.36 24.559 0 33.914l-33.922 33.926-22.64 22.64-33.919 33.91c-9.441 9.364-24.64 9.364-34 0-9.363-9.359-9.363-24.558 0-33.917 7.36-7.36 18.407-8.961 27.36-4.633v-.086l12.246-12.242 34-33.91 12.234-12.328zm0 0" fill="#fff"/><path d="M289.969 231.945l96.176 96.239.07.082-34 33.918-96.246-96.239 17.047-17.043zm0 0M222.047 232.023L43.328 53.223l-11.36-45.2 45.278 11.282L255.97 198.023l-16.953 16.97zm0 0" fill="#d7e9ff"/><path d="M55.887 454.664a23.792 23.792 0 0 1-6.95 18.32c-9.363 9.36-24.562 9.36-33.921 0-9.36-9.367-9.36-24.558 0-34a23.754 23.754 0 0 1 18.312-6.96c5.688.32 11.281 2.64 15.61 6.96 4.308 4.399 6.636 10 6.949 15.68zm0 0" fill="#fff"/><path d="M108.855 356.512l-30.64 30.64-22.64 22.633-22.247 22.238c5.688.32 11.281 2.641 15.61 6.961 4.308 4.399 6.636 10 6.949 15.68h.082l33.605-33.512 22.64-22.64 19.282-19.367zm0 0" fill="#94c1ff"/><path d="M108.855 356.512l-33.918-33.918c-9.363-9.371-9.363-24.563 0-33.922 9.36-9.442 24.56-9.442 33.903-.086 7.375 7.445 8.969 18.484 4.656 27.367l12.313 12.238 33.918 33.993 12.312 12.242c8.969-4.242 19.922-2.64 27.281 4.719 9.36 9.359 9.36 24.558 0 33.918-9.36 9.363-24.543 9.363-33.922 0l-33.902-33.918zm0 0" fill="#fff"/><path d="M222.047 232.023l16.969-17.03 16.953-16.97L434.785 19.305 479.97 8.023l-11.281 45.2-178.72 178.722-16.952 16.957-17.047 17.043-96.235 96.239-33.918-34zm0 0" fill="#d7e9ff"/><g fill="#116fff"><path d="M182.633 404.129c-4.426 0-8.04-3.578-8.04-8 0-4.426 3.536-8 7.95-8h.09c4.414 0 8 3.574 8 8a8 8 0 0 1-8 8zm0 0M468.695 61.266c-.64 0-1.297-.075-1.941-.243a7.998 7.998 0 0 1-5.824-9.703l11.308-45.25c1.075-4.277 5.403-6.918 9.7-5.82a8.004 8.004 0 0 1 5.824 9.703L476.449 55.2a8.003 8.003 0 0 1-7.754 6.067zm0 0"/><path d="M434.742 27.328a8.001 8.001 0 0 1-7.75-6.055c-1.082-4.289 1.528-8.632 5.824-9.707L478.062.258c4.274-1.09 8.625 1.535 9.7 5.824 1.078 4.285-1.532 8.629-5.825 9.703l-45.25 11.313c-.648.16-1.304.23-1.945.23zm0 0M159.77 370.184a7.977 7.977 0 0 1-5.657-2.344 7.99 7.99 0 0 1 0-11.313L463.031 47.61a7.99 7.99 0 0 1 11.313 0 7.99 7.99 0 0 1 0 11.313L165.426 367.848a7.98 7.98 0 0 1-5.656 2.336zm0 0"/><path d="M125.832 336.25a7.972 7.972 0 0 1-5.656-2.348 7.985 7.985 0 0 1 0-11.308L429.098 13.672a7.985 7.985 0 0 1 11.308 0 7.99 7.99 0 0 1 0 11.312L131.488 333.902a7.965 7.965 0 0 1-5.656 2.348zm0 0"/><path d="M172.047 382.473a7.99 7.99 0 0 1-5.656-2.344l-58.528-58.527a7.99 7.99 0 0 1 0-11.313 7.99 7.99 0 0 1 11.313 0l58.527 58.527a7.99 7.99 0 0 1 0 11.313 7.977 7.977 0 0 1-5.656 2.344zm0 0M165.406 421.098a7.975 7.975 0 0 1-5.652-2.344L69.246 328.25a7.997 7.997 0 0 1 0-11.313 7.99 7.99 0 0 1 11.313 0l90.504 90.504a7.99 7.99 0 0 1 0 11.313 7.977 7.977 0 0 1-5.657 2.344zm0 0"/><path d="M182.398 428.129c-8.55 0-16.59-3.328-22.636-9.367a7.994 7.994 0 0 1-.02-11.313 7.99 7.99 0 0 1 11.313-.015c6.058 6.054 16.601 6.054 22.64.015 6.243-6.242 6.235-16.394 0-22.64-6.238-6.223-16.39-6.215-22.617.007a7.985 7.985 0 0 1-11.308 0 7.99 7.99 0 0 1 0-11.312c12.468-12.473 32.773-12.465 45.238-.008 12.48 12.496 12.48 32.8.008 45.258-6.032 6.047-14.07 9.375-22.618 9.375zm0 0M92.121 313.625c-4.426 0-8.043-3.578-8.043-8 0-4.426 3.54-8 7.953-8h.09c4.414 0 8 3.574 8 8 0 4.422-3.594 8-8 8zm0 0"/><path d="M108.855 330.594a7.984 7.984 0 0 1-5.648-2.336 7.99 7.99 0 0 1-.016-11.313c6.235-6.25 6.235-16.41 0-22.656-6.238-6.226-16.398-6.207-22.625.016-6.238 6.238-6.23 16.39 0 22.64a7.99 7.99 0 0 1-.015 11.313 7.994 7.994 0 0 1-11.313-.02c-12.46-12.476-12.46-32.781.008-45.238 12.457-12.488 32.762-12.48 45.258-.023 12.473 12.496 12.473 32.793.016 45.261a7.933 7.933 0 0 1-5.665 2.356zm0 0M33.328 440.063a7.967 7.967 0 0 1-5.656-2.344 7.985 7.985 0 0 1 0-11.309l75.512-75.515a7.997 7.997 0 0 1 11.312 0 7.99 7.99 0 0 1 0 11.312l-75.512 75.512a7.967 7.967 0 0 1-5.656 2.344zm0 0M55.938 462.703a7.96 7.96 0 0 1-5.657-2.344 7.99 7.99 0 0 1 0-11.312l75.528-75.527a7.99 7.99 0 0 1 11.312 0 7.997 7.997 0 0 1 0 11.312l-75.527 75.527a7.974 7.974 0 0 1-5.657 2.344zm0 0"/><path d="M31.992 488.016c-8.543 0-16.586-3.329-22.625-9.383C3.328 472.609 0 464.566 0 456.023c0-8.55 3.328-16.582 9.375-22.632 12.082-12.079 33.168-12.07 45.242-.008 12.48 12.496 12.48 32.8.008 45.258-6.05 6.046-14.082 9.375-22.633 9.375zm0-47.985c-4.273 0-8.289 1.656-11.305 4.672A15.915 15.915 0 0 0 16 456.023c0 4.274 1.664 8.282 4.68 11.297 6.062 6.063 16.586 6.055 22.633.008 6.23-6.23 6.222-16.383-.008-22.633-3.016-3.007-7.032-4.664-11.313-4.664zm0 0M171.063 324.938a7.99 7.99 0 0 1-5.657-2.344 7.997 7.997 0 0 1 0-11.313l235.426-235.41a7.997 7.997 0 0 1 11.313 0 7.99 7.99 0 0 1 0 11.313l-235.426 235.41a7.945 7.945 0 0 1-5.656 2.344zm0 0M112.16 406.473a7.97 7.97 0 0 1-2.527-.418l-33.938-11.309a7.997 7.997 0 0 1-5.054-10.121 7.993 7.993 0 0 1 10.12-5.059l33.934 11.313A8.003 8.003 0 0 1 119.754 401a8.027 8.027 0 0 1-7.594 5.473zm0 0M89.527 429.098A7.97 7.97 0 0 1 87 428.68l-33.922-11.313a7.998 7.998 0 0 1-5.055-10.117 7.982 7.982 0 0 1 10.122-5.059l33.917 11.313a8.004 8.004 0 0 1 5.06 10.121 8.013 8.013 0 0 1-7.595 5.473zm0 0M329.848 404.129c-4.422 0-8.04-3.578-8.04-8 0-4.426 3.536-8 7.954-8h.086c4.418 0 8 3.574 8 8 0 4.422-3.582 8-8 8zm0 0M43.305 61.266a8.005 8.005 0 0 1-7.754-6.059L24.238 9.961A8.004 8.004 0 0 1 30.063.258c4.257-1.09 8.625 1.535 9.699 5.812L51.07 51.32a7.985 7.985 0 0 1-5.824 9.703c-.644.168-1.3.243-1.941.243zm0 0"/><path d="M77.258 27.328c-.64 0-1.297-.07-1.945-.238l-45.25-11.313a8.01 8.01 0 0 1-5.825-9.707c1.067-4.277 5.418-6.91 9.7-5.812l45.246 11.308a8.007 8.007 0 0 1 5.824 9.707c-.903 3.63-4.168 6.055-7.75 6.055zm0 0M352.23 370.184a7.99 7.99 0 0 1-5.656-2.344l-96.23-96.23c-3.13-3.13-3.13-8.184 0-11.313s8.183-3.129 11.312 0l96.23 96.23a7.99 7.99 0 0 1 0 11.313 7.928 7.928 0 0 1-5.656 2.344zm0 0M386.168 336.25a7.972 7.972 0 0 1-5.656-2.348l-96.223-96.238c-3.129-3.129-3.129-8.191 0-11.312a7.99 7.99 0 0 1 11.313 0l96.222 96.242a7.985 7.985 0 0 1 0 11.308 7.939 7.939 0 0 1-5.656 2.348zm0 0"/><path d="M339.953 382.473a7.977 7.977 0 0 1-5.656-2.344 7.99 7.99 0 0 1 0-11.313l58.527-58.527a7.99 7.99 0 0 1 11.313 0 7.99 7.99 0 0 1 0 11.313l-58.528 58.527a7.99 7.99 0 0 1-5.656 2.344zm0 0M346.594 421.098a7.977 7.977 0 0 1-5.656-2.344 7.99 7.99 0 0 1 0-11.313l90.503-90.504a7.99 7.99 0 0 1 11.313 0 7.997 7.997 0 0 1 0 11.313l-90.508 90.504a7.975 7.975 0 0 1-5.652 2.344zm0 0"/><path d="M329.602 428.129c-8.547 0-16.586-3.328-22.625-9.383-12.465-12.457-12.465-32.762 0-45.234 12.503-12.489 32.793-12.48 45.253-.008a7.99 7.99 0 0 1 0 11.312 7.985 7.985 0 0 1-11.308 0c-6.242-6.238-16.395-6.214-22.633.008-6.219 6.23-6.226 16.383.008 22.617 6.047 6.047 16.582 6.047 22.648-.007a7.99 7.99 0 0 1 11.313.015 7.994 7.994 0 0 1-.02 11.313c-6.047 6.039-14.078 9.367-22.636 9.367zm0 0M420.367 313.625c-4.422 0-8.039-3.578-8.039-8 0-4.426 3.535-8 7.953-8h.086c4.418 0 8 3.574 8 8 0 4.422-3.582 8-8 8zm0 0"/><path d="M437.098 330.594a7.97 7.97 0 0 1-5.649-2.336 7.99 7.99 0 0 1-.015-11.313c6.23-6.25 6.238-16.402.007-22.632-6.234-6.25-16.402-6.243-22.648-.008-6.219 6.23-6.219 16.39.016 22.64a7.99 7.99 0 0 1-.016 11.313c-3.113 3.11-8.184 3.125-11.313-.02-12.457-12.476-12.457-32.773 0-45.246 12.528-12.472 32.832-12.457 45.282.016 12.46 12.457 12.46 32.762 0 45.23a7.952 7.952 0 0 1-5.664 2.356zm0 0M478.672 440.063a7.967 7.967 0 0 1-5.656-2.344l-75.512-75.512a7.99 7.99 0 0 1 0-11.312 7.997 7.997 0 0 1 11.312 0l75.512 75.515a7.985 7.985 0 0 1 0 11.309 7.967 7.967 0 0 1-5.656 2.344zm0 0M456.063 462.703a7.974 7.974 0 0 1-5.657-2.344l-75.527-75.527a7.997 7.997 0 0 1 0-11.312 7.99 7.99 0 0 1 11.312 0l75.528 75.527a7.99 7.99 0 0 1 0 11.312 7.96 7.96 0 0 1-5.656 2.344zm0 0"/><path d="M480.008 488.016c-8.551 0-16.582-3.329-22.633-9.375-12.473-12.465-12.473-32.77-.008-45.243 12.113-12.093 33.176-12.086 45.258-.007 6.047 6.05 9.375 14.082 9.375 22.632 0 8.543-3.328 16.586-9.383 22.625-6.023 6.04-14.066 9.368-22.61 9.368zm0-47.985a15.92 15.92 0 0 0-11.328 4.68c-6.215 6.234-6.223 16.387.007 22.617 6.047 6.047 16.586 6.04 22.618.008 3.03-3.031 4.695-7.04 4.695-11.313 0-4.27-1.664-8.296-4.688-11.32-3.015-3.015-7.03-4.672-11.304-4.672zm0 0M340.938 324.938a7.977 7.977 0 0 1-5.657-2.344l-67.953-67.969c-3.129-3.129-3.129-8.191 0-11.313a7.99 7.99 0 0 1 11.313 0l67.953 67.97a7.997 7.997 0 0 1 0 11.312 7.958 7.958 0 0 1-5.656 2.344zm0 0M399.84 406.473c-3.352 0-6.473-2.121-7.582-5.473a7.994 7.994 0 0 1 5.055-10.121l33.933-11.313a7.984 7.984 0 0 1 10.121 5.059 7.994 7.994 0 0 1-5.055 10.121l-33.937 11.309a8.016 8.016 0 0 1-2.535.418zm0 0M422.473 429.098a7.996 7.996 0 0 1-7.586-5.473 8.001 8.001 0 0 1 5.058-10.121l33.918-11.313a7.977 7.977 0 0 1 10.121 5.059 7.995 7.995 0 0 1-5.054 10.117l-33.922 11.313a8.052 8.052 0 0 1-2.535.418zm0 0M222.063 240.016a7.99 7.99 0 0 1-5.657-2.344L37.656 58.922a7.99 7.99 0 0 1 0-11.313 7.99 7.99 0 0 1 11.313 0l178.75 178.75a7.99 7.99 0 0 1 0 11.313 7.977 7.977 0 0 1-5.656 2.344zm0 0M239.031 223.047a7.974 7.974 0 0 1-5.656-2.344L99.855 87.183a7.99 7.99 0 0 1 0-11.312 7.997 7.997 0 0 1 11.313 0L244.68 209.383a7.99 7.99 0 0 1 0 11.312 7.912 7.912 0 0 1-5.649 2.352zm0 0M256 206.082a7.972 7.972 0 0 1-5.656-2.348L71.594 24.984a7.99 7.99 0 0 1 0-11.312 7.985 7.985 0 0 1 11.308 0l178.754 178.754a7.985 7.985 0 0 1 0 11.308 7.972 7.972 0 0 1-5.656 2.348zm0 0"/></g></svg>