<svg xmlns="http://www.w3.org/2000/svg" viewBox="0 0 512.021 512.021" width="512" height="512"><g fill="#FFF"><path d="M494.944 128.021h-17.067v-17.067c0-21.329-44.267-29.279-73.82-32.213a55.753 55.753 0 0 0-39.692-26.47C361.316 22.413 336.048-.221 306.036.021a62.174 62.174 0 0 0-50.025 23.125A62.179 62.179 0 0 0 205.986.021c-30.013-.245-55.282 22.391-58.329 52.25a55.707 55.707 0 0 0-39.693 26.47c-29.553 2.934-73.82 10.884-73.82 32.213v17.067H17.077C7.656 128.032.021 135.667.01 145.088v315.733c.011 9.421 7.645 17.056 17.067 17.067h190.646c7.24 20.458 26.586 34.133 48.287 34.133s41.047-13.675 48.288-34.133h190.646c9.421-.011 17.056-7.646 17.067-17.067V145.088c-.011-9.421-7.646-17.056-17.067-17.067zm-84.158-31.34c33.598 4.233 48.506 11.744 50.024 14.274V415.57c-29.877-13.941-89.359-14.482-98.133-14.482s-68.257.541-98.133 14.482v-87.992a67.749 67.749 0 0 0 50.317 22.309 56.66 56.66 0 0 0 7.354-.425 30.45 30.45 0 0 0 2.825-.358 52.883 52.883 0 0 0 6.433-1.267 43.317 43.317 0 0 0 2.942-.792 71.55 71.55 0 0 0 3.833-1.25c1.975-.733 3.942-1.525 5.687-2.383a68.32 68.32 0 0 0 8.713-4.867 66.313 66.313 0 0 0 2.408-1.692 67.067 67.067 0 0 0 11.554-10.675c.717-.875 1.429-1.75 2.125-2.65a59.207 59.207 0 0 0 3.613-5.208 29.38 29.38 0 0 0 1.008-1.658 29.16 29.16 0 0 0 1.533-2.783 21.26 21.26 0 0 0 1.017-2.1 31.773 31.773 0 0 0 1.592-3.567c.7-1.6 1.29-3.245 1.766-4.925.125-.367.25-.742.367-1.125 25.643-6.19 43.735-29.104 43.808-55.484a53.56 53.56 0 0 0-.829-9.492 37.066 37.066 0 0 0-.783-3.658 35.752 35.752 0 0 0-1.575-5.442c-.496-1.533-1.129-3.058-1.771-4.525l-.041-.081-.03-.077c-.06-.128-.135-.248-.196-.376a47.93 47.93 0 0 0-2.269-4.368 59.648 59.648 0 0 0 19.265-43.706c0-1.208-.062-2.417-.117-3.042.017-.94-.05-1.88-.2-2.808-.071-1.058-.204-2.108-.383-3.392a57.677 57.677 0 0 0-.708-3.533 29.327 29.327 0 0 0-1.104-4.108 58.218 58.218 0 0 0-13.779-23.867 21.945 21.945 0 0 0-1.775-1.808 59.891 59.891 0 0 0-8.971-7.292 52.474 52.474 0 0 0 2.613-28.422zM292.643 296.189a8.535 8.535 0 0 0 14.569-6.035v-25.6a8.53 8.53 0 0 0-8.534-8.534h-34.133v-17.067h34.133c4.713 0 8.533-3.82 8.533-8.533s-3.82-8.533-8.533-8.533h-34.133v-25.6h42.667a8.53 8.53 0 0 0 8.534-8.534v-17.067h34.133c4.713 0 8.533-3.82 8.533-8.533s-3.82-8.533-8.533-8.533h-42.667a8.53 8.53 0 0 0-8.534 8.534v17.067h-34.133v-42.667h34.133c4.713 0 8.533-3.82 8.533-8.533s-3.82-8.533-8.533-8.533h-34.133V76.821h25.6v8.533a8.533 8.533 0 0 0 17.066 0V68.288a8.53 8.53 0 0 0-8.534-8.534h-34.133v-8.533c0-.189-.096-.347-.108-.533.012-.186.108-.344.108-.533 0-21.475 21.379-33.067 41.492-33.067 20.61-.196 38.157 14.948 40.979 35.364a55.84 55.84 0 0 0-18.68 6.444c-4.1 2.313-5.553 7.508-3.248 11.613s7.498 5.568 11.606 3.271a38.977 38.977 0 0 1 19.304-5.05l.029-.006.029.006c20.951-.295 38.19 16.417 38.546 37.367a35.825 35.825 0 0 1-1.984 11.651 62.293 62.293 0 0 0-18.908-2.967 8.533 8.533 0 0 0-8.533 8.533 8.533 8.533 0 0 0 8.533 8.533 45.022 45.022 0 0 1 19.671 4.442l.033.007a44.933 44.933 0 0 1 12.138 8.618c.275.242.508.525.887.933a42.031 42.031 0 0 1 10.025 17.475c.279.805.499 1.629.658 2.467.2.867.396 1.775.512 2.458.087.667.188 1.333.325 2.808.06.453.088.91.083 1.367.046.817.1 1.675.1 2.533a42.488 42.488 0 0 1-12.889 30.221 57.658 57.658 0 0 0-23.232-13.329 8.535 8.535 0 0 0-4.85 16.366 40.93 40.93 0 0 1 20.72 14.164 31.632 31.632 0 0 1 1.813 2.503 41.235 41.235 0 0 1 3.146 5.541c.388.883.767 1.798 1.083 2.719.092.254.175.452.271.74a24.68 24.68 0 0 1 1.05 3.725c.217.799.392 1.608.525 2.425l.025.15c.383 2.145.573 4.321.567 6.5a39.89 39.89 0 0 1-24.198 36.45 64.197 64.197 0 0 0-13.485-38.808 8.537 8.537 0 0 0-13.5 10.45 47.29 47.29 0 0 1 9.988 29.2 46.833 46.833 0 0 1-.887 9.217v.051l-.029.082c-.175.928-.4 1.846-.675 2.75-.042.133-.179.767-.213.908l-.417 1.3a28.73 28.73 0 0 1-1.287 3.567 18.791 18.791 0 0 1-1 2.242c-.137.25-.467 1.025-.579 1.292a8.57 8.57 0 0 0-.425.775c-.225.504-.485.991-.779 1.458-.137.208-.358.6-.479.817l-.475.758a45.785 45.785 0 0 1-2.683 3.883l-1.808 2.258a49.515 49.515 0 0 1-8.525 7.792c-.613.467-1.229.875-1.825 1.283a50.824 50.824 0 0 1-6.5 3.6 44.465 44.465 0 0 1-4.187 1.758c-.983.35-1.971.658-2.892.942a37.85 37.85 0 0 1-2.196.583c-1.614.419-3.251.74-4.904.958-.467.075-.979.158-1.946.25-1.86.227-3.732.336-5.605.325-27.369.367-49.874-21.482-50.317-48.85 0-.26-.125-.479-.148-.733.023-.254.148-.473.148-.733v-9.417h25.6v17.067a8.536 8.536 0 0 0 2.501 6.034zM106.886 144.53a43.512 43.512 0 0 1 11.721-8.235l.033-.007a45.032 45.032 0 0 1 19.671-4.442c4.713 0 8.533-3.82 8.533-8.533s-3.82-8.533-8.533-8.533a62.263 62.263 0 0 0-18.908 2.968 35.825 35.825 0 0 1-1.984-11.651c.363-20.969 17.634-37.687 38.604-37.367a38.747 38.747 0 0 1 18.704 4.708 8.534 8.534 0 0 0 8.142-15 55.419 55.419 0 0 0-17.862-5.988c2.822-20.416 20.37-35.558 40.979-35.362 20.112 0 41.492 11.592 41.492 33.067 0 .189.096.347.108.533-.012.186-.108.344-.108.533v8.533h-25.6v-8.533a8.533 8.533 0 0 0-17.066 0v17.067a8.53 8.53 0 0 0 8.534 8.534h34.133v17.067h-34.133a8.533 8.533 0 0 0 0 17.066h34.133v25.6h-42.667a8.53 8.53 0 0 0-8.534 8.534v8.533h-34.133c-4.713 0-8.533 3.82-8.533 8.533s3.82 8.533 8.533 8.533h42.667a8.53 8.53 0 0 0 8.534-8.534v-8.533h34.133v42.667h-34.133a8.533 8.533 0 0 0 0 17.066h34.133v42.667h-34.133v-17.067a8.533 8.533 0 0 0-17.066 0v25.6a8.53 8.53 0 0 0 8.534 8.534h42.667v9.417c0 .26.125.479.148.733-.023.254-.148.473-.148.733-.442 27.368-22.948 49.217-50.317 48.85a47.268 47.268 0 0 1-6.063-.375c-.508-.042-1.021-.125-1.65-.225a42.959 42.959 0 0 1-5.1-1.017c-.6-.142-1.242-.325-1.766-.483-.992-.3-1.979-.608-2.875-.925a46.866 46.866 0 0 1-4.437-1.867 50.26 50.26 0 0 1-6.325-3.517c-.608-.417-1.225-.825-1.971-1.392a48.864 48.864 0 0 1-8.35-7.642l-1.871-2.333a46.108 46.108 0 0 1-2.662-3.858l-.467-.742a8.346 8.346 0 0 0-.487-.833 11.649 11.649 0 0 1-.779-1.458c-.129-.267-.475-1.033-.629-1.283a8.65 8.65 0 0 0-.375-.783 22.806 22.806 0 0 1-1.138-2.575 26.323 26.323 0 0 1-1.15-3.233 43.739 43.739 0 0 0-.4-1.208 7.955 7.955 0 0 0-.229-1c-.275-.904-.5-1.822-.675-2.75l-.029-.082v-.051a46.826 46.826 0 0 1-.888-9.217 47.29 47.29 0 0 1 9.988-29.2 8.537 8.537 0 0 0-13.5-10.45 64.192 64.192 0 0 0-13.485 38.808 39.89 39.89 0 0 1-24.198-36.45c-.004-2.23.194-4.456.592-6.65.133-.808.304-1.617.621-2.817a24.714 24.714 0 0 1 1.133-3.842c.317-.962.724-1.913 1.126-2.83a42.353 42.353 0 0 1 3.286-5.804 30.097 30.097 0 0 1 1.675-2.298c.076-.092.093-.137.175-.235a40.591 40.591 0 0 1 20.592-13.992 8.534 8.534 0 0 0 5.758-10.609 8.534 8.534 0 0 0-10.608-5.758 57.778 57.778 0 0 0-23.239 13.322 42.484 42.484 0 0 1-12.883-30.213c0-.858.054-1.717.117-3.042.018-.556.071-1.109.158-1.658.046-.675.146-1.342.2-1.775.15-.917.346-1.825.592-2.9.193-.943.453-1.87.779-2.775a41.474 41.474 0 0 1 9.996-17.1c.359-.416.749-.808 1.163-1.174zm-55.675-33.02c2.076-3.287 17.023-10.663 50.025-14.828a52.44 52.44 0 0 0 2.613 28.415 55.587 55.587 0 0 0-8.554 6.917 23.239 23.239 0 0 0-2.054 2.05 57.683 57.683 0 0 0-13.75 23.492 31.867 31.867 0 0 0-1.225 4.417 59.589 59.589 0 0 0-.787 3.975 21.96 21.96 0 0 0-.258 2.358 19.06 19.06 0 0 0-.275 3.1 57.02 57.02 0 0 0-.134 3.55 59.667 59.667 0 0 0 19.271 43.716 58.187 58.187 0 0 0-2.546 4.9c-.638 1.458-1.271 2.983-1.587 4.008-.051.129-.083.258-.132.388l-.047.12-.003.027a37.204 37.204 0 0 0-1.476 5.023 40.817 40.817 0 0 0-.867 3.975 53.646 53.646 0 0 0-.842 9.567c.073 26.38 18.165 49.294 43.808 55.484.079.258.158.483.225.667a39.92 39.92 0 0 0 1.771 5.05 26.4 26.4 0 0 0 1.592 3.567 22.26 22.26 0 0 0 1.154 2.433c.46.954.971 1.883 1.529 2.783.304.55.642 1.084.938 1.542a60.252 60.252 0 0 0 3.667 5.3c.717.925 1.429 1.8 2.433 3.025a66.199 66.199 0 0 0 11.133 10.225 67.357 67.357 0 0 0 2.758 1.933 66.89 66.89 0 0 0 8.333 4.65c1.908.933 3.875 1.725 5.938 2.492 1.25.45 2.496.842 3.817 1.242.929.275 1.937.558 2.513.683a55.375 55.375 0 0 0 6.629 1.325c.942.158 1.963.308 2.529.333 2.591.328 5.201.487 7.813.475a67.754 67.754 0 0 0 50.317-22.309v87.992c-29.877-13.941-89.359-14.482-98.133-14.482-8.774 0-68.257.541-98.133 14.482V111.51zm443.733 349.311H297.823a8.539 8.539 0 0 0-8.367 6.85c-3.257 15.882-17.234 27.283-33.446 27.283s-30.189-11.401-33.446-27.283a8.54 8.54 0 0 0-8.367-6.85H17.077V145.088h17.067v290.133a8.795 8.795 0 0 0 8.467 8.9 8.164 8.164 0 0 0 8.462-8.166c3.275-6.392 38.913-17.801 98.271-17.801 59.358 0 94.996 11.408 98.133 17.067a8.795 8.795 0 0 0 8.467 8.9 8.164 8.164 0 0 0 8.462-8.166c3.275-6.392 38.913-17.801 98.271-17.801 59.358 0 94.996 11.408 98.133 17.067 0 4.713 3.82 8.533 8.533 8.533s8.533-3.82 8.533-8.533V145.088h17.067v315.733z"/><path d="M170.677 213.355h8.533a8.533 8.533 0 0 0 0-17.066h-8.533c-4.713 0-8.533 3.82-8.533 8.533s3.82 8.533 8.533 8.533zM170.677 110.955h8.533c4.713 0 8.533-3.82 8.533-8.533s-3.82-8.533-8.533-8.533h-8.533c-4.713 0-8.533 3.82-8.533 8.533s3.82 8.533 8.533 8.533zM341.344 119.488h-8.533a8.533 8.533 0 0 0 0 17.066h8.533c4.713 0 8.533-3.82 8.533-8.533s-3.82-8.533-8.533-8.533zM332.811 238.955h8.533c4.713 0 8.533-3.82 8.533-8.533s-3.82-8.533-8.533-8.533h-8.533c-4.713 0-8.533 3.82-8.533 8.533s3.82 8.533 8.533 8.533z"/></g></svg>