<svg xmlns="http://www.w3.org/2000/svg" viewBox="0 0 465 465" width="512" height="512"><path d="M243.074 390.261l2.45-1.326.435-.235 2.217-1.194.639-.343c.702-.376 1.404-.753 2.108-1.128l.678-.361a948.076 948.076 0 0 1 5.946-3.14c-.007-.012-.015-.023-.021-.036a7.499 7.499 0 0 1 3.274-10.088c18.999-9.689 39.627-19.08 63.914-26.78L232.5 238.393l-92.232 107.259c37.429 11.881 66.883 27.975 95.829 43.792l4.229 2.31 2.716-1.475.032-.018z" data-original="#E43017" class="active-path" data-old_color="#8D473C" fill="#8c463b"/><path d="M264.215 386.594a7.5 7.5 0 0 1-6.666-4.059 873.803 873.803 0 0 0-6.624 3.501c-.704.375-1.406.752-2.108 1.128-.213.114-.427.228-.639.343-.74.397-1.479.795-2.217 1.194l-.435.235c-.818.441-1.634.883-2.45 1.326l-.032.018-2.716 1.475C295.787 422.024 349.654 450 457.5 450V342.051c-91.533 0-145.355 21.014-189.884 43.723a7.474 7.474 0 0 1-3.401.82z" data-original="#FF9926" data-old_color="#7C470C" fill="#7a460c"/><path d="M392.402 330.943l-47.24-54.937-14.688 17.082a7.499 7.499 0 0 1-10.576.796l-9.948 11.569 30.579 35.561c15.648-4.184 32.792-7.642 51.873-10.071zM7.5 342.051V457.5h361.74c-60.379-11.202-100.832-33.306-140.337-54.893-56.989-31.142-110.818-60.556-221.403-60.556zM139.91 122c17.781 0 32.248-14.467 32.248-32.249 0-17.782-14.467-32.25-32.248-32.25-17.782 0-32.249 14.467-32.249 32.25 0 17.782 14.467 32.249 32.249 32.249z" data-original="#FECC33" data-old_color="#F6C315" fill="#f7c416"/><path d="M457.5 450c-107.846 0-161.713-27.976-217.174-58.246l-4.229-2.31c-28.946-15.817-58.4-31.912-95.829-43.792L232.5 238.393l92.215 107.239c-24.287 7.7-44.915 17.091-63.914 26.78a7.5 7.5 0 0 0-3.274 10.088c.006.012.015.023.021.036a7.5 7.5 0 0 0 6.666 4.059 7.47 7.47 0 0 0 3.401-.82c44.528-22.708 98.351-43.723 189.884-43.723 4.143 0 7.5-3.358 7.5-7.5s-3.357-7.5-7.5-7.5c-16.836 0-32.436.692-46.978 1.958l-59.674-69.395a7.5 7.5 0 0 0-11.374 0l-20.375 23.694a7.5 7.5 0 0 0 11.372 9.78l14.688-17.082 47.24 54.937c-19.082 2.429-36.225 5.887-51.875 10.071l-30.579-35.561L238.187 222a7.5 7.5 0 0 0-11.374 0L124.456 341.033C92.551 332.488 54.857 327.051 7.5 327.051c-4.143 0-7.5 3.358-7.5 7.5s3.357 7.5 7.5 7.5c110.585 0 164.414 29.415 221.403 60.556 39.505 21.587 79.958 43.691 140.337 54.893 25.417 4.716 54.364 7.5 88.26 7.5 4.143 0 7.5-3.358 7.5-7.5s-3.357-7.5-7.5-7.5zM139.91 137c26.053 0 47.248-21.196 47.248-47.249s-21.195-47.25-47.248-47.25-47.249 21.196-47.249 47.25c0 26.053 21.196 47.249 47.249 47.249zm0-79.498c17.781 0 32.248 14.467 32.248 32.25 0 17.782-14.467 32.249-32.248 32.249-17.782 0-32.249-14.467-32.249-32.249 0-17.783 14.467-32.25 32.249-32.25zM139.91 27.502a7.5 7.5 0 0 0 7.5-7.5V7.5c0-4.142-3.357-7.5-7.5-7.5s-7.5 3.358-7.5 7.5v12.502a7.5 7.5 0 0 0 7.5 7.5zM85.287 45.734c1.464 1.465 3.384 2.197 5.303 2.197s3.839-.732 5.304-2.197a7.498 7.498 0 0 0-.001-10.606l-8.841-8.84a7.498 7.498 0 0 0-10.606 0 7.498 7.498 0 0 0 .001 10.606l8.84 8.84zM57.658 97.251h12.503c4.143 0 7.5-3.358 7.5-7.5s-3.357-7.5-7.5-7.5H57.658a7.5 7.5 0 0 0 0 15zM85.287 133.768l-8.841 8.84a7.498 7.498 0 0 0-.001 10.606 7.476 7.476 0 0 0 5.304 2.197 7.474 7.474 0 0 0 5.303-2.197l8.841-8.84a7.5 7.5 0 1 0-10.606-10.606zM132.41 159.5v12.502c0 4.142 3.357 7.5 7.5 7.5s7.5-3.358 7.5-7.5V159.5c0-4.142-3.357-7.5-7.5-7.5s-7.5 3.358-7.5 7.5zM194.532 133.768a7.498 7.498 0 0 0-10.606 0 7.498 7.498 0 0 0 .001 10.606l8.841 8.84c1.464 1.465 3.384 2.197 5.303 2.197s3.839-.732 5.304-2.197a7.498 7.498 0 0 0-.001-10.606l-8.842-8.84zM202.159 89.751a7.5 7.5 0 0 0 7.5 7.5h12.502c4.143 0 7.5-3.358 7.5-7.5s-3.357-7.5-7.5-7.5h-12.502a7.5 7.5 0 0 0-7.5 7.5zM189.229 47.931a7.474 7.474 0 0 0 5.303-2.197l8.841-8.84a7.498 7.498 0 0 0 .001-10.606 7.498 7.498 0 0 0-10.606 0l-8.841 8.84a7.498 7.498 0 0 0-.001 10.606 7.476 7.476 0 0 0 5.303 2.197z" data-original="#000000"/></svg>