<svg xmlns="http://www.w3.org/2000/svg" viewBox="0 0 60 60" width="512" height="512"><g fill="#FFF"><path d="M6 15h15a1 1 0 1 0 0-2H6a1 1 0 1 0 0 2zM6 11h9a1 1 0 1 0 0-2H6a1 1 0 1 0 0 2zM22 18a1 1 0 0 0-1-1H6a1 1 0 1 0 0 2h15a1 1 0 0 0 1-1z"/><path d="M60 4H31V1a1 1 0 1 0-2 0v3H0v42h27.586L15.293 58.293a.999.999 0 1 0 1.414 1.414L29 47.414V57a1 1 0 1 0 2 0v-9.586l12.293 12.293a.997.997 0 0 0 1.414 0 .999.999 0 0 0 0-1.414L32.414 46H60V4zm-2 40H2V6h56v38z"/><path d="M28.019 31.567A3.947 3.947 0 0 0 26 31a3.96 3.96 0 0 0-1.338.247l-1.909-1.908A3.97 3.97 0 0 0 23 28c0-2.206-1.794-4-4-4s-4 1.794-4 4c0 .472.097.918.247 1.339l-1.909 1.908A3.96 3.96 0 0 0 12 31c-2.206 0-4 1.794-4 4s1.794 4 4 4 4-1.794 4-4c0-.997-.38-1.899-.986-2.6l1.385-1.385c.702.605 1.604.985 2.601.985s1.899-.38 2.6-.985l1.385 1.385A3.967 3.967 0 0 0 22 35c0 2.206 1.794 4 4 4s4-1.794 4-4c0-.74-.215-1.424-.567-2.019l6.967-6.966c.701.605 1.603.985 2.6.985s1.899-.38 2.6-.985l4.386 4.385A3.963 3.963 0 0 0 45 33c0 2.206 1.794 4 4 4s4-1.794 4-4-1.794-4-4-4a3.96 3.96 0 0 0-1.338.247l-4.909-4.908A3.97 3.97 0 0 0 43 23c0-2.206-1.794-4-4-4s-4 1.794-4 4c0 .472.097.918.247 1.339l-7.228 7.228zM12 37c-1.103 0-2-.897-2-2s.897-2 2-2 2 .897 2 2-.897 2-2 2zm7-7c-1.103 0-2-.897-2-2s.897-2 2-2 2 .897 2 2-.897 2-2 2zm7 7c-1.103 0-2-.897-2-2s.897-2 2-2 2 .897 2 2-.897 2-2 2zm25-4c0 1.103-.897 2-2 2s-2-.897-2-2 .897-2 2-2 2 .897 2 2zM39 21c1.103 0 2 .897 2 2s-.897 2-2 2-2-.897-2-2 .897-2 2-2z"/></g></svg>