<svg xmlns="http://www.w3.org/2000/svg" viewBox="0 0 390.675 390.675"><path d="M77.438 224.861c-17.442-14.747-34.476-28.22-50.43-42.869C6.04 162.739-4.29 139.622 1.673 110.075 6.207 87.61 14.596 68.057 35.858 57.763 49.361 51.225 64.105 45.82 78.85 43.581c28.218-4.284 56.922-5.37 85.438-2.75 36.331 3.337 68.198 18.155 96.518 40.764 3.499 2.793 5.839 7.038 8.36 10.169 12.286-.362 24.493-1.234 36.676-.981 33.53.696 57.492 16.998 72.906 46.31 6.981 13.275 10.71 27.681 11.794 42.537 1.003 13.744-3.799 26.292-10.438 38.174-12.871 23.037-29.403 42.991-50.423 58.986-16.634 12.657-32.659 25.964-50.888 36.688-34.057 20.036-70.688 31.043-109.504 35.472-15.044 1.717-30.286 2.02-45.45 2.294-21.317.386-38.11-7.935-47.65-27.746-5.623-11.677-11.516-23.433-15.234-35.772-5.978-19.841-2.412-38.661 10.558-55.286 1.995-2.557 3.993-5.108 5.925-7.579zm261.656-88.559c-.052 3.579-1.809 7.775 4.65 10.145l-.78-11.785-4.128 1.933c.489-3.929 2.5-8.324-3.072-10.685-3.554 11.163-3.554 11.163-.444 16.591 1.34-2.199 2.555-4.195 3.774-6.199zm-50.104-8.945l-.427-8.075-8.353 6.392c-1.895-4.336-.129-6.81 4.08-8.074 15.895-4.775 32.09-5.695 48.044-1.36 16.554 4.498 22.148 13.191 21.477 30.401-.111 2.854-.521 5.756-1.248 8.516-2.758 10.465-5.842 20.845-8.54 31.324-2.815 10.935-8.864 19.825-17.335 26.913a447.317 447.317 0 0 1-27.42 21.168c-27.488 19.587-58.171 33.554-88.1 48.713-24.67 12.495-51.206 19.879-79.035 21.066-13.004.555-25.984-.555-38.054-6.426-14.746-7.172-19.797-19.199-14.212-35.339l8.214 22.124 1.637-.425-4.58-29.827c6.637 11.263 5.893 24.755 12.986 35.954 1.178-2.682 1.78-5.369 1.363-7.889-.765-4.617-2.381-9.09-3.191-13.702-1.249-7.11-2.117-14.287-3.146-21.435l2.295-.408 7.224 29.176c7.629-12.789 1.091-23.804 2.25-34.57l-19.945-12.368c-10.448 11.096-17.338 22.879-18.077 38.388-.907 19.039 8.408 33.966 17.267 49.268 1.649 2.847 4.011 5.281 6.359 8.313l2.171-5.29c3.955 8.276 5.879 18.038 18.257 17.058l-6.723-18.096c12.144 20.07 12.144 20.07 18.948 19.091l-1.313-8.342-.243.211c1.433 1.954 3.159 3.761 4.233 5.895 1.796 3.572 4.81 4.329 8.179 3.835 8.555-1.254 17.228-.883 26.164-1.722l-5.745-14.903c2.758 1.878 4.131 4.289 5.27 6.807 2.461 5.44 5.363 8.559 12.46 6.746 18.51-4.729 37.969-6.633 55.733-13.215 40.024-14.83 75.908-37.037 106.52-67.233 13.773-13.586 25.31-28.885 34.306-45.904 3.637-6.88 6.68-14.802 7.229-22.448 1.576-21.961-4.679-42.035-17.357-60.238-8.48-12.176-19.976-19.873-33.734-24.147-18.376-5.71-37-5.201-55.667-.762-19.554 4.65-36.906 14.537-55.171 22.312-32.219 13.716-60.93 32.997-88.774 53.807-1.868 1.397-3.492 3.12-6.392 5.743l19.142 9.311 1.498-9.121-7.611.677c7.969-12.728 35.933-29.497 51.624-31.422 5.303 12.005-.138 24.448.682 37.054 6.255-1.872 6.078-6.647 6.83-10.742 1.734-9.442 3.308-18.913 4.946-28.372l1.742.279-2.785 32.383 9.033-6.076c.277-10.276 1.448-19.574 6.498-28.06l-2.681 26.42c18.727-12.472 37.721-18.035 56.684-23.778 2.75-.833 4.826-3.889 7.215-5.917 6.528 2.419 8.392 1.959 10.737-3.302 2.459-5.519 4.601-11.178 6.881-16.777l-3.924 20.054 9.08-6.005 4.605 2.201 7.409-23.593c-7.909-.476-14.506-.394-17.489 7.763zm-118.367 77.497c5.698-4.028 8.066-9.578 8.742-16.497 1.033-10.571 2.853-21.065 4.34-31.591l-2.178-1.155-29.349 18.037c-.836 7.283-1.785 14.407-2.422 21.558-.354 3.975 1.708 5.785 5.815 5.301l4.54-26.308 2.02.293-2.218 28.389c3.215 1.089 5.553 2.045 7.982 2.615.858.202 1.938-.541 2.917-.853l-.189.211zM312.7 173.662l-.632-12.285c8.192 5.248 12.955 15.99 10.775 23.97-2.564 9.384-7.499 16.994-15.956 22.392-17.575 11.216-35.777 18.821-57.311 20.445-38.663 2.916-74.612-5.452-109.669-20.287-23.861-10.098-44.917-24.903-65.321-40.436-14.056-10.701-27.106-22.898-35.969-38.714-8.036-14.339-6.367-29.011.833-42.475 5.317-9.945 15.636-15.113 25.95-18.992l2.292 1.608-10.44 33.166c11.378-4.768 9.595-18.292 19.088-25.947l-8.256 24.306c5.455 2.474 7.021-.31 8.52-4.151 2.594-6.645 5.624-13.12 8.471-19.666l2.322.839-7.47 22.838c5.279 2.034 6.429-.865 7.902-3.973 3.879-8.184 8.034-16.238 12.079-24.344l1.911.92-10.751 28.087c8.909 1.524 8.122-5.701 10.559-9.264 2.858-4.179 5.019-8.835 7.482-13.284l1.796.899-8.572 22.059 2.671 1.378 18.994-30.496 2.137 1.256-14.048 27.263c.978.888 1.434 1.641 2.028 1.773 1.384.307 2.834.315 4.206.439 3.855-12.369 10.371-22.615 18.867-28.728l-13.979 28.778c25.842 5.211 51.553 9.093 75.67 19.88l45.289-21.817c-11.482-9.279-23.839-14.471-36.254-19.199-12.54-4.776-25.534-8.36-38.398-12.488 15.837-4.563 64.323 14.577 77.559 30.642 1.667-.513 3.446-.912 5.099-1.612 1.483-.628 2.828-1.585 4.411-2.5-1.089-1.451-1.666-2.369-2.391-3.151-.981-1.06-1.998-2.113-3.132-3.001-32.07-25.117-68.112-38.989-109.21-38.55-7.597.081-15.205-.193-22.789.134-14.036.605-28.231.439-42.038 2.625-14.929 2.364-29.533 6.876-42.811 14.724-5.508 3.255-9.877 7.401-11.522 13.685-2.739 10.458-5.402 20.946-7.713 31.504-5.179 23.653 4.019 42.778 20.512 58.535 13.565 12.961 28.465 24.523 42.749 36.733 27.664 23.646 61.054 34.798 95.336 43.862l8.702-7.304.936 1.055-6.248 6.842c7.41 3.203 7.405 3.196 11.397-.161 3.528-2.966 6.3-7.11 13.515-9.165l-12.813 14.387c9.498 3.376 12.922-5.073 20.463-7.543l-5.802 8.417c4.891 3.655 8.673 3.25 12.521-1.085 4.558-5.134 9.516-9.92 14.419-14.736 1.724-1.693 3.798-3.03 5.712-4.529l1.05 1.392-18.073 20.589c4.576 3.426 7.025.953 9.311-1.371 6.34-6.445 12.539-13.03 18.864-19.49 2.307-2.357 4.81-4.521 7.224-6.773l1.346 1.487-11.1 15.029c31.452-13.267 59.47-30.988 82.596-54.986-2.834-14.774 1.355-30.282-10.744-41.835-14.569.693-28.888 3.033-43.672 10.446 7.22 2.905 10.31 12.074 19.254 6.821-3.833 8.331 4.511 12.536 5.566 20.079l7.067-6.367-5.616 14.889c5.211-4.091 8.665-9.081 12.986-13.151 4.673-4.402 4.822-8.106.263-12.317zm-202.125 4.372c21.133-20.301 47.3-32.556 72.918-47.89-2.676-1.32-3.853-2.097-5.146-2.508-33.963-10.793-68.958-15.616-104.402-17.103-10.346-.434-20.608 2.247-30.248 6.606 7.621 17.523 34.455 42.009 66.878 60.895zm69.422 30.959c35.446 9.224 70.745 12.073 105.937.561 2.513-19.305-8.169-29.978-21.244-39.424-3.509-2.535-6.675-2.894-10.979-1.681-27.527 7.757-51.262 22.354-73.714 40.544zm-68.709 85.835c33.973.541 64.497-7.593 95.457-22.987-4.127-1.538-6.038-2.521-8.068-2.957-7.02-1.508-14.168-2.488-21.106-4.289-12.529-3.252-24.927-7.002-37.41-10.434-3.846-1.058-7.668-1.903-10.85 1.98-8.991 10.97-16.824 22.435-18.023 38.687zM40.735 107.575l9.682-21.294 1.528.772-7.193 21.066c3.861-1.99 6.607-2.474 7.137-3.827C55.762 94.41 59.19 84.355 63.06 73.51c-19.059 9.105-24.422 16.909-22.325 34.065zm285.103 19.642l-2.183 12.68 2.392.786c5.03-4.229 4.277-11.103 7.124-17.237l-13.967-3.54-5.799 20.575c9.987.125 6.643-9.533 12.433-13.264zm-22.411 14.582l2.441.815c7.578-5.447 7.367-14.376 10.047-24.848-3.903 1.871-7.006 2.379-7.426 3.726-2.078 6.646-3.445 13.515-5.062 20.307zM107.669 242.38l3.11 20.138 11.903-13.845c-5.349-2.241-9.247-3.876-15.013-6.293zm230.751-69.521l3.26-13.693-14.405-6.358 11.145 20.051zm-192.94 23.695l3.074-19.075c-8.637 4.939-9.439 8.653-3.074 19.075z"/><path d="M143.178 317.214l4.763 12.129-1.834.664-4.366-12.247 1.437-.546zM131.979 320.633l2.839 5.955-1.287.598-2.741-6.001 1.189-.552zM121.862 329.597l-4.73-7.172 2.16-.962c.777 2.78 1.555 5.559 2.33 8.342l.24-.208zM276.161 136.008l-4.63 11.341 4.63-11.341zM280.498 125.172l-4.62 11.335 4.62-11.335zM170.81 204.644c-2.223-9.894-1.091-21.024 4.575-33.548-.569 5.572-.977 11.166-1.75 16.709-.792 5.679-1.942 11.309-2.974 17.004-.038.045.149-.165.149-.165z"/></svg>