<svg xmlns="http://www.w3.org/2000/svg" width="512" height="512"><path d="M496 80l-50 50H276V30h170l50 50zM496 280l-50 50H276V230h170l50 50z" data-original="#FFC342" fill="#ffc342"/><path d="M336 502H176c0-22.09 17.91-40 40-40h80c22.09 0 40 17.91 40 40z" data-original="#ED589D" data-old_color="#3B2006" fill="#3b2005"/><path d="M276 462h-40V10h40v452z" data-original="#444B75" class="active-path" data-old_color="#7A8CFF" fill="#7687f3"/><path d="M236 130v100H66l-50-50 50-50h170z" data-original="#FFC342" fill="#ffc342"/><path d="M316 80c5.52 0 10-4.48 10-10s-4.48-10-10-10-10 4.48-10 10 4.48 10 10 10zM316 280c5.52 0 10-4.48 10-10s-4.48-10-10-10-10 4.48-10 10 4.48 10 10 10zM196 160c-5.52 0-10 4.48-10 10s4.48 10 10 10 10-4.48 10-10-4.48-10-10-10zM356 280h60c5.522 0 10-4.478 10-10s-4.478-10-10-10h-60c-5.522 0-10 4.478-10 10s4.478 10 10 10z" data-original="#000000"/><path d="M446 140c2.652 0 5.195-1.054 7.071-2.929l50-50c3.905-3.905 3.905-10.237 0-14.143l-50-50A10.006 10.006 0 0 0 446 20H286V10c0-5.522-4.478-10-10-10h-40c-5.522 0-10 4.478-10 10v110H66a10.003 10.003 0 0 0-7.071 2.929l-50 50c-3.905 3.905-3.905 10.237 0 14.143l50 50A10.006 10.006 0 0 0 66 240h160v212h-10c-24.146 0-44.348 17.205-48.994 40H136c-5.522 0-10 4.478-10 10s4.478 10 10 10h240c5.522 0 10-4.478 10-10s-4.478-10-10-10h-31.006c-4.646-22.795-24.847-40-48.994-40h-10V340h160c2.652 0 5.195-1.054 7.071-2.929l50-50c3.905-3.905 3.905-10.237 0-14.143l-50-50A10.006 10.006 0 0 0 446 220H286v-80h160zm-4.143-100l40 40-40 40H286V40h155.857zM70.143 220l-40-40 40-40H226v80H70.143zM324.28 492H187.72c4.128-11.639 15.243-20 28.28-20h80c13.036 0 24.152 8.361 28.28 20zM246 452V20h20v432h-20zm195.857-212l40 40-40 40H286v-80h155.857z" data-original="#000000"/><path d="M356 80h60c5.522 0 10-4.478 10-10s-4.478-10-10-10h-60c-5.522 0-10 4.478-10 10s4.478 10 10 10zM156 160H96c-5.522 0-10 4.478-10 10s4.478 10 10 10h60c5.522 0 10-4.478 10-10s-4.478-10-10-10z" data-original="#000000"/></svg>