<svg xmlns="http://www.w3.org/2000/svg" width="593" height="800"><g fill-rule="evenodd" clip-rule="evenodd"><path d="M296.222 5.979h.683c4.617 5.033 7.777 11.825 11.272 18.445 3.333 6.31 7.313 13.38 8.542 20.837 1.096 6.663.682 14.684.682 22.544 0 113.5 3.416 227.825 3.416 341.246 0 60.417 1.707 121.198 1.707 182.407 0 28.755 2.342 61.085-1.365 89.155-3.182 24.097-8.82 43.881-19.128 61.484-1.623 2.771-3.541 6.712-4.44 6.833-.853.115-4.924-4.486-5.808-5.808-10.213-15.273-14.414-42.771-17.421-63.194-1.945-13.211-3.797-27.5-4.441-41.674-.684-15.075.343-30.213.343-45.43 0-92.626 3.072-180.888 3.073-273.27.001-82.887 3.417-166.148 3.417-249.359 0-7.554-.508-15.482.341-22.545.862-7.176 4.774-14.76 7.857-21.52 3.441-7.549 6.554-15.305 11.27-20.151zM156.855 337.318c22.36 1.673 36.851-8.646 50.213-18.103 4.444-3.146 8.843-7.354 14.688-8.2 2.887 17.722 2.378 36.062 3.074 54.655.693 18.494 1.366 37.448 1.366 56.361 0 37.904 1.749 76.27-.341 113.748-3.094 55.476-5.309 109.276-11.615 161.571-2.025 16.801-8.465 32.48-9.564 48.164-.61 8.717 2.436 16.851.343 23.911-1.389 4.681-4.552 9.47-7.174 13.663-2.604 4.166-5.205 9.315-9.906 10.931-3.191-5.404-4.557-11.896-6.49-18.445-1.841-6.235-4.875-13.014-5.466-19.471-.637-6.972.691-14.942 1.025-22.546 4.909-111.659 8.517-230.484 3.074-343.978-16.776 8.957-39.156 15.271-64.901 16.396 4.744-68.858 10.104-137.669 15.713-206.319.789-9.648.709-19.885 2.733-28.693 2.907-12.651 10.317-24.128 16.738-34.5 6.827-11.029 11.75-21.999 20.495-30.743 12.533-12.534 28.208-23.252 42.698-34.159 4.805-3.617 9.745-7.833 15.029-10.589 2.112-1.102 6.817-3.724 9.564-2.391 3.144 1.524.664 7.634-1.708 12.638-8.387 17.7-19.494 38.642-35.183 48.506-10.251 6.445-21.659 8.089-25.278 21.178-2.001 7.24-2.163 16.053-3.074 24.253-2.587 23.3-5.053 50.229-7.514 73.441-3.512 33.111-7.547 66.797-8.539 98.721zM477.264 405.978c-25.781-1.433-47.654-6.771-64.9-16.738-5.418 113.67-1.881 231.709 3.074 344.319.326 7.49 1.564 15.23 1.023 22.203-.508 6.559-3.562 13.366-5.465 19.813-1.934 6.552-3.141 13.376-6.832 18.445-4.465-1.708-6.918-7.029-9.564-11.271-3.021-4.847-6.525-9.41-7.514-15.373-1.156-6.964 1.23-14.047.682-21.86-1.1-15.699-7.545-31.415-9.564-48.164-6.25-51.821-8.512-105.934-11.613-161.571-2.105-37.741-.342-75.793-.342-113.748 0-18.83.668-37.728 1.367-56.361.689-18.438.182-36.849 3.072-54.655 6.174.65 10.166 5.383 14.689 8.541 13.172 9.195 27.312 18.698 49.871 18.104.902-16.21-1.678-33.381-3.416-50.556-4.252-42.016-7.746-82.255-12.639-125.362-1.189-10.487-1.893-22.248-6.83-28.693-6.396-8.345-19.445-10.488-27.328-17.763-12.104-11.17-22.361-29.017-29.717-45.431-2.773-6.185-4.037-12.509.682-11.613 9.205 1.745 15.549 8.04 22.545 13.322 14.33 10.817 30.086 21.204 42.697 33.817 8.807 8.805 13.605 19.643 20.496 30.742 6.172 9.943 13.85 22.479 16.738 34.159 2.17 8.777 2.244 19.031 3.074 29.035 5.614 67.746 10.952 138.685 15.714 206.659z"/><path d="M55.403 452.774c16.451-3.594 30.448-10.788 44.748-16.737 14.383-5.982 28.523-12.482 44.406-17.08 2.825 17.545 1.668 35.158.684 51.922-2.969 50.535-15.538 94.043-29.376 133.562-13.825 39.478-29.894 79.012-47.14 116.139-5.608 12.075-11.598 24.134-22.203 30.743 11.622-40.356 25.275-78.89 36.549-120.239 5.581-20.468 10.914-41.942 13.322-64.901 2.397-22.854 4.653-46.816 6.149-72.075-25.596 7.878-51.789 17.599-78.224 25.961-3.725 1.18-7.383 2.852-11.272 3.415-1.738-17.805-.042-35.825.683-53.97 1.789-44.747 3.738-90.41 5.808-135.952.416-9.155-.556-19.07 1.024-26.985.909-4.553 5.167-11.046 7.856-16.396 8.344-16.597 15.582-32.84 26.302-46.456 10.77-13.679 22.09-25.131 34.5-38.258 3.928-4.155 8.165-9.693 12.297-11.955 5.308-2.906 1.789 6.599.683 9.223-3.683 8.74-10.098 19.508-14.688 26.986-3.494 5.692-6.918 12.248-10.589 17.421-3.694 5.205-9.705 10.287-11.272 16.396-1.77 6.892-1.175 15.624-1.708 23.569-3.6 53.709-8.217 110.696-8.539 165.667zM490.244 192.827c4.494.649 9.701 7.66 13.322 11.614 11.818 12.909 24.289 25.195 34.842 38.599 10.621 13.489 18.613 29.871 26.986 46.798 2.492 5.043 6.756 11.269 7.855 16.395 1.701 7.945.598 17.951 1.025 27.327 2.033 44.755 4.008 90.944 5.807 135.952.727 18.199 2.422 36.321.682 53.97-3.967-.715-7.834-2.242-11.613-3.415-25.809-7.999-51.848-17.889-77.883-26.302 1.461 25.396 3.74 49.455 6.15 72.416 2.406 22.947 7.742 44.438 13.32 64.901 11.256 41.279 24.791 79.741 36.551 119.898-.242 1.303-2.08-.836-3.074-1.708-8.42-7.395-13.988-17.628-19.129-28.694-17.135-36.889-33.281-76.566-47.139-116.139-13.859-39.579-26.141-82.701-29.377-133.902-1.053-16.639-2.094-34.158.684-51.581 31.504 9.244 56.539 25.171 88.812 33.817 1.008-31.786-1.744-63.403-3.416-95.302-1.217-23.223-3.207-46.878-4.783-70.368-.531-7.937-.074-16.41-1.707-23.228-1.352-5.646-6.824-10.641-10.932-16.396-8.066-11.304-13.768-21.46-20.152-34.159-3.248-6.461-6.975-12.502-7.857-19.471a1.732 1.732 0 0 1 1.026-1.022z"/></g></svg>