<svg viewBox="-45 1 511 511.999" xmlns="http://www.w3.org/2000/svg"><path d="M210.398 292c5.52 0 10-4.48 10-10s-4.48-10-10-10-10 4.48-10 10 4.48 10 10 10zm0 0"/><path d="M204.688 510.137A9.98 9.98 0 0 0 210.5 512a9.98 9.98 0 0 0 5.813-1.863C318.198 437.359 420.5 405.426 420.5 255.68V70.29c0-5.2-3.988-9.532-9.168-9.966l-25.992-2.172C325.75 53.188 267.125 33.602 215.8 1.52a10 10 0 0 0-10.6 0C153.87 33.602 95.245 53.188 35.655 58.156L9.668 60.324A10 10 0 0 0 .5 70.29v185.39c0 153.97 116.668 191.942 204.188 254.458zM20.5 79.488l16.82-1.402C98.027 73.023 157.762 53.57 210.5 21.734c52.734 31.836 112.473 51.29 173.176 56.352l16.824 1.402V255.68c0 135.027-89.973 164-190.016 234.082C122.684 428.816 20.5 394.23 20.5 255.68zm0 0"/><path d="M204.672 437.45c3.633 2.48 8.207 2.3 11.656-.262C306.855 374.528 360.5 353.91 360.5 255.69v-131.16c0-4.949-3.621-9.156-8.516-9.89-47.859-7.192-93.918-22.086-136.898-44.27-3.094-1.598-6.777-1.394-9.613.223A440.343 440.343 0 0 1 69.016 114.64a9.999 9.999 0 0 0-8.516 9.89v131.16c0 99.145 58.754 123.477 144.172 181.758zM80.5 133.058a460.04 460.04 0 0 0 119.898-37.676V242c0 5.523 4.477 10 10 10 5.524 0 10-4.477 10-10V95.29A460.391 460.391 0 0 0 340.5 133.058V255.69c0 81.29-38.078 99.012-120.102 154.485V322c0-5.523-4.476-10-10-10-5.523 0-10 4.477-10 10v88.465C123.762 359.449 80.5 337.648 80.5 255.69zm0 0"/></svg>