<svg xmlns="http://www.w3.org/2000/svg" width="512" height="512"><path d="M367.573 184.898l21.8-21.8-40.472-40.472-21.8 21.8a131.394 131.394 0 0 0-42.484-17.586V96h-41.354a206.558 206.558 0 0 0-15.881 13.386v17.49a131.346 131.346 0 0 0-22.477 7.148C178.013 168.768 162 212.357 162 259.691c0 42.325 12.801 81.658 34.735 114.348a131.288 131.288 0 0 0 30.647 10.918v25.038a206.78 206.78 0 0 0 6.722 6.004h50.514v-31.006A131.43 131.43 0 0 0 327 367.471l21.901 21.901 40.472-40.472-21.863-21.863a131.402 131.402 0 0 0 17.613-42.42H416v-57.236h-30.841a131.398 131.398 0 0 0-17.586-42.483z" data-original="#834F2E" data-old_color="#844F2D" fill="#834f2e"/><path d="M256 348c-50.81 0-92-41.19-92-92s41.19-92 92-92 92 41.19 92 92-41.19 92-92 92z" data-original="#F4EEF2" data-old_color="#F2E5EE" fill="#f4eef2"/><path d="M318 323.969v-20.42c0-13.038-9.293-24.224-22.11-26.615l-15.713-2.931-3.108.001-15.71 2.93c-12.817 2.39-22.11 13.577-22.11 26.615v20.42a91.808 91.808 0 0 0 39.375 21.21A91.816 91.816 0 0 0 318 323.969z" data-original="#6499E4" data-old_color="#6399E4" fill="#6499e4"/><path d="M269.25 210.024c-9.624 4.595-16.274 14.416-16.274 25.792v21.124c0 11.376 6.65 21.197 16.274 25.792 9.624-4.595 16.274-14.416 16.274-25.792v-21.124c0-11.376-6.65-21.197-16.274-25.792z" data-original="#FFDFE0" fill="#ffdfe0"/><path d="M484.762 441.611c-10.241 5.336-17.238 16.042-17.238 28.389s6.997 23.053 17.238 28.389C495.003 493.053 502 482.347 502 470s-6.997-23.053-17.238-28.389zM56.762 13.611C46.521 18.947 39.524 29.653 39.524 42s6.997 23.053 17.238 28.389C67.003 65.053 74 54.347 74 42s-6.997-23.053-17.238-28.389z" data-original="#87070E" data-old_color="#85070E" fill="#87070e"/><path d="M56.762 441.611C46.521 446.947 39.524 457.653 39.524 470s6.997 23.053 17.238 28.389C67.003 493.053 74 482.347 74 470s-6.997-23.053-17.238-28.389z" data-original="#BF740C" data-old_color="#BD730C" fill="#bf740c"/><path d="M484.762 13.611C474.521 18.947 467.524 29.653 467.524 42s6.997 23.053 17.238 28.389C495.003 65.053 502 54.347 502 42s-6.997-23.053-17.238-28.389z" data-original="#39489B" data-old_color="#38479B" fill="#39489b"/><path d="M256 154c-56.243 0-102 45.757-102 102s45.757 102 102 102 102-45.757 102-102-45.757-102-102-102zm-52 165.354v-15.805c0-8.219 5.864-15.277 13.943-16.785l10.482-1.955c6.928 6.62 16.303 10.699 26.619 10.699h1.912c10.316 0 19.691-4.079 26.619-10.699l10.482 1.955c8.079 1.508 13.943 8.566 13.943 16.785v15.805C293.839 330.998 275.722 338 256 338s-37.839-7.002-52-18.646zm71.524-62.415c0 10.238-8.33 18.568-18.568 18.568h-1.912c-10.238 0-18.568-8.33-18.568-18.568v-21.123c0-10.238 8.33-18.568 18.568-18.568h1.912c10.238 0 18.568 8.33 18.568 18.568v21.123zm51.779 39.48c-2.871-14.667-14.427-26.49-29.579-29.315l-3.393-.633a38.515 38.515 0 0 0 1.194-9.531v-21.123c0-21.267-17.301-38.568-38.568-38.568h-1.912c-21.267 0-38.568 17.302-38.568 38.568v21.123c0 3.289.416 6.481 1.194 9.531l-3.394.633c-15.152 2.826-26.708 14.648-29.579 29.315A81.463 81.463 0 0 1 174 256c0-45.215 36.785-82 82-82s82 36.785 82 82a81.473 81.473 0 0 1-10.697 40.419z" data-original="#000000" class="active-path"/><path d="M396.444 341.83L380.1 325.486a140.892 140.892 0 0 0 12.816-30.868H416c5.523 0 10-4.478 10-10V266h36c5.523 0 10-4.478 10-10s-4.477-10-10-10h-36v-18.618c0-5.522-4.477-10-10-10h-23.038a140.85 140.85 0 0 0-12.803-30.927l16.285-16.285c3.905-3.905 3.905-10.237 0-14.143l-40.472-40.472c-3.905-3.904-10.237-3.904-14.143 0l-16.285 16.285a140.893 140.893 0 0 0-30.927-12.804V96c0-5.522-4.477-10-10-10h-57.235c-5.523 0-10 4.478-10 10v23.083a140.782 140.782 0 0 0-30.869 12.816l-16.343-16.344c-3.905-3.904-10.237-3.904-14.143 0l-40.472 40.472c-3.905 3.905-3.905 10.237 0 14.143l16.392 16.392a140.814 140.814 0 0 0-12.745 30.82H96c-5.523 0-10 4.478-10 10V246H50c-5.523 0-10 4.478-10 10s4.477 10 10 10h36v18.618c0 5.522 4.477 10 10 10h23.249a140.814 140.814 0 0 0 12.757 30.762l-16.45 16.45c-3.905 3.905-3.905 10.237 0 14.143l40.472 40.472c3.905 3.904 10.237 3.904 14.143 0l16.45-16.45a140.834 140.834 0 0 0 30.762 12.757V416c0 5.522 4.477 10 10 10h57.235c5.523 0 10-4.478 10-10v-23.202a140.903 140.903 0 0 0 30.821-12.745l16.392 16.392c3.905 3.904 10.237 3.904 14.143 0l40.472-40.472c3.903-3.906 3.903-10.238-.002-14.143zm-21.084-59.374a121.14 121.14 0 0 1-16.274 39.194 10 10 0 0 0 1.353 12.459l14.792 14.792-26.33 26.329-14.83-14.83a10 10 0 0 0-12.444-1.363 121.086 121.086 0 0 1-39.159 16.19 10 10 0 0 0-7.851 9.767V406h-37.235v-21.042c0-4.689-3.259-8.75-7.838-9.764a121.095 121.095 0 0 1-39.1-16.215 10.003 10.003 0 0 0-12.452 1.357l-14.894 14.894-26.33-26.329 14.894-14.894a10.001 10.001 0 0 0 1.358-12.452 121.112 121.112 0 0 1-16.215-39.1 10 10 0 0 0-9.764-7.838H106v-37.236h21.006a10 10 0 0 0 9.766-7.851 121.114 121.114 0 0 1 16.19-39.158 10 10 0 0 0-1.363-12.444l-14.831-14.83 26.33-26.329 14.792 14.792a10.002 10.002 0 0 0 12.459 1.353 121.085 121.085 0 0 1 39.194-16.273 10 10 0 0 0 7.838-9.764V106h37.235v20.841c0 4.694 3.266 8.758 7.851 9.767a121.102 121.102 0 0 1 39.252 16.248 9.998 9.998 0 0 0 12.451-1.357l14.729-14.729 26.33 26.329-14.729 14.729a10 10 0 0 0-1.358 12.452 121.103 121.103 0 0 1 16.249 39.252 10 10 0 0 0 9.766 7.851H406v37.236h-20.876a9.998 9.998 0 0 0-9.764 7.837zM470 428c-19.713 0-36.288 13.655-40.787 32H379.5v-44c0-5.522-4.477-10-10-10s-10 4.478-10 10v54c0 5.522 4.477 10 10 10h59.713c4.499 18.345 21.075 32 40.787 32 23.159 0 42-18.841 42-42s-18.841-42-42-42zm0 64c-12.131 0-22-9.869-22-22s9.869-22 22-22 22 9.869 22 22-9.869 22-22 22zM142.5 106c5.523 0 10-4.478 10-10V42c0-5.522-4.477-10-10-10H82.787C78.288 13.655 61.713 0 42 0 18.841 0 0 18.841 0 42s18.841 42 42 42c19.713 0 36.288-13.655 40.787-32H132.5v44c0 5.522 4.477 10 10 10zM42 64c-12.131 0-22-9.869-22-22s9.869-22 22-22 22 9.869 22 22-9.869 22-22 22zM142.5 406c-5.523 0-10 4.478-10 10v44H82.787C78.288 441.655 61.713 428 42 428c-23.159 0-42 18.841-42 42s18.841 42 42 42c19.713 0 36.288-13.655 40.787-32H142.5c5.523 0 10-4.478 10-10v-54c0-5.522-4.477-10-10-10zM42 492c-12.131 0-22-9.869-22-22s9.869-22 22-22 22 9.869 22 22-9.869 22-22 22zM470 0c-19.713 0-36.288 13.655-40.787 32H369.5c-5.523 0-10 4.478-10 10v54c0 5.522 4.477 10 10 10s10-4.478 10-10V52h49.713c4.499 18.345 21.075 32 40.787 32 23.159 0 42-18.841 42-42S493.159 0 470 0zm0 64c-12.131 0-22-9.869-22-22s9.869-22 22-22 22 9.869 22 22-9.869 22-22 22zM511.23 252.17a9.449 9.449 0 0 0-.92-1.72c-.36-.551-.78-1.061-1.24-1.521s-.97-.88-1.52-1.24a10.217 10.217 0 0 0-3.6-1.5 9.847 9.847 0 0 0-3.9 0 10.217 10.217 0 0 0-3.6 1.5c-.55.36-1.06.78-1.52 1.24s-.88.97-1.24 1.521c-.36.54-.67 1.119-.92 1.72-.25.61-.44 1.24-.57 1.88s-.2 1.3-.2 1.95c0 .649.07 1.31.2 1.95s.32 1.27.57 1.869c.25.61.56 1.19.92 1.73.36.55.78 1.06 1.24 1.52.46.461.97.881 1.52 1.24.54.36 1.12.67 1.73.92a10.098 10.098 0 0 0 3.82.77 10.098 10.098 0 0 0 3.82-.77 9.87 9.87 0 0 0 1.73-.92 9.462 9.462 0 0 0 1.52-1.24A10.072 10.072 0 0 0 512 256c0-.65-.06-1.311-.19-1.95-.13-.64-.33-1.27-.58-1.88zM4.45 264.31c.54.36 1.12.67 1.73.92A10.098 10.098 0 0 0 10 266a10.098 10.098 0 0 0 3.82-.77 9.87 9.87 0 0 0 1.73-.92 9.462 9.462 0 0 0 1.52-1.24c1.86-1.86 2.93-4.44 2.93-7.07 0-.65-.06-1.311-.19-1.95-.13-.64-.33-1.27-.58-1.88-.25-.601-.56-1.18-.92-1.72-.36-.551-.78-1.061-1.24-1.521s-.97-.88-1.52-1.24a10.217 10.217 0 0 0-3.6-1.5 9.847 9.847 0 0 0-3.9 0 10.217 10.217 0 0 0-3.6 1.5c-.55.36-1.06.78-1.52 1.24s-.88.97-1.24 1.521c-.36.54-.67 1.119-.92 1.72a9.69 9.69 0 0 0-.57 1.88c-.13.64-.2 1.3-.2 1.95 0 2.63 1.07 5.21 2.93 7.069.46.461.97.881 1.52 1.241zM208.099 52c5.523 0 9.951-4.478 9.951-10S213.523 32 208 32s-10 4.478-10 10 4.477 10 10 10h.099zM256.049 52c5.523 0 9.951-4.478 9.951-10s-4.526-10-10.049-10-10 4.478-10 10 4.477 10 10 10h.098zM303.901 52H304c5.523 0 9.951-4.478 9.951-10s-4.526-10-10.049-10-10 4.478-10 10 4.476 10 9.999 10zM208 460c-5.523 0-10 4.478-10 10s4.477 10 10 10h.099c5.523 0 9.951-4.478 9.951-10s-4.527-10-10.05-10zM255.951 460c-5.523 0-10 4.478-10 10s4.477 10 10 10h.099c5.523 0 9.951-4.478 9.951-10s-4.527-10-10.05-10zM303.901 460c-5.523 0-10 4.478-10 10s4.477 10 10 10H304c5.523 0 9.951-4.478 9.951-10s-4.527-10-10.05-10z" data-original="#000000" class="active-path"/></svg>