<svg xmlns="http://www.w3.org/2000/svg" width="452.105" height="444.002"><g fill="#5a4e69"><path d="M273.065 253.002c-9.809-7.865 13.945 34.58 12 47-2.653 16.943-26.617 43.055-32 60-3.107 9.781-4.133 30.975-2 41 2.433 11.434 16.3-30.113 22-40 7.731-13.408 26.896-38 26-64-.793-23.018-7.114-28.856-26-44zM269.065 231.002c-2.666-3.633 13.802-.639 18 1 7.557 2.953 30.754 25.352 27 18-12-23.5-25.746-39.227-28-52.002-6-34 5.963-58.744 8-47 5.03 29 4.303 35.299 8 46.5 4.871 14.758 21.962 41.184 28 55.502 4.784 11.348 7.28 25.146 5 49-1.019 10.664-21.017-24.334-28.5-32-9.449-9.678-28.283-26.436-37.5-39zM335.065 99c-2.685 7.839-10.479 25.876-12 35-1.694 10.167 0 27 16 35 0 0 4.17-30.694 5-38 1.584-13.931-3.75-44.285 3-56 4.777-8.291 38.491-28.032 32-21-12 13-16.885 23.833-19 33.148-4.254 18.736 4.307 58.128 0 76.852-2.18 9.48-17 35-17 35-11.205 1.005-22.14-26.019-27-36-5.093-10.458-6.029-32.769-3-44 2.006-7.436 24.777-28.111 22-20zM335.065 253.002c10.551 3.334 24.002 12.336 34 0 6.424-7.926 12.71-40.178 15-54.002 3.202-19.333 18.25-46.06 18-36-.404 16.263-.785 39.024 0 52 .667 11.025 29.865-37.195 35-52 7.313-21.085 13-50 15-88 1.181-22.441-24 83.098-32 84-9.938 1.121-12.713-31.596-24-32-10.289-.369-13.352 18.373-17 28-6.949 18.339-12.847 58.18-23 75.002-4.206 6.969-28.425 20.654-21 23zM233.035 92s-1.04 34.92-4.14 60.73c-1.07 13.72-2.16 23.41-2.83 21.27-.18-.56-.35-1.16-.52-1.79-.16.63-.33 1.23-.51 1.79-.66 2.11-1.73-7.33-2.78-20.81-3.14-25.85-4.19-61.19-4.19-61.19s-.45-31.09 1-57.13c.55-18.95 2.09-34.87 5.97-34.87.18 0 .35.03.521.1.17-.07.34-.1.51-.1 3.87 0 5.41 15.84 5.97 34.74 1.45 26.06 1 57.26 1 57.26z"/><path d="M226.035 367.002c-14.638-62.676-16.284-62.514-21-103-3.56-30.67-4.609-153.202-10.999-123.002-11 52-7.85 84.77-6 113.002 1.7 25.881 13.39 76.67 19 102 4.87 21.971 19 88 19 88h.03s14.13-66.029 19-88c5.61-25.33 17.3-76.119 19-102 1.85-28.232 5-61.002-6-113.002-6.39-30.2-7.44 92.332-11 123.002-3.03 26.1-21 103-21 103h-.03zM179.04 253.002c9.81-7.865-13.945 34.58-12 47 2.653 16.943 26.617 43.055 32 60 3.107 9.781 4.133 30.975 2 41-2.433 11.434-16.3-30.113-22-40-7.73-13.408-26.896-38-26-64 .793-23.018 7.114-28.856 26-44zM183.04 231.002c2.666-3.633-13.802-.639-18 1-7.557 2.953-30.754 25.352-27 18 12-23.5 25.746-39.227 28-52.002 6-34-5.963-58.744-8-47-5.03 29-4.303 35.299-8 46.5-4.87 14.758-21.962 41.184-28 55.502-4.784 11.348-7.279 25.146-5 49 1.02 10.664 21.017-24.334 28.5-32 9.45-9.678 28.283-26.436 37.5-39zM117.04 99c2.685 7.839 10.48 25.876 12 35 1.694 10.167 0 27-16 35 0 0-4.169-30.694-5-38-1.584-13.931 3.751-44.285-3-56-4.777-8.291-38.49-28.032-32-21 12 13 16.885 23.833 19 33.148 4.254 18.736-4.307 58.128 0 76.852 2.181 9.48 17 35 17 35 11.205 1.005 22.14-26.019 27-36 5.093-10.458 6.03-32.769 3-44-2.006-7.436-24.778-28.111-22-20zM117.04 253.002c-10.55 3.334-24.002 12.336-34 0-6.424-7.926-12.71-40.178-15-54.002-3.202-19.333-18.25-46.06-18-36 .404 16.263.785 39.024 0 52-.667 11.025-29.865-37.195-35-52-7.313-21.085-13-50-15-88-1.18-22.441 24 83.098 32 84 9.938 1.121 12.713-31.596 24-32 10.29-.369 13.352 18.373 17 28 6.95 18.339 12.847 58.18 23 75.002 4.206 6.969 28.425 20.654 21 23z"/></g></svg>