<svg xmlns="http://www.w3.org/2000/svg" width="512" height="512"><circle cx="256" cy="256" r="51.2" data-original="#A4C2F7" fill="#a4c2f7"/><ellipse cx="243.2" cy="256" rx="38.4" ry="51.2" data-original="#E3E7F2" fill="#e3e7f2"/><path d="M256 307.2a51.342 51.342 0 0 0 7.315-.581C244.713 303.06 230.4 281.788 230.4 256s14.313-47.06 32.915-50.619A51.174 51.174 0 1 0 256 307.2z" data-original="#FFFFFF" fill="#fff"/><path d="M256 486.4C128.754 486.4 25.6 383.246 25.6 256S128.754 25.6 256 25.6 486.4 128.754 486.4 256c-.145 127.186-103.214 230.255-230.4 230.4zm0-443.733C138.179 42.667 42.667 138.179 42.667 256S138.179 469.333 256 469.333 469.333 373.821 469.333 256C469.201 138.234 373.766 42.799 256 42.667z" data-original="#428DFF" class="active-path" fill="#428dff"/><path d="M59.733 264.533h-51.2a8.533 8.533 0 0 1 0-17.066h51.2A8.533 8.533 0 0 1 68.266 256a8.532 8.532 0 0 1-8.533 8.533zM503.467 264.533h-51.2a8.533 8.533 0 0 1 0-17.066h51.2a8.533 8.533 0 0 1 0 17.066zM358.4 264.533h-51.2a8.533 8.533 0 0 1 0-17.066h51.2a8.533 8.533 0 0 1 0 17.066zM204.8 264.533h-51.2a8.533 8.533 0 0 1 0-17.066h51.2a8.533 8.533 0 0 1 0 17.066zM256 512a8.525 8.525 0 0 1-8.533-8.533v-51.2a8.533 8.533 0 0 1 17.066 0v51.2A8.525 8.525 0 0 1 256 512zM256 68.267a8.525 8.525 0 0 1-8.533-8.533v-51.2a8.533 8.533 0 1 1 17.066-.001v51.2A8.526 8.526 0 0 1 256 68.267zM256 213.333a8.525 8.525 0 0 1-8.533-8.533v-51.2a8.533 8.533 0 0 1 17.066 0v51.2a8.525 8.525 0 0 1-8.533 8.533zM256 366.933a8.525 8.525 0 0 1-8.533-8.533v-51.2a8.533 8.533 0 0 1 17.066 0v51.2a8.525 8.525 0 0 1-8.533 8.533z" data-original="#428DFF" class="active-path" fill="#428dff"/><path d="M256 315.733c-32.99 0-59.733-26.743-59.733-59.733S223.01 196.267 256 196.267c32.99 0 59.733 26.744 59.733 59.733-.04 32.973-26.76 59.693-59.733 59.733zm0-102.4c-23.564 0-42.667 19.103-42.667 42.667s19.103 42.667 42.667 42.667 42.667-19.103 42.667-42.667c-.028-23.553-19.114-42.639-42.667-42.667z" data-original="#428DFF" class="active-path" fill="#428dff"/></svg>