<svg xmlns="http://www.w3.org/2000/svg" width="512" height="512"><path data-original="#87CED9" data-old_color="#643C05" fill="#643c04" d="M256 0L123.586 35.31 0 0v476.69L123.586 512 256 476.69 388.414 512 512 476.69V0L388.414 35.31z"/><path data-original="#71C4D1" data-old_color="#805F0A" fill="#805f0b" d="M52.966 15.13L0 0v476.69L123.586 512V35.31zM256 0v476.69L388.414 512V35.31z"/><path d="M102.744 264.828c-26.094 0-47.245 21.16-47.236 47.254a47.252 47.252 0 0 0 7.927 26.191l39.309 58.968 39.309-58.968c14.477-21.707 8.616-51.032-13.091-65.51a47.283 47.283 0 0 0-26.218-7.935zm0 61.793c-9.754 0-17.655-7.901-17.655-17.655s7.901-17.655 17.655-17.655 17.655 7.901 17.655 17.655-7.9 17.655-17.655 17.655zM379.586 0c-26.094 0-47.245 21.16-47.236 47.254a47.252 47.252 0 0 0 7.927 26.191l39.309 58.968 39.309-58.968c14.468-21.716 8.598-51.041-13.118-65.518A47.252 47.252 0 0 0 379.586 0zm0 61.793c-9.754 0-17.655-7.901-17.655-17.655s7.901-17.655 17.655-17.655 17.655 7.901 17.655 17.655-7.9 17.655-17.655 17.655z" data-original="#DE4C3C" data-old_color="#1E00FF" fill="#2600ff"/><path d="M344.276 441.379H97.103v-17.655h247.172c14.627 0 26.483-11.855 26.483-26.483 0-14.627-11.855-26.483-26.483-26.483H256c-24.373 0-44.138-19.765-44.138-44.138s19.765-44.138 44.138-44.138h185.379c14.627 0 26.483-11.855 26.483-26.483 0-14.627-11.855-26.483-26.483-26.483h-26.483c-24.364-.026-44.111-19.774-44.138-44.138v-26.483h17.655v26.483c0 14.627 11.855 26.483 26.483 26.483h26.483c24.373 0 44.138 19.765 44.138 44.138s-19.765 44.138-44.138 44.138H256c-14.627 0-26.483 11.855-26.483 26.483s11.855 26.483 26.483 26.483h88.276c24.373 0 44.138 19.765 44.138 44.138 0 24.373-19.765 44.138-44.138 44.138z" data-original="#4398D1" fill="#4398d1"/><path data-original="#75462E" fill="#75462e" d="M423.724 150.069l17.655-17.655 17.655 17.655v26.483h-35.31zM238.345 220.69L256 203.034l17.655 17.656v26.482h-35.31z"/><path data-original="#729E1C" data-old_color="#105F04" fill="#106004" d="M88.276 132.414l-35.31 52.965h70.62z"/><path data-original="#88B337" class="active-path" data-old_color="#4E8368" fill="#4d8066" d="M132.414 150.069l-26.483 35.31h52.966z"/><path data-original="#729E1C" data-old_color="#105F04" fill="#106004" d="M203.034 123.586l17.656-52.965 17.655 52.965z"/><path data-original="#75462E" fill="#75462e" d="M211.862 123.586h17.655v26.483h-17.655z"/><path data-original="#5E3825" fill="#5e3825" d="M211.862 123.586h17.655v8.828h-17.655z"/><path data-original="#729E1C" data-old_color="#105F04" fill="#106004" d="M273.655 123.586l17.655-52.965 17.656 52.965z"/><path data-original="#75462E" fill="#75462e" d="M282.483 123.586h17.655v26.483h-17.655z"/><path data-original="#5E3825" fill="#5e3825" d="M282.483 123.586h17.655v8.828h-17.655z"/><path data-original="#729E1C" data-old_color="#105F04" fill="#106004" d="M423.724 414.897l17.655-52.966 17.655 52.966z"/><path data-original="#75462E" fill="#75462e" d="M432.552 414.897h17.655v26.483h-17.655z"/><path data-original="#5E3825" fill="#5e3825" d="M432.552 414.897h17.655v8.828h-17.655z"/></svg>