<svg xmlns="http://www.w3.org/2000/svg" width="453.638" height="441.376"><g fill="#13643a"><path d="M318 305.158c19-14.517 32.277-29.73 40-42 4.131-6.563 4.131-6.563 11-29 2.852-9.312-26.564 12.29-32 20-7.84 11.12-29.81 59.26-19 51zM340 238.158c22.307-28.003 33.838-52.211 46-69 11.22-15.484 41.607-40.345 51-57 6.613-11.727 23-64.667 14-52-14.926 21.007-49.168 59.667-65 80-26.703 34.297-65.805 122.862-46 98zM296 316.824c2.334 11 9.773-42.398 15-55 17.801-42.916 26.695-58.893 38-77.666 17.414-28.92 20.195-48 20-77-.05-7.778-15.555 16.12-18 23-4.063 11.43-7.264 33.27-11.5 43.943-8.752 22.057-30.904 53.839-38.5 73.057-9.75 24.667-8.46 53.347-5 69.666z"/><path d="M249 438.158c-1.84 13.588 20.527-19.333 22-34 3.408-33.947 1.135-92.215 8-122 5.611-24.343 30.781-68.41 39-92 6.06-17.387 13.654-56.563 9.5-75-1.88-8.35-18.42-38.341-16.5-30 4.066 17.667 4.684 49.62 0 67-6.37 23.645-35.086 68.826-43 92-6.215 18.203-12.387 56.832-14 76-2.475 29.422-1 88.48-5 118zM135.637 305.158c-19-14.517-32.275-29.73-40-42-4.13-6.563-4.13-6.563-11-29-2.85-9.312 26.564 12.29 32 20 7.84 11.12 29.81 59.26 19 51zM113.637 238.158c-22.307-28.003-33.836-52.211-46-69-11.219-15.484-41.605-40.345-51-57-6.613-11.727-23-64.667-14-52 14.926 21.007 49.168 59.667 65 80 26.705 34.297 65.804 122.862 46 98zM157.637 316.824c-2.332 11-9.773-42.398-15-55-17.799-42.916-26.695-58.893-38-77.666-17.414-28.92-20.193-48-20-77 .053-7.778 15.555 16.12 18 23 4.064 11.43 7.264 33.27 11.5 43.943 8.754 22.057 30.904 53.839 38.5 73.057 9.75 24.667 8.461 53.347 5 69.666z"/><path d="M204.637 438.158c1.842 13.588-20.527-19.333-22-34-3.408-33.947-1.135-92.215-8-122-5.609-24.343-30.78-68.41-39-92-6.057-17.387-13.654-56.563-9.5-75 1.881-8.35 18.42-38.341 16.5-30-4.066 17.667-4.682 49.62 0 67 6.371 23.645 35.088 68.826 43 92 6.217 18.203 12.387 56.832 14 76 2.476 29.422 1 88.48 5 118zM266.33 124.158c-3.109 56-6 97.33-19.66 175.33-5.139 29.32-4.799 81.34-9.67 118.67-.07.55-.199 1.17-.359 1.84-1.34 5.46-5.56 14.07-9.64 16.16-.06.03-.12.06-.18.08-.062-.021-.12-.05-.18-.08-4.09-2.08-8.302-10.68-9.642-16.14a15.9 15.9 0 0 1-.359-1.86c-4.869-37.33-4.529-89.35-9.67-118.67-13.67-78-16.56-119.33-19.67-175.33-1.3-23.54.29-72.23 9.34-94 3.6-8.68 27.811-37.29 24.5-28.5-8.23 21.83-16.029 86.34-15.5 115.5.77 42.57 2.33 114.71 20.09 169 .141.43.53.71 1.09.9.561-.19.95-.471 1.09-.9 17.76-54.29 19.32-126.43 20.09-169 .531-29.16-7.27-93.67-15.5-115.5-3.309-8.79 20.891 19.82 24.5 28.5 9.051 21.77 10.641 70.46 9.33 94z"/></g></svg>