<svg xmlns="http://www.w3.org/2000/svg" width="477.378" height="529.595"><g fill="#4c0d42"><path d="M213.876 169.648c0 8.366-23.557 5.522-43.055-10.333-15.129-12.303-43.253-42.39-39.565-51.713 7.274-18.383 41.258 29.441 57.648 40.006 19.5 12.568 24.972 11.707 24.972 22.04zM118.206 257.481c-22.804-25.715-52.354-50.805-74.797-74.113-6.667-6.924-27.185-15.742-34.478-24.053-5.098-5.809-12.58-25.999-6.889-30.139 3.4-2.474 9.68 11.924 31.104 28.521 38.242 29.626 100.045 74.02 104.09 97.2 1.956 11.2-14.48 22.082-18.944 31-6.503 12.992 5.731 59.023-9.472 60.28 0 0-11.009-47.495-7.75-60.28 2.408-9.445 22.816-22.01 17.136-28.416zM84.71 90.426s9.361 33.664 13.777 41.334c9.741 16.918 40.271 40.668 49.084 55.971 3.498 6.075 5.828 16.685 5.166 22.391-.835 7.203-9.473 27.416-9.473 27.416s.04-22.492-3.282-29.14c-5.376-10.763-24.796-24.925-33.745-36.666-4.344-5.702-19.749-25.948-21.527-32.892-3.003-11.725 0-48.414 0-48.414zM163.931 218.731c8.768.188-2.785 33.22 0 43.917 1.703 6.54 12.055 23.437 12.917 30.14 1.37 10.636-4.212 30.163-7.75 39.613-5.849 15.618-24.569 36.845-26.693 53.387-1.92 14.96 14.163 63.345 5.278 67.167-10.283 4.425-17.94-40.35-19.34-55.11-2.195-23.134 16.412-65.623 20.088-88.696 1.73-10.843-1.378-34.956 0-46.5 1.356-11.366 7.088-44.098 15.5-43.918z"/><path d="M152.612 170.51c-8.79 9.254 32.487 21.882 44.043 25.834 7.853 2.686 2.29 23.596 0 31-2.755 8.91-11.115 26.025-12.057 35.304-1.755 17.296 6.53 37.983 12.057 68.89 2.578 14.421-10.635 30.528-11.194 38.75-1.135 16.646 13.518 41.808 17.221 55.974 6.555 25.063 0 103.333 12.917 103.333 6.89 0 2.188-77.782-1.722-103.333-2.74-17.912-14.043-52.24-6.889-68.89 2.46-5.725 10.82-13.33 11.193-21.376.711-15.278-16.042-44.078-17.22-58.708-1.069-13.229 5.397-36.627 7.75-49.943 1.801-10.21 8.84-33.794 1.72-41.334-5.26-5.57-14.248-2.017-29.844-6.963-11.715-3.718-25.315-11.338-27.975-8.538zM263.501 169.648c0 8.366 23.558 5.522 43.056-10.333 15.13-12.303 43.253-42.39 39.565-51.713-7.276-18.383-41.258 29.441-57.648 40.006-19.499 12.568-24.973 11.707-24.973 22.04zM359.172 257.481c22.804-25.715 52.354-50.805 74.798-74.113 6.666-6.924 27.184-15.742 34.477-24.053 5.097-5.809 12.581-25.999 6.888-30.139-3.4-2.474-9.68 11.924-31.104 28.521-38.243 29.626-100.046 74.02-104.09 97.2-1.956 11.2 14.48 22.082 18.943 31 6.504 12.992-5.73 59.023 9.473 60.28 0 0 11.007-47.495 7.75-60.28-2.406-9.445-22.814-22.01-17.135-28.416zM392.667 90.426s-9.359 33.664-13.776 41.334c-9.74 16.918-40.27 40.668-49.084 55.971-3.499 6.075-5.83 16.685-5.166 22.391.835 7.203 9.473 27.416 9.473 27.416s-.04-22.492 3.282-29.14c5.376-10.763 24.797-24.925 33.745-36.666 4.344-5.702 19.751-25.948 21.526-32.892 3.002-11.725 0-48.414 0-48.414zM250.035 153.295s-.389 69.182-4.03 114.598c-.026.542-.052 1.06-.13 1.574-1.367 21.365-3.437 37.098-6.483 37.098-.232 0-.465-.078-.696-.207-.235.13-.467.207-.699.207-3.048 0-5.113-15.732-6.483-37.098a29.71 29.71 0 0 1-.129-1.574c-3.669-45.416-4.057-114.598-4.057-114.598s.62-38.053 2.43-76.233c0-.259 0-.518.025-.749C230.996 37.95 233.347-.154 237.997 0c.232 0 .464.104.7.311.23-.207.463-.31.695-.31 4.65-.155 7 37.948 8.214 76.312 0 .258.027.516.027.75 1.806 38.18 2.402 76.232 2.402 76.232zM313.447 218.731c-8.767.188 2.785 33.22 0 43.917-1.702 6.54-12.054 23.437-12.916 30.14-1.37 10.636 4.213 30.163 7.75 39.613 5.848 15.618 24.57 36.845 26.693 53.387 1.92 14.96-14.163 63.345-5.28 67.167 10.285 4.425 17.942-40.35 19.343-55.11 2.194-23.134-16.41-65.623-20.09-88.696-1.728-10.843 1.378-34.956 0-46.5-1.358-11.366-7.089-44.098-15.5-43.918z"/><path d="M324.767 170.51c8.792 9.254-32.486 21.882-44.043 25.834-7.854 2.686-2.288 23.596 0 31 2.755 8.91 11.115 26.025 12.057 35.304 1.756 17.296-6.529 37.983-12.057 68.89-2.578 14.421 10.634 30.528 11.193 38.75 1.136 16.646-13.517 41.808-17.22 55.974-6.555 25.063 0 103.333-12.917 103.333-6.89 0-2.188-77.782 1.721-103.333 2.742-17.912 14.044-52.24 6.89-68.89-2.46-5.725-10.82-13.33-11.194-21.376-.71-15.278 16.043-44.078 17.221-58.708 1.07-13.229-5.398-36.627-7.75-49.943-1.8-10.21-8.84-33.794-1.72-41.334 5.26-5.57 14.248-2.017 29.844-6.963 11.715-3.718 25.313-11.338 27.975-8.538z"/></g></svg>