<svg xmlns="http://www.w3.org/2000/svg" height="512pt" version="1.1" viewBox="0 0 512 512" width="512pt">
<g id="surface1">
<path d="M 432.382812 152.0625 L 467.199219 117.246094 L 394.75 44.800781 L 359.933594 79.617188 C 343.480469 69.851562 325.726562 62.46875 307.199219 57.683594 L 307.199219 8.535156 L 204.800781 8.535156 L 204.800781 57.683594 C 186.273438 62.46875 168.519531 69.851562 152.066406 79.617188 L 117.25 44.800781 L 44.800781 117.25 L 79.617188 152.066406 C 69.851562 168.519531 62.46875 186.273438 57.6875 204.800781 L 8.535156 204.800781 L 8.535156 307.199219 L 57.683594 307.199219 C 62.46875 325.726562 69.851562 343.480469 79.617188 359.933594 L 44.800781 394.75 L 117.246094 467.199219 L 152.0625 432.382812 C 168.519531 442.148438 186.273438 449.53125 204.800781 454.3125 L 204.800781 503.464844 L 307.199219 503.464844 L 307.199219 454.3125 C 325.726562 449.53125 343.480469 442.148438 359.933594 432.382812 L 394.75 467.199219 L 467.199219 394.75 L 432.382812 359.933594 C 442.148438 343.480469 449.53125 325.726562 454.3125 307.199219 L 503.464844 307.199219 L 503.464844 204.800781 L 454.3125 204.800781 C 449.53125 186.273438 442.148438 168.519531 432.382812 152.0625 Z M 273.066406 391.507812 C 267.402344 392.195312 261.703125 392.535156 256 392.53125 C 238.445312 392.578125 221.050781 389.1875 204.800781 382.546875 C 134.988281 354.210938 101.367188 274.644531 129.707031 204.832031 C 158.042969 135.019531 237.609375 101.402344 307.421875 129.738281 C 377.234375 158.078125 410.855469 237.644531 382.515625 307.457031 C 363.9375 353.222656 322.074219 385.371094 273.066406 391.507812 Z M 273.066406 391.507812 " style=" stroke:none;fill-rule:nonzero;fill:rgb(100%,80.392157%,0%);fill-opacity:1;" />
<path d="M 256 119.464844 C 180.59375 119.496094 119.488281 180.644531 119.515625 256.050781 C 119.539062 311.648438 153.269531 361.679688 204.800781 382.546875 L 204.800781 296.105469 C 173.195312 267.859375 170.472656 219.34375 198.71875 187.738281 C 213.292969 171.429688 234.128906 162.117188 256 162.132812 C 264.328125 162.105469 272.605469 163.460938 280.492188 166.144531 L 232.875 213.761719 L 238.933594 256 L 281.171875 262.058594 L 328.789062 214.441406 C 331.472656 222.328125 332.828125 230.605469 332.800781 238.933594 C 332.792969 274.78125 308.011719 305.867188 273.066406 313.855469 L 273.066406 391.507812 C 347.90625 382.292969 401.105469 314.152344 391.890625 239.3125 C 383.445312 170.734375 325.097656 119.273438 256 119.464844 Z M 256 119.464844 " style=" stroke:none;fill-rule:nonzero;fill:rgb(84.705882%,84.313725%,85.490196%);fill-opacity:1;" />
<path d="M 332.800781 238.933594 C 332.828125 230.605469 331.472656 222.328125 328.789062 214.441406 L 281.171875 262.058594 L 238.933594 256 L 232.875 213.761719 L 280.492188 166.144531 C 272.605469 163.460938 264.328125 162.105469 256 162.132812 C 213.613281 162.101562 179.226562 196.4375 179.195312 238.824219 C 179.179688 260.695312 188.492188 281.53125 204.800781 296.105469 L 204.800781 382.546875 C 221.050781 389.1875 238.445312 392.578125 256 392.53125 C 261.703125 392.535156 267.402344 392.195312 273.066406 391.507812 L 273.066406 313.855469 C 308.011719 305.867188 332.792969 274.78125 332.800781 238.933594 Z M 332.800781 238.933594 " style=" stroke:none;fill-rule:nonzero;fill:rgb(53.72549%,53.333333%,56.470588%);fill-opacity:1;" />
<path d="M 512 315.734375 L 512 196.265625 L 460.800781 196.265625 C 456.464844 181.394531 450.503906 167.046875 443.023438 153.480469 L 479.257812 117.25 L 394.777344 32.769531 L 358.542969 69 C 344.972656 61.511719 330.613281 55.542969 315.734375 51.199219 L 315.734375 0 L 196.265625 0 L 196.265625 51.199219 C 181.394531 55.535156 167.046875 61.496094 153.480469 68.976562 L 117.25 32.734375 L 32.769531 117.214844 L 69 153.445312 C 61.511719 167.023438 55.539062 181.382812 51.199219 196.265625 L 0 196.265625 L 0 315.734375 L 51.199219 315.734375 C 55.535156 330.605469 61.496094 344.953125 68.976562 358.519531 L 32.734375 394.75 L 117.214844 479.230469 L 153.445312 443 C 167.023438 450.488281 181.382812 456.460938 196.265625 460.800781 L 196.265625 512 L 315.734375 512 L 315.734375 460.800781 C 330.605469 456.464844 344.953125 450.503906 358.519531 443.023438 L 394.75 479.257812 L 479.230469 394.777344 L 443 358.542969 C 450.488281 344.972656 456.457031 330.613281 460.800781 315.734375 Z M 446.054688 305.058594 C 441.46875 322.800781 434.398438 339.808594 425.054688 355.574219 L 421.640625 361.277344 L 455.117188 394.753906 L 394.753906 455.132812 L 361.277344 421.65625 L 355.574219 425.070312 C 339.8125 434.417969 322.804688 441.488281 305.058594 446.070312 L 298.667969 447.710938 L 298.667969 494.933594 L 213.332031 494.933594 L 213.332031 447.710938 L 206.941406 446.054688 C 189.195312 441.472656 172.1875 434.402344 156.425781 425.054688 L 150.722656 421.640625 L 117.246094 455.132812 L 56.867188 394.753906 L 90.34375 361.277344 L 86.929688 355.574219 C 77.582031 339.808594 70.511719 322.800781 65.929688 305.058594 L 64.289062 298.667969 L 17.066406 298.667969 L 17.066406 213.332031 L 64.289062 213.332031 L 65.945312 206.941406 C 70.527344 189.195312 77.597656 172.1875 86.945312 156.425781 L 90.359375 150.722656 L 56.867188 117.25 L 117.25 56.867188 L 150.726562 90.34375 L 156.425781 86.929688 C 172.1875 77.582031 189.195312 70.511719 206.941406 65.929688 L 213.335938 64.292969 L 213.335938 17.066406 L 298.667969 17.066406 L 298.667969 64.289062 L 305.058594 65.945312 C 322.804688 70.527344 339.8125 77.597656 355.578125 86.945312 L 361.277344 90.359375 L 394.753906 56.867188 L 455.136719 117.246094 L 421.660156 150.722656 L 425.070312 156.425781 C 434.421875 172.1875 441.488281 189.195312 446.074219 206.941406 L 447.726562 213.332031 L 494.933594 213.332031 L 494.933594 298.667969 L 447.710938 298.667969 Z M 446.054688 305.058594 " style=" stroke:none;fill-rule:nonzero;fill:rgb(13.72549%,12.156863%,12.54902%);fill-opacity:1;" />
<path d="M 256 110.933594 C 175.925781 110.890625 110.976562 175.773438 110.9375 255.847656 C 110.90625 312.867188 144.296875 364.609375 196.265625 388.070312 L 196.265625 388.265625 L 201.550781 390.441406 L 201.601562 390.441406 L 213.332031 395.195312 L 213.332031 394.617188 C 227.148438 398.902344 241.535156 401.078125 256 401.066406 C 258.886719 401.066406 261.71875 400.972656 264.535156 400.8125 L 264.535156 401.179688 L 274.101562 399.976562 L 281.601562 399.070312 L 281.601562 398.6875 C 360.4375 384.597656 412.925781 309.269531 398.835938 230.433594 C 386.472656 161.246094 326.28125 110.890625 256 110.933594 Z M 213.332031 376.6875 L 213.332031 292.285156 L 210.484375 289.722656 C 182.40625 264.605469 180.003906 221.480469 205.121094 193.402344 C 218.074219 178.925781 236.578125 170.65625 256 170.667969 C 258.507812 170.667969 261.007812 170.800781 263.5 171.066406 L 223.820312 210.773438 L 231.398438 263.570312 L 284.195312 271.148438 L 323.867188 231.46875 C 324.132812 233.945312 324.265625 236.4375 324.265625 238.933594 C 324.113281 270.742188 302.15625 298.289062 271.183594 305.535156 L 264.535156 307.039062 L 264.535156 383.734375 C 247.164062 384.851562 229.753906 382.453125 213.332031 376.6875 Z M 281.601562 381.464844 L 281.601562 320.375 C 317.027344 309.003906 341.132812 276.140625 341.332031 238.933594 C 341.367188 229.660156 339.855469 220.445312 336.863281 211.667969 L 332.417969 198.75 L 278.1875 253.003906 L 246.496094 248.464844 L 241.929688 216.746094 L 296.183594 162.484375 L 283.265625 158.046875 C 274.484375 155.0625 265.273438 153.558594 256 153.601562 C 208.894531 153.578125 170.691406 191.746094 170.671875 238.851562 C 170.660156 261.785156 179.886719 283.757812 196.269531 299.808594 L 196.269531 369.210938 C 133.789062 336.210938 109.890625 258.808594 142.894531 196.328125 C 175.894531 133.847656 253.296875 109.953125 315.777344 142.953125 C 378.253906 175.953125 402.152344 253.355469 369.152344 315.835938 C 351.261719 349.707031 319.132812 373.78125 281.601562 381.441406 Z M 281.601562 381.464844 " style=" stroke:none;fill-rule:nonzero;fill:rgb(13.72549%,12.156863%,12.54902%);fill-opacity:1;" />
</g>
</svg>