<?xml version="1.0"?>
<svg xmlns="http://www.w3.org/2000/svg" xmlns:xlink="http://www.w3.org/1999/xlink" version="1.1" id="Capa_1" x="0px" y="0px" viewBox="0 0 465 465" style="enable-background:new 0 0 465 465;" xml:space="preserve" width="512px" height="512px" class=""><g><g>
	<path style="fill:#8C463B" d="M243.074,390.261c0.816-0.442,1.633-0.884,2.45-1.326c0.145-0.078,0.29-0.156,0.435-0.235   c0.738-0.398,1.477-0.796,2.217-1.194c0.213-0.114,0.426-0.229,0.639-0.343c0.702-0.376,1.404-0.753,2.108-1.128   c0.226-0.12,0.452-0.241,0.678-0.361c1.974-1.051,3.955-2.098,5.946-3.14c-0.007-0.012-0.015-0.023-0.021-0.036   c-1.882-3.69-0.416-8.207,3.274-10.088c18.999-9.689,39.627-19.08,63.914-26.78L232.5,238.393l-92.232,107.259   c37.429,11.881,66.883,27.975,95.829,43.792c1.411,0.771,2.821,1.541,4.229,2.31c0.905-0.492,1.81-0.984,2.716-1.475   C243.053,390.273,243.063,390.267,243.074,390.261z" data-original="#E43017" class="active-path" data-old_color="#8D473C"/>
	<path style="fill:#7A460C" d="M264.215,386.594c-2.716,0-5.334-1.483-6.666-4.059c-1.991,1.042-3.973,2.088-5.946,3.14   c-0.226,0.12-0.453,0.241-0.678,0.361c-0.704,0.375-1.406,0.752-2.108,1.128c-0.213,0.114-0.427,0.228-0.639,0.343   c-0.74,0.397-1.479,0.795-2.217,1.194c-0.145,0.078-0.29,0.156-0.435,0.235c-0.818,0.441-1.634,0.883-2.45,1.326   c-0.011,0.006-0.022,0.012-0.032,0.018c-0.906,0.491-1.811,0.983-2.716,1.475C295.787,422.024,349.654,450,457.5,450V342.051   c-91.533,0-145.355,21.014-189.884,43.723C266.525,386.33,265.361,386.594,264.215,386.594z" data-original="#FF9926" class="" data-old_color="#7C470C"/>
	<path style="fill:#F7C416" d="M392.402,330.943l-47.24-54.937l-14.688,17.082c-2.702,3.141-7.438,3.497-10.576,0.796l0,0   l-9.948,11.569l30.579,35.561C356.177,336.83,373.321,333.372,392.402,330.943z" data-original="#FECC33" class="" data-old_color="#F6C315"/>
	<path style="fill:#F7C416" d="M7.5,342.051V457.5h361.74c-60.379-11.202-100.832-33.306-140.337-54.893   C171.914,371.465,118.085,342.051,7.5,342.051z" data-original="#FECC33" class="" data-old_color="#F6C315"/>
	<path style="fill:#F7C416" d="M139.91,122c17.781,0,32.248-14.467,32.248-32.249c0-17.782-14.467-32.25-32.248-32.25   c-17.782,0-32.249,14.467-32.249,32.25C107.661,107.533,122.128,122,139.91,122z" data-original="#FECC33" class="" data-old_color="#F6C315"/>
	<path d="M457.5,450c-107.846,0-161.713-27.976-217.174-58.246l0,0c-1.408-0.769-2.818-1.539-4.229-2.31   c-28.946-15.817-58.4-31.912-95.829-43.792L232.5,238.393l92.215,107.239c-24.287,7.7-44.915,17.091-63.914,26.78   c-3.69,1.882-5.156,6.398-3.274,10.088c0.006,0.012,0.015,0.023,0.021,0.036v0c1.332,2.576,3.95,4.059,6.666,4.059   c1.146,0,2.311-0.264,3.401-0.82c44.528-22.708,98.351-43.723,189.884-43.723c4.143,0,7.5-3.358,7.5-7.5s-3.357-7.5-7.5-7.5   c-16.836,0-32.436,0.692-46.978,1.958l-59.674-69.395c-1.425-1.657-3.501-2.61-5.687-2.61s-4.262,0.953-5.687,2.61l-20.375,23.694   c-2.701,3.141-2.344,7.875,0.796,10.576l0,0c3.138,2.7,7.874,2.345,10.576-0.796l14.688-17.082l47.24,54.937   c-19.082,2.429-36.225,5.887-51.875,10.071l-30.579-35.561L238.187,222c-1.425-1.657-3.501-2.61-5.687-2.61   s-4.262,0.953-5.687,2.61L124.456,341.033C92.551,332.488,54.857,327.051,7.5,327.051c-4.143,0-7.5,3.358-7.5,7.5   s3.357,7.5,7.5,7.5c110.585,0,164.414,29.415,221.403,60.556c39.505,21.587,79.958,43.691,140.337,54.893   c25.417,4.716,54.364,7.5,88.26,7.5c4.143,0,7.5-3.358,7.5-7.5S461.643,450,457.5,450z" data-original="#000000" class=""/>
	<path d="M139.91,137c26.053,0,47.248-21.196,47.248-47.249c0-26.053-21.195-47.25-47.248-47.25s-47.249,21.196-47.249,47.25   C92.661,115.804,113.857,137,139.91,137z M139.91,57.502c17.781,0,32.248,14.467,32.248,32.25   c0,17.782-14.467,32.249-32.248,32.249c-17.782,0-32.249-14.467-32.249-32.249C107.661,71.969,122.128,57.502,139.91,57.502z" data-original="#000000" class=""/>
	<path d="M139.91,27.502c4.143,0,7.5-3.358,7.5-7.5V7.5c0-4.142-3.357-7.5-7.5-7.5s-7.5,3.358-7.5,7.5v12.502   C132.41,24.144,135.768,27.502,139.91,27.502z" data-original="#000000" class=""/>
	<path d="M85.287,45.734c1.464,1.465,3.384,2.197,5.303,2.197s3.839-0.732,5.304-2.197c2.929-2.929,2.929-7.678-0.001-10.606   l-8.841-8.84c-2.928-2.93-7.677-2.929-10.606,0c-2.929,2.929-2.929,7.678,0.001,10.606L85.287,45.734z" data-original="#000000" class=""/>
	<path d="M57.658,97.251h12.503c4.143,0,7.5-3.358,7.5-7.5s-3.357-7.5-7.5-7.5H57.658c-4.143,0-7.5,3.358-7.5,7.5   S53.516,97.251,57.658,97.251z" data-original="#000000" class=""/>
	<path d="M85.287,133.768l-8.841,8.84c-2.93,2.929-2.93,7.677-0.001,10.606c1.465,1.465,3.384,2.197,5.304,2.197   c1.919,0,3.839-0.732,5.303-2.197l8.841-8.84c2.93-2.929,2.93-7.677,0.001-10.606C92.964,130.839,88.215,130.838,85.287,133.768z" data-original="#000000" class=""/>
	<path d="M132.41,159.5v12.502c0,4.142,3.357,7.5,7.5,7.5s7.5-3.358,7.5-7.5V159.5c0-4.142-3.357-7.5-7.5-7.5   S132.41,155.358,132.41,159.5z" data-original="#000000" class=""/>
	<path d="M194.532,133.768c-2.928-2.93-7.677-2.929-10.606,0c-2.929,2.929-2.929,7.678,0.001,10.606l8.841,8.84   c1.464,1.465,3.384,2.197,5.303,2.197s3.839-0.732,5.304-2.197c2.929-2.929,2.929-7.678-0.001-10.606L194.532,133.768z" data-original="#000000" class=""/>
	<path d="M202.159,89.751c0,4.142,3.357,7.5,7.5,7.5h12.502c4.143,0,7.5-3.358,7.5-7.5s-3.357-7.5-7.5-7.5h-12.502   C205.517,82.251,202.159,85.609,202.159,89.751z" data-original="#000000" class=""/>
	<path d="M189.229,47.931c1.919,0,3.839-0.732,5.303-2.197l8.841-8.84c2.93-2.929,2.93-7.677,0.001-10.606   c-2.93-2.929-7.679-2.93-10.606,0l-8.841,8.84c-2.93,2.929-2.93,7.677-0.001,10.606C185.391,47.199,187.31,47.931,189.229,47.931z" data-original="#000000" class=""/>
</g></g> </svg>
