<?xml version="1.0"?>
<svg xmlns="http://www.w3.org/2000/svg" xmlns:xlink="http://www.w3.org/1999/xlink" version="1.1" id="Capa_1" x="0px" y="0px" viewBox="0 0 512 512" style="enable-background:new 0 0 512 512;" xml:space="preserve" width="512px" height="512px" class=""><g><g>
	<path style="fill:#FFC342;" d="M496,80l-50,50H276V30h170L496,80z" data-original="#FFC342" class=""/>
	<path style="fill:#FFC342;" d="M496,280l-50,50H276V230h170L496,280z" data-original="#FFC342" class=""/>
</g><path style="fill:#3B2005" d="M336,502H176c0-22.09,17.91-40,40-40c24.962,0,56.553,0,80,0C318.09,462,336,479.91,336,502z" data-original="#ED589D" class="" data-old_color="#3B2006"/><path style="fill:#7687F3" d="M276,462h-40c0-24.792,0-428.206,0-452h40C276,62.768,276,414.662,276,462z" data-original="#444B75" class="active-path" data-old_color="#7A8CFF"/><path style="fill:#FFC342;" d="M236,130v100H66l-50-50l50-50H236z" data-original="#FFC342" class=""/><path d="M316,80c5.52,0,10-4.48,10-10s-4.48-10-10-10s-10,4.48-10,10S310.48,80,316,80z" data-original="#000000" class=""/><path d="M316,280c5.52,0,10-4.48,10-10s-4.48-10-10-10s-10,4.48-10,10S310.48,280,316,280z" data-original="#000000" class=""/><path d="M196,160c-5.52,0-10,4.48-10,10s4.48,10,10,10s10-4.48,10-10S201.52,160,196,160z" data-original="#000000" class=""/><path d="M356,280h60c5.522,0,10-4.478,10-10s-4.478-10-10-10h-60c-5.522,0-10,4.478-10,10S350.478,280,356,280z" data-original="#000000" class=""/><path d="M446,140c2.652,0,5.195-1.054,7.071-2.929l50-50c3.905-3.905,3.905-10.237,0-14.143l-50-50  C451.195,21.054,448.652,20,446,20H286V10c0-5.522-4.478-10-10-10h-40c-5.522,0-10,4.478-10,10v110H66  c-2.652,0-5.195,1.054-7.071,2.929l-50,50c-3.905,3.905-3.905,10.237,0,14.143l50,50C60.805,238.946,63.348,240,66,240h160v212h-10  c-24.146,0-44.348,17.205-48.994,40H136c-5.522,0-10,4.478-10,10s4.478,10,10,10h240c5.522,0,10-4.478,10-10s-4.478-10-10-10  h-31.006c-4.646-22.795-24.847-40-48.994-40h-10V340h160c2.652,0,5.195-1.054,7.071-2.929l50-50c3.905-3.905,3.905-10.237,0-14.143  l-50-50C451.195,221.054,448.652,220,446,220H286v-80H446z M441.857,40l40,40l-40,40H286V40H441.857z M70.143,220l-40-40l40-40H226  v80H70.143z M324.28,492H187.72c4.128-11.639,15.243-20,28.28-20h80C309.036,472,320.152,480.361,324.28,492z M246,452V20h20v432  H246z M441.857,240l40,40l-40,40H286v-80H441.857z" data-original="#000000" class=""/><path d="M356,80h60c5.522,0,10-4.478,10-10s-4.478-10-10-10h-60c-5.522,0-10,4.478-10,10S350.478,80,356,80z" data-original="#000000" class=""/><path d="M156,160H96c-5.522,0-10,4.478-10,10s4.478,10,10,10h60c5.522,0,10-4.478,10-10S161.522,160,156,160z" data-original="#000000" class=""/></g> </svg>
