<?xml version="1.0" encoding="iso-8859-1"?>
<!-- Generator: Adobe Illustrator 19.0.0, SVG Export Plug-In . SVG Version: 6.00 Build 0)  -->
<svg version="1.1" id="Capa_1" xmlns="http://www.w3.org/2000/svg" xmlns:xlink="http://www.w3.org/1999/xlink" x="0px" y="0px"
	 viewBox="0 0 464 464" style="enable-background:new 0 0 464 464;" xml:space="preserve">
<path style="fill:#FCE9CC;" d="M16,120h432v200H16V120z"/>
<path style="fill:#6CBBC7;" d="M0,288h464v32H0V288z"/>
<path style="fill:#FFA900;" d="M48,256c0,17.673,14.327,32,32,32h8c17.673,0,32-14.327,32-32H48z"/>
<path style="fill:#FF8800;" d="M48,224c0,17.673,14.327,32,32,32h8c17.673,0,32-14.327,32-32H48z"/>
<path style="fill:#FF421D;" d="M152,288l8-32h24l8,32H152z"/>
<path style="fill:#FF6536;" d="M216,288l8-32h24l8,32H216z"/>
<path style="fill:#763A02;" d="M288,224h128v64H288V224z"/>
<path style="fill:#592C02;" d="M312,248h80v16h-80V248z"/>
<path style="fill:#FF6536;" d="M16,320h48v144H16V320z"/>
<path style="fill:#FDB62F;" d="M64,320h48v144H64V320z"/>
<path style="fill:#FF6536;" d="M112,320h48v144h-48V320z"/>
<path style="fill:#FDB62F;" d="M160,320h48v144h-48V320z"/>
<path style="fill:#FF6536;" d="M208,320h48v144h-48V320z"/>
<path style="fill:#FDB62F;" d="M256,320h48v144h-48V320z"/>
<path style="fill:#FF6536;" d="M304,320h48v144h-48V320z"/>
<path style="fill:#FDB62F;" d="M352,320h48v144h-48V320z"/>
<g>
	<path style="fill:#FF6536;" d="M400,320h48v144h-48V320z"/>
	<path style="fill:#FF6536;" d="M208,120h48v16c0,13.255-10.745,24-24,24c-13.255,0-24-10.745-24-24V120z"/>
</g>
<path style="fill:#FDB62F;" d="M256,120h48v16c0,13.255-10.745,24-24,24s-24-10.745-24-24V120z"/>
<path style="fill:#FF6536;" d="M304,120h48v16c0,13.255-10.745,24-24,24s-24-10.745-24-24V120z"/>
<path style="fill:#FDB62F;" d="M352,120h48v16c0,13.255-10.745,24-24,24s-24-10.745-24-24V120z"/>
<path style="fill:#FF6536;" d="M400,120h48v16c0,13.255-10.745,24-24,24s-24-10.745-24-24V120z"/>
<path style="fill:#FDB62F;" d="M160,120h48v16c0,13.255-10.745,24-24,24s-24-10.745-24-24V120z"/>
<path style="fill:#FF6536;" d="M112,120h48v16c0,13.255-10.745,24-24,24s-24-10.745-24-24V120z"/>
<path style="fill:#FDB62F;" d="M64,120h48v16c0,13.255-10.745,24-24,24s-24-10.745-24-24V120z"/>
<path style="fill:#FF6536;" d="M16,120h48v16c0,13.255-10.745,24-24,24s-24-10.745-24-24V120z"/>
<path style="fill:#FF421D;" d="M64,120L96,0H56L16,120H64z"/>
<path style="fill:#FFA900;" d="M96,0L64,120h48L136,0H96z"/>
<path style="fill:#FF421D;" d="M112,120h48L176,0h-40L112,120z"/>
<path style="fill:#FFA900;" d="M176,0l-16,120h48l8-120H176z"/>
<path style="fill:#FF421D;" d="M256,0v120h-48l8-120H256z"/>
<path style="fill:#FFA900;" d="M304,120h-48V0h40L304,120z"/>
<path style="fill:#FF421D;" d="M352,120h-48L296,0h40L352,120z"/>
<path style="fill:#FFA900;" d="M400,120h-48L336,0h40L400,120z"/>
<path style="fill:#FF421D;" d="M448,120h-48L376,0h40L448,120z"/>
<g>
</g>
<g>
</g>
<g>
</g>
<g>
</g>
<g>
</g>
<g>
</g>
<g>
</g>
<g>
</g>
<g>
</g>
<g>
</g>
<g>
</g>
<g>
</g>
<g>
</g>
<g>
</g>
<g>
</g>
</svg>
