<?xml version="1.0"?>
<svg xmlns="http://www.w3.org/2000/svg" xmlns:xlink="http://www.w3.org/1999/xlink" version="1.1" id="Capa_1" x="0px" y="0px" viewBox="0 0 512 512" style="enable-background:new 0 0 512 512;" xml:space="preserve" width="512px" height="512px" class=""><g><polygon style="fill:#643C04" points="256,0 123.586,35.31 0,0 0,476.69 123.586,512 256,476.69 388.414,512 512,476.69 512,0   388.414,35.31 " data-original="#87CED9" class="" data-old_color="#643C05"/><g>
	<polygon style="fill:#805F0B" points="52.966,15.13 0,0 0,476.69 123.586,512 123.586,35.31  " data-original="#71C4D1" class="" data-old_color="#805F0A"/>
	<polygon style="fill:#805F0B" points="256,0 256,476.69 388.414,512 388.414,35.31  " data-original="#71C4D1" class="" data-old_color="#805F0A"/>
</g><g>
	<path style="fill:#2600FF" d="M102.744,264.828c-26.094,0-47.245,21.16-47.236,47.254c0,9.322,2.763,18.441,7.927,26.191   l39.309,58.968l39.309-58.968c14.477-21.707,8.616-51.032-13.091-65.51C121.203,267.591,112.075,264.828,102.744,264.828z    M102.744,326.621c-9.754,0-17.655-7.901-17.655-17.655s7.901-17.655,17.655-17.655s17.655,7.901,17.655,17.655   S112.499,326.621,102.744,326.621z" data-original="#DE4C3C" class="" data-old_color="#1E00FF"/>
	<path style="fill:#2600FF" d="M379.586,0c-26.094,0-47.245,21.16-47.236,47.254c0,9.322,2.763,18.441,7.927,26.191l39.309,58.968   l39.309-58.968c14.468-21.716,8.598-51.041-13.118-65.518C398.027,2.763,388.908,0,379.586,0z M379.586,61.793   c-9.754,0-17.655-7.901-17.655-17.655s7.901-17.655,17.655-17.655s17.655,7.901,17.655,17.655S389.341,61.793,379.586,61.793z" data-original="#DE4C3C" class="" data-old_color="#1E00FF"/>
</g><path style="fill:#4398D1;" d="M344.276,441.379H97.103v-17.655h247.172c14.627,0,26.483-11.855,26.483-26.483  c0-14.627-11.855-26.483-26.483-26.483H256c-24.373,0-44.138-19.765-44.138-44.138s19.765-44.138,44.138-44.138h185.379  c14.627,0,26.483-11.855,26.483-26.483c0-14.627-11.855-26.483-26.483-26.483h-26.483c-24.364-0.026-44.111-19.774-44.138-44.138  v-26.483h17.655v26.483c0,14.627,11.855,26.483,26.483,26.483h26.483c24.373,0,44.138,19.765,44.138,44.138  s-19.765,44.138-44.138,44.138H256c-14.627,0-26.483,11.855-26.483,26.483s11.855,26.483,26.483,26.483h88.276  c24.373,0,44.138,19.765,44.138,44.138C388.414,421.614,368.649,441.379,344.276,441.379z" data-original="#4398D1" class=""/><g>
	<polygon style="fill:#75462E;" points="423.724,150.069 441.379,132.414 459.034,150.069 459.034,176.552 423.724,176.552  " data-original="#75462E" class=""/>
	<polygon style="fill:#75462E;" points="238.345,220.69 256,203.034 273.655,220.69 273.655,247.172 238.345,247.172  " data-original="#75462E" class=""/>
</g><polygon style="fill:#106004" points="88.276,132.414 52.966,185.379 123.586,185.379 " data-original="#729E1C" class="" data-old_color="#105F04"/><polygon style="fill:#4D8066" points="132.414,150.069 105.931,185.379 158.897,185.379 " data-original="#88B337" class="active-path" data-old_color="#4E8368"/><polygon style="fill:#106004" points="203.034,123.586 220.69,70.621 238.345,123.586 " data-original="#729E1C" class="" data-old_color="#105F04"/><rect x="211.862" y="123.586" style="fill:#75462E;" width="17.655" height="26.483" data-original="#75462E" class=""/><rect x="211.862" y="123.586" style="fill:#5E3825" width="17.655" height="8.828" data-original="#5E3825" class=""/><polygon style="fill:#106004" points="273.655,123.586 291.31,70.621 308.966,123.586 " data-original="#729E1C" class="" data-old_color="#105F04"/><rect x="282.483" y="123.586" style="fill:#75462E;" width="17.655" height="26.483" data-original="#75462E" class=""/><rect x="282.483" y="123.586" style="fill:#5E3825" width="17.655" height="8.828" data-original="#5E3825" class=""/><polygon style="fill:#106004" points="423.724,414.897 441.379,361.931 459.034,414.897 " data-original="#729E1C" class="" data-old_color="#105F04"/><rect x="432.552" y="414.897" style="fill:#75462E;" width="17.655" height="26.483" data-original="#75462E" class=""/><rect x="432.552" y="414.897" style="fill:#5E3825" width="17.655" height="8.828" data-original="#5E3825" class=""/></g> </svg>
