<svg xmlns="http://www.w3.org/2000/svg" width="507.944" height="433.415"><g fill="#8e160a"><path d="M274.473 430.683c-6.849 13.5 28.534-26.964 38-36 6.275-5.99 27.038-26.01 20.5-28-17.25-5.25-41.203-15.75-21.5-44 20.75-29.75 34-13 39-6 2.906 4.068 3.126-16.098 0-20-3.778-4.715-19.719-4.406-22-10-1.716-4.208-2.31-38.672 7-38 6.41.463-2.231 24.424 4 26 5.61 1.42 61.529-30.69 82-41 22.059-11.109 58.5-29.674 84-52 18.096-15.843-68.413 23.394-90 34-16.564 8.14-57.763 35.588-65 35-5.812-.472-6.23-20.843-12-20-4.845.707-20.507 12.454-23 19-2.896 7.604 2 41.022-5 41-7-.022-7.51-31.728-5-42 8-32.75 35.493-72.11 36-82 2-39-25-39-25-46 0-16.944 14.948-49.358 25-63 21-28.5 74.71-64.712 56.5-56.5-25.5 11.5-46.766 26.72-60.5 38.5-17.397 14.921-38.5 43-43 80-.479 3.934 21.11 10 21 46-.067 22-16.74 41.891-20 54-4.427 16.444-5.94 43.082-4 60 .633 5.515 4.964 16.808 3 22-1.513 4-14.077 21.043-20 27-3.977 4 18.076 28.193 19 39 1.795 21-11.558 48.33-19 63z"/><path d="M362.473 330.683c-2.687 5.522 16.272-7.932 19-13 2.417-4.49.276-16.517 4-20 5.299-4.957 39.236-18.648 51-27 7.207-5.117 32.872-29.02 25-25-23.5 12-76.865 36.697-84 43-8.966 7.92-6 23.5-15 42zM334.473 215.933c-3.177 3.775 25.83.773 28-3.25 21.757-40.346 138-139.5 115-125-49.11 30.96-93.928 69.928-143 128.25zM233.471 430.683c6.849 13.5-28.534-26.964-38-36-6.275-5.99-27.037-26.01-20.5-28 17.25-5.25 41.203-15.75 21.5-44-20.75-29.75-34-13-39-6-2.906 4.068-3.125-16.098 0-20 3.779-4.715 19.719-4.406 22-10 1.717-4.208 2.311-38.672-7-38-6.41.463 2.232 24.424-4 26-5.609 1.42-61.529-30.69-82-41-22.059-11.109-58.5-29.674-84-52-18.096-15.843 68.414 23.394 90 34 16.564 8.14 57.764 35.588 65 35 5.813-.472 6.23-20.843 12-20 4.846.707 20.508 12.454 23 19 2.896 7.604-2 41.022 5 41 7-.022 7.51-31.728 5-42-8-32.75-35.492-72.11-36-82-2-39 25-39 25-46 0-16.944-14.947-49.358-25-63-21-28.5-74.709-64.712-56.5-56.5 25.5 11.5 46.766 26.72 60.5 38.5 17.398 14.921 38.5 43 43 80 .479 3.934-21.109 10-21 46 .068 22 16.74 41.891 20 54 4.427 16.444 5.94 43.082 4 60-.633 5.515-4.964 16.808-3 22 1.513 4 14.077 21.043 20 27 3.977 4-18.076 28.193-19 39-1.795 21 11.557 48.33 19 63z"/><path d="M145.471 330.683c2.688 5.522-16.271-7.932-19-13-2.416-4.49-.275-16.517-4-20-5.299-4.957-39.236-18.648-51-27-7.207-5.117-32.871-29.02-25-25 23.5 12 76.865 36.697 84 43 8.967 7.92 6 23.5 15 42zM173.471 215.933c3.178 3.775-25.83.773-28-3.25-21.756-40.346-138-139.5-115-125 49.109 30.96 93.928 69.928 143 128.25zM305.473 163.683c-.73-18.72-20.18-46.68-39-64-13.07-12.03 30.52 60.94 17 69-4.73 2.82-21.18-15.32-28-19.97-.57-.4-1.07-.7-1.5-.87-.431.17-.931.47-1.5.87-6.82 4.65-23.271 22.79-28 19.97-13.521-8.06 30.069-81.03 17-69-18.82 17.32-38.27 45.28-39 64-.42 10.78 12.189 28.23 15.5 38.5 7.399 22.96 3.84 72.5 7 96.5.95 7.22 12.6 17.85 16.5 24 4.649 7.32 9.859 34.48 12 41.89.189.681.359 1.19.5 1.5.14-.31.31-.819.5-1.5 2.14-7.409 7.35-34.569 12-41.89 3.9-6.15 15.55-16.78 16.5-24 3.16-24-.4-73.54 7-96.5 3.309-10.27 15.92-27.72 15.5-38.5zm-73 30c1.399-9 16-20.78 16-16v39c0 7-5.58 7.5-8 7-7-1.45-9.181-22.39-8-30zm17 81s-2 31-5 31c-6.391 0-11-62-2-62 10 0 7 31 7 31zm14 31c-3 0-5-31-5-31s-3-31 7-31c9 0 4.389 62-2 62zm4-82c-2.42.5-8 0-8-7v-39c0-4.78 14.6 7 16 16 1.179 7.61-1 28.55-8 30z"/></g></svg>