<svg xmlns="http://www.w3.org/2000/svg" height="512pt" viewBox="0 0 512 512" width="512pt"><path d="M432.383 152.063l34.816-34.817-72.449-72.445-34.816 34.816a202.551 202.551 0 0 0-52.735-21.933V8.535H204.801v49.149a202.551 202.551 0 0 0-52.735 21.933L117.25 44.801 44.8 117.25l34.817 34.816a202.407 202.407 0 0 0-21.93 52.735H8.535v102.398h49.149a202.551 202.551 0 0 0 21.933 52.735L44.801 394.75l72.445 72.45 34.817-34.817a202.488 202.488 0 0 0 52.738 21.93v49.152h102.398v-49.152a202.407 202.407 0 0 0 52.735-21.93l34.816 34.816 72.45-72.449-34.817-34.816a202.407 202.407 0 0 0 21.93-52.735h49.152V204.801h-49.152a202.488 202.488 0 0 0-21.93-52.738zM273.066 391.507A140.832 140.832 0 0 1 256 392.53a134.396 134.396 0 0 1-51.2-9.984c-69.812-28.336-103.433-107.902-75.093-177.715 28.336-69.812 107.902-103.43 177.715-75.094 69.812 28.34 103.433 107.907 75.094 177.719-18.579 45.766-60.442 77.914-109.45 84.05zm0 0" fill="#ffcd00"/><path d="M256 119.465c-75.406.031-136.512 61.18-136.484 136.586.023 55.597 33.754 105.629 85.285 126.496v-86.442c-31.606-28.246-34.328-76.761-6.082-108.367A76.742 76.742 0 0 1 256 162.133a75.268 75.268 0 0 1 24.492 4.012l-47.617 47.617L238.934 256l42.238 6.059 47.617-47.618a75.268 75.268 0 0 1 4.012 24.493c-.008 35.847-24.79 66.933-59.735 74.921v77.653c74.84-9.215 128.04-77.356 118.825-152.195-8.446-68.579-66.793-120.04-135.891-119.848zm0 0" fill="#d8d7da"/><path d="M332.8 238.934a75.268 75.268 0 0 0-4.01-24.493l-47.618 47.618L238.934 256l-6.059-42.238 47.617-47.617A75.268 75.268 0 0 0 256 162.133c-42.387-.031-76.773 34.304-76.805 76.691a76.742 76.742 0 0 0 25.606 57.281v86.442A134.396 134.396 0 0 0 256 392.53c5.703.004 11.402-.336 17.066-1.023v-77.653c34.946-7.988 59.727-39.074 59.735-74.921zm0 0" fill="#898890"/><path d="M512 315.734V196.266h-51.2a210.815 210.815 0 0 0-17.777-42.786l36.235-36.23-84.48-84.48L358.542 69a211 211 0 0 0-42.809-17.8V0H196.266v51.2a210.815 210.815 0 0 0-42.786 17.777l-36.23-36.243-84.48 84.48L69 153.446a210.969 210.969 0 0 0-17.8 42.82H0v119.47h51.2a210.815 210.815 0 0 0 17.777 42.785l-36.243 36.23 84.48 84.48L153.446 443a210.969 210.969 0 0 0 42.82 17.8V512h119.47v-51.2a210.815 210.815 0 0 0 42.785-17.777l36.23 36.235 84.48-84.48L443 358.542a211 211 0 0 0 17.8-42.809zm-65.945-10.675a194.6 194.6 0 0 1-21 50.515l-3.414 5.703 33.476 33.477-60.363 60.379-33.477-33.477-5.703 3.414a194.218 194.218 0 0 1-50.515 21l-6.391 1.64v47.224h-85.336V447.71l-6.39-1.656a194.219 194.219 0 0 1-50.516-21l-5.703-3.414-33.477 33.492-60.379-60.38 33.477-33.476-3.414-5.703a194.33 194.33 0 0 1-21-50.515l-1.64-6.391H17.065v-85.336H64.29l1.656-6.39a194.219 194.219 0 0 1 21-50.516l3.414-5.703-33.492-33.473 60.383-60.383 33.477 33.477 5.699-3.414a194.218 194.218 0 0 1 50.515-21l6.395-1.637V17.066h85.332V64.29l6.39 1.656a194.3 194.3 0 0 1 50.52 21l5.7 3.414 33.476-33.492 60.383 60.38-33.477 33.476 3.41 5.703a194.23 194.23 0 0 1 21.004 50.515l1.653 6.391h47.207v85.336H447.71zm0 0" fill="#231f20"/><path d="M256 110.934c-80.074-.043-145.023 64.84-145.063 144.914-.03 57.02 33.36 108.761 85.329 132.222v.196l5.285 2.175h.05l11.731 4.754v-.578a143.655 143.655 0 0 0 42.668 6.45c2.887 0 5.719-.094 8.535-.255v.368l9.567-1.203 7.5-.907v-.382c78.836-14.09 131.324-89.418 117.234-168.254C386.473 161.246 326.28 110.89 256 110.934zm-42.668 265.754v-84.403l-2.848-2.562c-28.078-25.118-30.48-68.243-5.363-96.32A68.216 68.216 0 0 1 256 170.667c2.508 0 5.008.133 7.5.398l-39.68 39.707 7.578 52.797 52.797 7.578 39.672-39.68c.266 2.477.399 4.97.399 7.466-.153 31.808-22.11 59.355-53.082 66.601l-6.649 1.504v76.695a129.466 129.466 0 0 1-51.203-7.046zm68.27 4.777v-61.09c35.425-11.371 59.53-44.234 59.73-81.441a83.523 83.523 0 0 0-4.469-27.266l-4.445-12.918-54.23 54.254-31.692-4.54-4.566-31.718 54.254-54.262-12.918-4.437A83.517 83.517 0 0 0 256 153.602c-47.105-.024-85.309 38.144-85.328 85.25a85.277 85.277 0 0 0 25.598 60.957v69.402c-62.48-33-86.38-110.402-53.375-172.883 33-62.48 110.402-86.375 172.882-53.375 62.477 33 86.375 110.402 53.375 172.883a127.954 127.954 0 0 1-87.55 65.605zm0 0" fill="#231f20"/></svg>