<svg xmlns="http://www.w3.org/2000/svg" width="642.589" height="586.065"><path d="M319.464 579.465c-9.883-4.484-14.117-11.518-29.452-48.921-2.797-6.825-6.482-12.315-12.356-18.412-4.604-4.778-8.771-10.513-9.261-12.744-.876-3.987 2.795-15.98 4.89-15.98.557 0 2.269-1.133 3.804-2.519 1.536-1.385 5.276-4.376 8.313-6.645 4.34-3.244 5.326-4.783 4.61-7.198-2.728-9.213-5.677-20.19-8.172-30.42-1.544-6.334-4.653-17.994-6.908-25.911-2.254-7.917-4.505-16.176-5.002-18.354-.496-2.177-1.404-3.958-2.018-3.958-1.49 0-8.26 21.082-11.093 34.547-1.308 6.217-2.642 22.244-3.146 37.787-.482 14.844-1.397 26.99-2.033 26.99-1.592 0-6.186-5.082-10.953-12.115-2.192-3.233-4.327-6.202-4.746-6.598-.418-.396-3.002-3.635-5.741-7.198-5.996-7.798-4.986-6.677-20.282-22.533-17.213-17.842-37.23-35.507-56.027-49.44-7.558-5.604-26.247-21.917-29.683-25.911a754.746 754.746 0 0 0-6.289-7.198c-7.415-8.357-7.895-9.848-4.377-13.593 1.761-1.875 8.043-5.739 13.958-8.586 5.97-2.873 10.355-5.826 9.855-6.634-.495-.801-3.302-2.682-6.238-4.18-2.935-1.498-9.296-5.699-14.134-9.336-4.839-3.637-9.224-6.613-9.745-6.613-.521 0-2.46-1.458-4.307-3.239-1.847-1.781-6.908-6.015-11.245-9.408-7.461-5.837-26.41-24.778-34.168-34.153-9.828-11.877-30.042-44.594-28.503-46.133.286-.285 3.185 1.884 6.443 4.822 3.257 2.937 7.125 6.313 8.596 7.5 7.194 5.81 18.636 15.26 20.035 16.548.864.795 3.703 3.065 6.31 5.044 2.605 1.98 6.109 4.806 7.784 6.281 1.676 1.476 5.315 4.39 8.086 6.478 2.77 2.087 5.92 4.632 7 5.654 1.078 1.023 12.09 9.385 24.47 18.583 12.38 9.198 24.777 18.425 27.548 20.505 8.763 6.577 35.162 24.032 37.787 24.985 5.718 2.075 1.037 5.84-11.876 9.552a752.844 752.844 0 0 0-10.077 2.968c-1.979.608-6.351 1.932-9.716 2.942-3.365 1.01-6.118 2.402-6.118 3.093 0 3.33 39.572 40.028 43.162 40.028 1.884 0 17.128-17.087 19.669-22.047 6.993-11.84 15.371-23.983 19.195-37.305 1.475-3.07 2.11-6.005 2.904-9.002 0-2.702-1.566-4.14-7.558-6.946-22.008-10.305-26.887-12.508-27.71-12.508-.495 0-5.233-2.01-10.527-4.466-5.294-2.456-13.512-6.27-18.262-8.476-30.502-14.161-55.605-27.26-66.16-34.522-3.483-2.396-6.695-4.357-7.137-4.357-.442 0-1.945-.936-3.34-2.08-1.394-1.143-6.745-5.142-11.891-8.887-13.582-9.883-41.326-38.32-50.235-51.489-7.428-10.979-15.67-27.382-21.61-43.008-2.875-7.559 2.311-4.288 12.586 7.939 10.8 12.853 27.127 28.97 41.985 41.446 5.146 4.32 9.68 8.211 10.076 8.645.396.434 2.987 2.346 5.758 4.25 2.771 1.902 5.362 3.872 5.758 4.377 1.357 1.729 35.263 23.921 43.904 28.736 19.299 10.752 38.307 19.999 58.3 28.359 2.77 1.158 6.009 2.57 7.197 3.138 1.187.567 10.904 3.803 21.592 7.191 27.822 8.82 27.82 8.82 28.482 8.157.33-.331-.805-3.42-2.525-6.864-2.031-4.065-5.945-8.263-11.159-11.968-17.143-12.181-20.117-14.827-28.666-25.497-18.463-23.045-38.183-60.338-54.997-104.005-11.462-29.768-14.96-39.155-23.333-62.617-13.752-38.535-16.512-46.044-20.507-55.78-4.066-9.91-2.944-11.368 3.467-4.504 9.555 10.229 26.712 42.052 53.842 99.87 22.044 46.978 35.726 71.583 51.174 92.027 3.944 5.219 14.697 17.041 21.484 23.618 7.7 7.464 19.99 16.854 20.736 15.846 1.211-1.637 6.652-31.747 6.64-36.75-.013-5.22-.924-6.965-6.852-13.11-28.789-29.844-39.679-44.336-52.777-70.234-8.66-17.12-12.425-27.693-16.744-47.01-3.193-14.282-2.41-18.68-1.373-16.929 2.44 3.021 2.588 4.593 6.272 10.409 4.81 7.548 8.794 14.713 21.732 39.082 10.738 20.226 21.642 35.092 36.023 49.114 9.356 9.123 27.13 22.524 34.874 26.295 2.538 1.236 4.88 2.95 5.205 3.81.568 1.506-.68 20.236-2.645 39.71-1.882 18.646-10.392 54.408-16.652 69.977-1.653 4.11-1.488 4.82 1.987 8.568 2.085 2.247 4.219 3.657 4.743 3.133 1.175-1.175 2.047-5.664 8.318-42.813 4.906-29.06 5.763-35.445 7.443-55.42 1.644-19.551 3.704-34.643 5.888-43.13 2.635-10.245 8.954-21.716 10.893-19.776 1.399 1.398 1.915 53.24.592 59.385-.417 1.937-1.12 8.704-1.563 15.037a5437.428 5437.428 0 0 1-2.186 29.51c-1.962 25.542-1.856 27.878 1.431 31.668 1.584 1.826 2.88 3.822 2.88 4.436 0 .614.835 1.973 1.857 3.019 2.332 2.388 13.977 22.597 13.977 24.255 0 .676.61 1.606 1.357 2.067.746.461 2.596-1.93 4.111-5.313 1.515-3.383 5.769-10.135 9.452-15.003 11.773-15.56 12.795-21.037 8.85-47.418-3.484-23.304-6.342-53.559-6.514-68.966-.297-26.585.01-33.827 1.433-33.827 1.915 0 7.803 11.878 10.703 21.592 1.3 4.354 3.652 18.281 5.226 30.949 1.574 12.667 3.12 24.975 3.436 27.35.985 7.412 6.431 36.797 9.471 51.101 1.598 7.522 3.66 17.415 4.581 21.986 1.78 8.834 2.992 9.467 7.235 3.783 2.623-3.513 2.584-3.78-3.031-20.782-8.646-26.175-13.392-48.46-16.59-77.898-1.7-15.653-1.104-22.094 2.043-22.094.853 0 6.356-3.243 12.228-7.205 14.193-9.577 33.131-28.866 43.2-44 6.996-10.514 25.164-41.717 25.164-43.218 0-1.835 13.43-27.897 15.878-30.812l3.022-3.599-.955 9.973c-1.973 20.605-14.038 54.22-26.386 73.517-5.047 7.887-23.245 32.422-26.804 36.137-10.684 11.153-17.7 19.097-19.847 22.471-3.438 5.403-3.059 14.292 1.15 26.99 1.958 5.91 3.57 12.064 3.583 13.676.046 6.138 2.008 6.454 7.912 1.275 20.42-17.913 32.598-32.84 48.365-59.286 5.035-8.444 19.066-37.7 31.18-65.014 28.475-64.201 33.767-74.82 49.65-99.628 9.25-14.445 11.822-16.736 9.133-8.132-3.28 10.493-34.217 103.958-35.43 107.04-.624 1.583-2.555 7.09-4.29 12.235-3.106 9.212-9.075 25.313-11.474 30.95-.673 1.583-3.97 9.356-7.325 17.273-11.689 27.582-23.642 49.166-34.361 62.05-2.046 2.459-4.9 6.124-6.342 8.145-1.442 2.021-6.562 6.487-11.377 9.924-13.63 9.728-18.328 14.162-21.408 20.198-4.589 8.995-2.834 9.327 13.815 2.617 1.583-.638 5.146-1.95 7.917-2.915 2.77-.966 7.784-2.974 11.14-4.464 3.356-1.49 6.49-2.709 6.965-2.709 3.508 0 54.576-26.06 73.809-37.666 5.029-3.035 9.428-5.518 9.776-5.518.348 0 1.912-1.192 3.476-2.649 1.564-1.456 4.605-3.562 6.757-4.678 2.153-1.116 4.895-2.813 6.094-3.77 1.198-.958 6.478-4.887 11.732-8.731 5.253-3.844 13.01-9.862 17.238-13.373 12.582-10.452 41.924-40.673 47.342-48.762 7.045-10.517 14.395-17.35 14.395-13.382 0 3.412-11.919 31.684-15.921 37.766-1.303 1.98-5.36 8.152-9.015 13.717-8.292 12.624-27.7 33.504-41.554 44.705-5.787 4.679-10.846 8.833-11.242 9.23-.396.398-1.77 1.371-3.054 2.163-1.284.791-6.142 4.096-10.796 7.344-10.303 7.19-26.821 17.224-39.41 23.939-5.147 2.745-11.806 6.383-14.799 8.086-14.952 6.22-29.844 15.02-42.06 21.17-29.199 14.673-31.65 16.198-31.431 19.55.295 4.517 13.85 33.437 18.583 39.651 4.582 7.415 17.648 23.864 24.135 24.927 5.36 0 39.775-34.994 39.808-40.478.006-.903-5.75-2.554-20.147-5.777-3.46-.537-15.612-4.363-17.39-6.425-1.6-1.93-1.543-2.502.358-3.566 1.246-.697 6.074-4.082 10.728-7.52 9.546-7.053 31.125-22.789 36.448-26.579 1.932-1.375 6.242-4.768 9.577-7.54 3.335-2.77 10.308-8.499 15.494-12.729 5.187-4.23 10.917-8.99 12.735-10.579 1.817-1.588 5.819-4.928 8.892-7.423 3.073-2.494 6.984-5.831 8.692-7.414 1.707-1.584 7.289-6.442 12.404-10.797 14.329-12.196 16.929-14.499 26.4-23.38 4.847-4.546 9.33-8.27 9.961-8.277 1.041-.01-11.001 24.646-13.704 28.059-.627.791-4.84 6.621-9.362 12.955-12.655 17.726-35.625 41.473-52.217 53.98-2.625 1.98-8.698 6.723-13.494 10.54-4.797 3.818-10.524 8.006-12.727 9.307-2.203 1.302-4.005 2.716-4.005 3.144 0 .428 2.105 1.626 4.678 2.663s5.803 2.49 7.178 3.23c10.38 5.623 7.397 3.896 10.38 5.623 1.936 1.037 3.879 2.816 4.315 3.954 1.685 4.39-17.944 26.352-38.96 43.59-5.308 4.354-10.371 8.565-11.251 9.357-.88.791-5.796 4.985-10.923 9.318-5.127 4.334-9.694 8.399-10.149 9.033-.455.635-7.923 8.425-16.596 17.312-18.827 19.29-26.513 28.38-36.185 42.788-3.986 5.938-8.535 11.958-10.11 13.378-2.84 2.562-2.871 2.425-3.842-17.273-1.127-22.868-4.076-43.31-8.105-56.18-4.32-13.8-8.647-24.854-9.727-24.853-.825 0-2.093 5.451-6.824 29.33-1.068 5.393-6.683 27.754-9.261 36.885-4.697 16.631-4.879 18.592-1.84 19.797 1.494.591 5.75 3.018 9.46 5.393 12.662 8.107 14.15 20.784 3.776 32.189-7.792 8.566-11.945 16.02-18.676 33.524-6.802 17.687-10.534 24.982-15.603 30.502-7.049 7.675-14.187 9.75-21.747 6.32zm13.28-13.651c3.853-9.536 10.9-31.095 11.955-36.57.86-4.468 9.625-27.773 10.742-28.562.56-.396 1.786-2.177 2.724-3.958 1.418-2.693 1.334-3.24-.504-3.24-2.95 0-7.212 4.421-10.7 11.097-4.441 8.502-9.051 12.908-15.539 14.852-11.6 3.476-24.212-3.35-26.844-14.527-1.298-5.512-5.826-9.982-10.114-9.982-4.574 0-4.677.62-.785 4.739 5.826 6.164 8.062 11.594 17.878 43.41 4.775 15.479 13.238 32.47 16.166 32.457.604-.003 2.864-4.375 5.022-9.716zm-.905-71.618c2.735-4.147.35-7.045-5.8-7.045-6.897 0-9.035 2.23-6.813 7.105 1.384 3.039 2.531 3.645 6.203 3.278 2.538-.254 5.336-1.711 6.41-3.338zm-21.766-51.258c-10.81-43.17-11.048-44.534-10.424-59.573.414-9.98 1.393-15.995 3.189-19.611 3.327-6.697 6.114-6.027 11.598 2.788 3.805 6.116 4.248 6.425 4.74 3.307 1.258-7.99-10.847-34.4-21.188-46.223-4.295-4.91-4.462-4.966-6.61-2.203-4.1 5.277-5.399 13.917-4.55 30.273 1.592 30.706 11.46 73.84 24.043 105.082 3.337 8.287 2.917.997-.798-13.84zm31.911 6.592c7.678-21.218 14.926-53.54 17.9-79.82 2.046-18.083 1.045-39.096-2.234-46.895l-2.383-5.666-6.386 6.928c-3.512 3.81-6.385 7.488-6.385 8.174 0 .685-.828 2.102-1.84 3.148-4.518 4.674-14.263 33.063-12.093 35.232 1.388 1.388 3.715-.928 6.204-6.173 2.944-6.205 5.534-7.414 9.055-4.228 8.252 7.468 7.732 36.31-1.294 71.832-6.565 25.837-6.313 24.41-4.2 23.706.875-.292 2.52-3.099 3.656-6.238zm-14.603-37.328c0-11.374-.496-21.177-1.103-21.784-.607-.607-1.903-.304-2.88.674-1.2 1.202-1.764 6.998-1.741 17.897.04 19.031 1.473 28.145 4.025 25.593 1.148-1.148 1.7-8.406 1.7-22.38zm-91.407 18.133c0-4.087 4.647-17.664 12.867-37.596 9.24-22.406 11.454-33.942 8.913-46.428-1.009-4.955-2.75-9.95-3.87-11.098-3.444-3.532-9.697 4.259-20.872 26.002-10.812 21.039-19.34 28.46-26.4 35.127-2.355 2.223-5.185 3.259-5.185 3.83 0 1.296 12.825 16.648 17.445 20.882 4.797 4.396 14.728 11.756 16.023 11.874.594.055 1.08-1.112 1.08-2.593zm183.65-3.138c2.627-1.623 10.324-8.91 17.105-16.194l12.33-13.244-3.98-2.863c-6.25-4.497-20.429-19.054-22.071-22.66-6.003-13.18-24.258-41.412-26.777-41.412-.939 0-3.116 3.724-4.838 8.277-4.57 12.082-3.362 23.215 4.422 40.755 11.522 25.96 16.155 38.09 16.87 44.174.396 3.365 1.045 6.118 1.442 6.118.398 0 2.871-1.328 5.498-2.951z" fill="#8f919a"/></svg>