<svg xmlns="http://www.w3.org/2000/svg" width="494.728" height="509.728"><path d="M494.548 170.059l-26.296 26.296s-13.754-40.496-20.169-51.725c-6.916-12.069-30.662-46.439-30.662-46.439l-2.63-48.227s-7.835 38.551-12.28 50.855c-3.864 10.704-13.99 28.506-21.037 40.313-12.857 21.564-58.955 72.315-69.685 72.315-12.807-.026-10.78-47.78-14.463-87.225C294.381 94.744 299.956 0 292.066 0c-7.889 0-3.338 103.869-3.497 138.502-.105 22.377.5 87.357 18.407 87.646 9.861.158 54.485-40.759 67.477-56.09 9.677-11.413 28.926-43.836 28.926-43.836s22.563 19.275 27.611 27.611c6.258 10.308 19.722 48.647 19.722 48.647s-37.998 14.805-50.83 19.302c-12.622 4.418-55.618 21.353-56.959 21.879 1.027-1.184 27.034-31.241 21.46-29.769-5.839 1.552-56.774 36.604-59.168 44.704-1.55 5.26 32.608-2.104 42.942-5.259 12.28-3.734 36.367-13.7 48.227-17.54 10.021-3.234 41.181-8.757 41.181-8.757l-34.186 44.704-68.37 5.259-46.439 6.995 8.31-8.31-8.31-57.431h3.497s-3.549-19.907-8.757-18.407c0 0 .236 29.557.868 38.576.552 7.679 6.417 23.982 2.63 30.688-1.55 2.735-9.099 4.471-10.072 7.442-2.709 8.31.16 34.421-9.203 33.738 0 0-3.076-39.55-5.26-52.593-2.077-12.411-7.703-32.582-10.754-49.2-2.263-12.413-4.155-50.305-4.155-50.305s-1.893 37.892-4.155 50.305c-3.05 16.618-8.678 36.789-10.755 49.2-2.183 13.043-5.259 52.593-5.259 52.593-9.362.683-6.496-25.429-9.204-33.738-.974-2.972-8.52-4.707-10.07-7.442-3.788-6.705 2.076-23.009 2.628-30.688.632-9.02.868-38.576.868-38.576-5.206-1.5-8.757 18.407-8.757 18.407h3.498l-8.31 57.431 8.31 8.31-46.439-6.995-68.37-5.259-34.186-44.704s31.162 5.522 41.18 8.757c11.86 3.84 35.947 13.806 48.228 17.54 10.335 3.155 44.493 10.519 42.941 5.259-2.393-8.1-53.328-43.152-59.166-44.704-5.575-1.473 20.432 28.585 21.458 29.769-1.342-.526-44.336-17.461-56.958-21.879-12.833-4.497-50.83-19.302-50.83-19.302s13.463-38.34 19.721-48.647c5.048-8.336 27.611-27.611 27.611-27.611s19.25 32.423 28.926 43.836c12.99 15.331 57.616 56.248 67.476 56.09 17.908-.288 18.514-65.269 18.408-87.646C206 103.869 210.55 0 202.66 0s-2.313 94.744-5.26 126.222c-3.68 39.444-1.656 87.198-14.463 87.225-10.729 0-56.825-50.751-69.685-72.315-7.048-11.807-17.17-29.608-21.037-40.313-4.444-12.305-12.28-50.855-12.28-50.855l-2.629 48.227s-23.747 34.37-30.662 46.439c-6.416 11.229-20.169 51.725-20.169 51.725L.18 170.059c-2.788 6.39 27.664 52.54 39.444 68.37 8.94 11.99 37.683 43.836 37.683 43.836s-20.432 13.148-15.778 17.514c4.522 4.26 25.875-4.813 25.875-4.813s15.988 19.486 22.194 25.98c7.916 8.284 34.343 30.557 34.343 30.557s-28.242 26.111-18.854 26.743c8.178.552 29.373-19.723 29.373-19.723l34.185 21.906s-2.498-9.571-4.103-12.411c-1.394-2.473-7.31-8.626-7.31-8.626v7.889l-14.885-13.147s24.613-9.913 32.424-14.017c5.495-2.892 21.037-13.148 21.037-13.148s-1.498 27.296 2.63 35.054c1.445 2.709 9.65 7.573 9.65 7.573l5.26-54.039 6.257.999.737 61.244s-12.675 12.07-14.016 17.54l6.127 30.661-28.032-28.032c-6.338 2.42 14.095 37.183 17.514 49.963 3.604 13.41 3.971 42.205 10.31 54.565 1.155 2.288 7.23 7.231 7.23 7.231s-4.55-40.443-3.84-53.959c.474-9.309 6.47-36.764 6.47-36.764l5.26 9.204 5.258-9.204s5.996 27.455 6.47 36.764c.711 13.516-3.84 53.959-3.84 53.959s6.073-4.943 7.231-7.231c6.338-12.36 6.705-41.155 10.308-54.565 3.418-12.78 23.852-47.543 17.514-49.963l-28.032 28.032 6.128-30.661c-1.34-5.47-14.017-17.54-14.017-17.54l.737-61.244 6.258-.999 5.26 54.039s8.204-4.864 9.65-7.573c4.13-7.758 2.63-35.054 2.63-35.054s15.541 10.257 21.037 13.148c7.81 4.104 32.423 14.017 32.423 14.017l-14.884 13.147v-7.889s-5.917 6.153-7.312 8.626c-1.603 2.84-4.1 12.411-4.1 12.411l34.185-21.905s21.193 20.274 29.372 19.723c9.39-.632-18.854-26.743-18.854-26.743s26.428-22.272 34.342-30.557c6.207-6.494 22.195-25.98 22.195-25.98s21.354 9.072 25.875 4.813c4.656-4.365-15.777-17.514-15.777-17.514s28.741-31.846 37.683-43.836c11.782-15.831 42.231-61.981 39.444-68.371zm-285.76 144.63c-7.1 7.599-49.306 28.663-55.223 27.164-9.888-2.474-45.02-39.183-44.704-47.334.29-7.126 39.182-4.154 51.278-5.259 11.254-.999 35.946-1.264 45.15 5.259 4.708 3.339 7.443 15.963 3.498 20.17zm30.686-9.652l7.89-35.053 7.89 35.053h-15.78zm101.688 36.816c-5.916 1.499-48.12-19.565-55.222-27.164-3.944-4.207-1.21-16.831 3.497-20.17 9.204-6.522 33.896-6.258 45.151-5.259 12.095 1.104 50.987-1.867 51.277 5.259.317 8.151-34.816 44.86-44.703 47.334z" fill="#6f1a2d"/></svg>