<svg xmlns="http://www.w3.org/2000/svg" viewBox="0 0 53.987 53.987"><path d="M12.658 4.363a.997.997 0 0 0 .41-.089 21.391 21.391 0 0 1 3.609-1.223 1 1 0 0 0-.483-1.942 23.381 23.381 0 0 0-3.948 1.341 1 1 0 0 0 .412 1.913zM20.365 2.365a.875.875 0 0 0 .125-.008 47.72 47.72 0 0 1 3.901-.316A1 1 0 0 0 25.348 1a.992.992 0 0 0-1.041-.957 49.91 49.91 0 0 0-4.065.33.999.999 0 0 0 .123 1.992zM36.095 2.772c1.343.27 2.586.617 3.695 1.028a1.003 1.003 0 0 0 1.286-.589 1.001 1.001 0 0 0-.589-1.286A26.673 26.673 0 0 0 36.491.811a1 1 0 0 0-.396 1.961zM28.327 2a53.9 53.9 0 0 1 3.918.216 1 1 0 0 0 .189-1.992A56.894 56.894 0 0 0 28.368 0a.982.982 0 0 0-1.021.979A1 1 0 0 0 28.327 2zM47.44 11.222c.346 1.104.556 2.343.625 3.683a1 1 0 0 0 .998.949c.018 0 .035 0 .052-.002a.998.998 0 0 0 .947-1.05c-.077-1.507-.317-2.913-.714-4.178a1 1 0 0 0-1.908.598zM45.796 7.979a1 1 0 0 0 1.598-1.202 13.03 13.03 0 0 0-3.137-2.949 1 1 0 0 0-1.119 1.658 11.037 11.037 0 0 1 2.658 2.493zM8.225 27.468a1 1 0 0 0-1.836.794 30.377 30.377 0 0 0 1.906 3.668 1 1 0 1 0 1.71-1.038 28.013 28.013 0 0 1-1.78-3.424zM49.032 17.852a.993.993 0 0 0-1.103.886 39.029 39.029 0 0 1-.632 3.847 1 1 0 1 0 1.956.416c.304-1.432.528-2.793.664-4.046a.999.999 0 0 0-.885-1.103zM4.931 17.173a1 1 0 0 0 .994-1.006l-.001-.221a17.153 17.153 0 0 1 .342-3.539 1.001 1.001 0 0 0-1.958-.415c-.256 1.211-.386 2.542-.385 3.954l.001.233a1 1 0 0 0 1 .994h.007zM8.624 4.679a12.399 12.399 0 0 0-2.797 3.294 1 1 0 1 0 1.728 1.006 10.424 10.424 0 0 1 2.35-2.765 1 1 0 0 0-1.281-1.535zM47.549 25.703a1 1 0 0 0-1.286.589 26.313 26.313 0 0 1-1.613 3.495.999.999 0 1 0 1.752.964 28.27 28.27 0 0 0 1.736-3.763 1 1 0 0 0-.589-1.285zM42.573 33.064a39.233 39.233 0 0 1-1.95 2.476 4.447 4.447 0 0 0-2.116-.553 4.505 4.505 0 0 0-4.5 4.5c0 .73.191 1.41.501 2.021a42.663 42.663 0 0 1-2.33 1.764c-1.798-1.822-4.335-3.006-4.763-3.197a1.003 1.003 0 0 0-.817 0c-.428.192-2.968 1.377-4.767 3.202a43.103 43.103 0 0 1-2.325-1.77c.309-.61.5-1.29.5-2.019 0-2.481-2.019-4.5-4.5-4.5a4.44 4.44 0 0 0-2.115.553c-.406-.479-.81-.961-1.183-1.445a1 1 0 1 0-1.584 1.22c.395.513.825 1.025 1.255 1.533a4.46 4.46 0 0 0-.872 2.639c0 2.481 2.019 4.5 4.5 4.5 1.028 0 1.965-.36 2.723-.942a44.968 44.968 0 0 0 2.38 1.815c-.371.661-.603 1.372-.603 2.127 0 3.85 5.917 6.611 6.591 6.913a1.005 1.005 0 0 0 .818 0c.675-.302 6.591-3.063 6.591-6.913 0-.757-.234-1.47-.606-2.132a44.126 44.126 0 0 0 2.385-1.809 4.456 4.456 0 0 0 2.721.941c2.481 0 4.5-2.019 4.5-4.5a4.46 4.46 0 0 0-.872-2.638 42.032 42.032 0 0 0 2.063-2.619 1.001 1.001 0 0 0-1.625-1.167zm-29.566 6.423c0-1.378 1.122-2.5 2.5-2.5s2.5 1.122 2.5 2.5c0 .587-.212 1.121-.552 1.548-.014.014-.032.021-.045.036-.014.017-.018.038-.031.056a2.484 2.484 0 0 1-1.872.86 2.503 2.503 0 0 1-2.5-2.5zm14 12.393c-1.645-.82-5-2.901-5-4.893 0-1.985 3.356-4.07 5-4.893 1.645.82 5 2.901 5 4.893 0 1.985-3.356 4.07-5 4.893zm11.5-9.893c-1.378 0-2.5-1.122-2.5-2.5s1.122-2.5 2.5-2.5 2.5 1.122 2.5 2.5-1.121 2.5-2.5 2.5zM6.249 20.01a1 1 0 0 0-1.979.293c.18 1.217.437 2.534.785 4.005l.974-.228.951-.323a45.366 45.366 0 0 1-.731-3.747z"/></svg>