<svg xmlns="http://www.w3.org/2000/svg" viewBox="0 0 511.998 511.998"><path d="M460.967 303.399h-21.764a103.692 103.692 0 0 1-39.543-7.796l-15.01-6.159-.048-.02-102.38-42.006c-22.037-9.041-38.34-28.313-43.61-51.538l-18.381-81.706a7.51 7.51 0 0 0 .003-1.976l-.929-6.877c-1.39-10.293-8.008-18.663-17.703-22.385-9.69-3.719-20.204-1.934-28.123 4.781a7.198 7.198 0 0 0-.388.354l-36.798 35.921-43.204 16.822a7.5 7.5 0 0 0-4.269 9.711 7.5 7.5 0 0 0 9.711 4.269l52.152-20.307a171.488 171.488 0 0 1 23.729-7.315l6.116 27.22-9.084 2.461a7.5 7.5 0 0 0-5.278 9.201c1.06 3.913 5.28 6.343 9.201 5.278l8.452-2.29 5.598 24.915-10.235 2.773a7.5 7.5 0 0 0-5.278 9.201c1.06 3.913 5.28 6.343 9.201 5.278l9.604-2.602 1.655 7.366a88.055 88.055 0 0 0 8.207 22.005l-9.21 4.915a7.5 7.5 0 0 0-3.086 10.149c1.909 3.578 6.572 4.995 10.149 3.086l10.35-5.523a88.401 88.401 0 0 0 22.136 20.201l-6.895 7.101a7.503 7.503 0 0 0 .156 10.607c2.907 2.823 7.775 2.76 10.607-.156l10.021-10.32.052.022 28.081 12.1-4.359 6.825a7.5 7.5 0 0 0 2.284 10.358c.041.026.084.043.125.068-30.6 2.698-59.336 15.348-82.26 36.462l-.166.153-20.56-7.618a7.502 7.502 0 0 0-5.212 14.068l93.284 34.565a7.499 7.499 0 0 0 2.606.467h188.401c10.509 0 20.122-6.18 24.485-15.744a11.94 11.94 0 0 1 10.837-6.97h12.306l-.021 18.667c-.083 19.029-15.622 34.51-34.642 34.51h-.882v-8.336c0-9.653-15.002-9.669-15.002 0v8.336h-45.213v-8.336c0-9.653-15.002-9.669-15.002 0v8.336h-42.252v-8.336c0-9.653-15.002-9.669-15.002 0v8.336h-38.303v-8.336c0-9.653-15.002-9.669-15.002 0v8.336h-13.905l-80.632-24.145a7.498 7.498 0 0 0-8.737 3.595l-11.205 20.55h-31.421v-8.336c0-9.653-15.002-9.669-15.002 0v8.336H76.179v-8.336c0-9.653-15.002-9.669-15.002 0v8.33c-20.172-.135-36.541-16.589-36.541-36.803v-28.217h107.763c9.653 0 9.669-15.002 0-15.002H65.467l-6.616-10.755c-5.14-8.356-5.039-19.092.259-27.349l13.639-21.26c11.858-18.486 6.683-43.497-11.538-55.754l-16.534-11.123V186.77 181.141a7.858 7.858 0 0 1 4.729-7.22l22.229-8.655a7.5 7.5 0 1 0-5.442-13.98l-22.343 8.7a22.82 22.82 0 0 0-12.464 12.491c-3.085-1.192-6.401-1.711-9.735-1.429-7.901.67-14.792 5.771-18.906 13.993-4.145 8.281-2.689 16.31-1.454 20.36 2.088 6.84 5.983 10.362 9.418 13.47 1.656 1.499 3.221 2.914 4.701 4.788 3.533 4.477 5.586 10.506 6.146 17.92L19.985 245a79.17 79.17 0 0 0-7.175 32.815v59.508a7.486 7.486 0 0 0-3.173 6.12v35.718c0 28.569 23.233 51.811 51.792 51.811h103.934c2.745 0 5.272-1.5 6.586-3.911l10.424-19.121 75.859 22.715a7.5 7.5 0 0 0 2.151.315h201.661c23.474 0 43.236-16.459 48.347-38.458a7.462 7.462 0 0 0 1.608-4.632v-33.43c-.001-28.149-22.894-51.051-51.032-51.051zm-115.354-13.756l31.415 12.89c.985 1.713.468 3.382.15 4.101-.378.856-1.553 2.827-4.37 2.754l-83.148-2.461a142.238 142.238 0 0 0-8.158-.001 7.435 7.435 0 0 0 1.714-1.865l5.674-8.885 12.496 5.385.114.048a37.797 37.797 0 0 0 14.417 2.87c11.55-.001 22.604-5.368 29.696-14.836zm-41.64-17.084l26.909 11.041c-6.222 5.612-15.466 7.487-23.618 4.158l-10.191-4.392 6.9-10.807zM168.98 113.046l14.38-14.037c3.651-2.99 8.442-3.766 12.863-2.067 4.498 1.727 7.568 5.61 8.213 10.388l.091.673a185.092 185.092 0 0 0-35.547 5.043zm20.196 11.403a171.17 171.17 0 0 1 17.646-1.527l5.162 22.946-16.963 4.596-5.845-26.015zm9.136 40.666l16.966-4.598 5.605 24.914-16.973 4.599-5.598-24.915zm17.492 65.804a73.055 73.055 0 0 1-6.807-18.249l-1.795-7.989 16.992-4.604a88.069 88.069 0 0 0 8.406 21.879l-16.796 8.963zm27.823 28.852a73.28 73.28 0 0 1-19.388-16.348l16.688-8.904a88.42 88.42 0 0 0 13.764 13.858l-11.064 11.394zm14.355 6.751l9.358-9.637a87.975 87.975 0 0 0 9.186 4.413l13.342 5.474-6.756 10.578-25.13-10.828zm226.417 81.272c-10.509-.001-20.12 6.179-24.484 15.743a11.94 11.94 0 0 1-10.838 6.97H262.02l-55.427-20.537c23.283-19.024 52.326-28.944 82.625-28.047l83.148 2.461c9.425.28 17.87-6.421 19.802-15.639l1.798.738a118.619 118.619 0 0 0 45.236 8.919h21.764c17.592 0 32.272 12.685 35.403 29.391h-11.97zM33.616 251.262l1.195-2.602a7.466 7.466 0 0 0 1.804-3.93l.887-1.931a78.387 78.387 0 0 0 5.403-16.206l9.932 6.681c11.505 7.738 14.772 23.531 7.284 35.205l-13.638 21.259c-8.389 13.077-8.55 30.076-.41 43.31l1.781 2.895H27.81v-58.128a64.05 64.05 0 0 1 5.806-26.553zM20.77 207.745c-2.95-2.669-4.291-3.966-5.133-6.724-.469-1.536-1.356-5.515.521-9.267 1.012-2.021 3.235-5.459 6.759-5.758 2.467-.206 4.979 1.033 6.757 3.221v20.767c0 2.418-.152 4.841-.431 7.251a39.186 39.186 0 0 0-2.06-2.871c-2.258-2.861-4.562-4.945-6.413-6.619z"/></svg>