<svg xmlns="http://www.w3.org/2000/svg" width="529.821" height="457.335"><path d="M518.433 141.26c-9.51-22.55-29-58.58-47.67-80.5-11.86-13.93 10.4 19.641 21.22 52.82 11.84 36.3 12.76 73.9 7.78 91.66-3 10.689-36.32-50.73-51.66-81.82-2.67-5.4-2.36 54.51-12.67 85.34-4.08 12.189-60.16-25.91-61.33-33.24-1.59-9.92 48.66-80.76 67.33-144.76 2.52-8.641-1.61-.41-6.22 9.41-17.78 37.92-53.95 110.13-79.11 124.92-5.42 3.189-23.939-9.141-21.17-15 15.17-32.07 19.09-65.01 25.5-90.67 5.33-21.33-40.51 28.92-71.39 42-1.74.74-4.58-13.051-8.03-31.08-4.52-23.59-10.08-54.45-15.58-69.58a1.931 1.931 0 0 0-.52-.76c-.24.21-.42.46-.53.76-5.5 15.141-11.06 46.03-15.58 69.62-3.45 18.01-6.29 31.78-8.02 31.04-30.88-13.08-76.73-63.33-71.4-42 6.42 25.66 10.34 58.6 25.5 90.67 2.771 5.859-15.74 18.189-21.16 15-25.17-14.79-61.34-87-79.12-124.92-4.609-9.82-8.739-18.051-6.22-9.41 18.67 64 68.92 134.84 67.34 144.76-1.18 7.33-57.26 45.43-61.34 33.24-10.3-30.83-10-90.74-12.66-85.34-15.35 31.09-48.67 92.51-51.67 81.82-4.979-17.76-4.06-55.36 7.78-91.66 10.82-33.18 33.08-66.75 21.22-52.82-18.67 21.92-38.16 57.95-47.67 80.5-10.14 24.04-19.66 100.45.34 104.37 14.76 2.89 44.33-46.21 56.33-64.87 6.7-10.42 11.13 52.87 23 49.33 18.97-5.65 53.33-24 73.33-31.85 9.01-3.541 18.61 23.14 21 32.52 2.25 8.83-2.84 38.01-10.16 35-15.64-6.43-52.43-42.85-50.17-29.67 4 23.33 28.37 83.12 12 74-25.12-14-54.46-64.46-70-85.65-9.36-12.76 7.28 49.04 32 78.32 12.09 14.32 35.33 29.38 58.67 46.66 15.09 11.189 2-53.66-5-75-2.859-8.69 28.01 15.99 35.66 21 6.1 4 .57-33.311 4.021-27.33 16.17 28 24.26 46.77 26.48 67.33 1.92 17.84-.46 50.24-.46 83.72 0 16.7 3.96-15.72 7.79-36.38 1.78-9.64 12.55 23.73 14.57 32.38 2.39 10.26 4.318 26.28 6.648 41.62.57 3.72 4.95-11.8 8.74-12.64.16-.04.31-.05.46-.03 3.74.4 4.81 10.86 8.11 12.67.05.03.11.05.17.08.06-.03.11-.05.16-.08 3.3-1.81 4.37-12.27 8.11-12.67.15-.02.3-.01.46.03 3.79.84 8.17 16.359 8.74 12.64 2.33-15.34 4.26-31.36 6.66-41.62 2.01-8.649 12.778-42.02 14.568-32.38 3.82 20.66 7.78 53.08 7.78 36.38 0-33.479-2.38-65.88-.46-83.72 2.22-20.561 10.31-39.33 26.48-67.33 3.45-5.98-2.08 31.33 4.02 27.33 7.65-5.01 38.52-29.69 35.67-21-7 21.34-20.1 86.189-5 75 23.33-17.28 46.57-32.34 58.66-46.66 24.72-29.28 41.36-91.08 32-78.32-15.54 21.19-44.87 71.65-70 85.65-16.37 9.12 8-50.67 12-74 2.26-13.18-34.53 23.24-50.17 29.67-7.32 3.01-12.41-26.17-10.16-35 2.39-9.38 11.99-36.061 21-32.52 20 7.85 54.37 26.199 73.33 31.85 11.87 3.54 16.31-59.75 23-49.33 12 18.66 41.57 67.76 56.34 64.87 20.003-3.92 10.472-80.33.333-104.37zm-243 1.83c1.05-1.029 2.48-1.59 4.18-1.76 9.69-1.04 27.91 10.42 32.07 17.76 3.33 5.87 2.66 20.8 0 27-3.26 7.609-25.66 38.529-33.71 38.35-1.2-.029-2.09-.75-2.54-2.35-3.25-11.5-2.74-76.32 0-79zm0 109c.5-.92 1.2-2.05 2.06-3.33 7.381-11.04 26.11-32.949 25.44-26.67-2 18.609-8.88 51.36-13.75 68-1.66 5.67-8.53-11.66-12.01-24.86v-.01c-1.66-6.29-2.55-11.64-1.74-13.13zm-11.05-197h1.05c4.39 0 2.66 23.779 2.67 31.75.01 7.37.59 28.32-2.38 28.37h-1.62c-2.97-.05-2.399-21-2.38-28.37.01-7.971-1.73-31.75 2.66-31.75zm-2.27 75.311c.03-.051.18-.261.22-.311.42-.5 1.5-.721 2.58-.689 1.08-.021 2.15.189 2.57.689.04.05.08.1.11.16 2.22 2.529 1.01 12.72-2.21 12.84-.16.01-.79.01-.95 0-3.16-.12-4.38-9.939-2.32-12.689zm-11.91 10.929c1.7.17 3.13.73 4.18 1.76 2.74 2.68 3.25 67.5 0 79-.45 1.6-1.34 2.32-2.54 2.35-8.05.18-30.45-30.74-33.71-38.35-2.66-6.2-3.33-21.13 0-27 4.16-7.34 22.38-18.8 32.07-17.76zm2.44 123.91v.02c-3.479 13.2-10.35 30.5-12.01 24.83-4.87-16.64-11.75-49.391-13.75-68-.67-6.27 18.05 15.62 25.44 26.66.85 1.279 1.56 2.41 2.06 3.34.81 1.49-.08 6.85-1.74 13.15zm-68.26-78.15c.09-3.26 6.24-14.17 7-11 2.84 11.83 5.84 24.5 9 44 1.02 6.29-16.26-23.58-16-33zm25-84c1.13-5.75 20.22 11.65 35 19 5.85 2.9-25.77 11.02-35 12-3.32.35-2.12-20.13 0-31zm17.5 218c-8.75-20-15.29-45.29-17.5-61-.49-3.47-1.55-17.141 0-14 8.75 17.67 15.28 36.94 17.5 50 1.05 6.16 2.51 30.73 0 25zm28.79 97.72v.011c-.24.569-.66.409-1.29-.73-8.729-15.67-12.99-24.24-14.75-33-1.08-5.39-1.08-5.39 1-22 .76-6.07 9.1 16.1 10.75 22 1.23 4.39 3.23 16.11 4.11 24.57v.01c.47 4.499.63 8.069.18 9.139zm9.71 25.28a.926.926 0 0 1-.47-.1c-.15.069-.31.109-.48.1-2.279-.08-1.62-6.72-1.55-9 .06-1.93-.13-7.5 1.8-7.5.08 0 .16.01.23.03a.74.74 0 0 1 .22-.03c1.93 0 1.74 5.57 1.8 7.5.07 2.28.73 8.92-1.55 9zm6.62-85.6c-1.17 10.149-4.945 17.308-7.09 17.35-1.578.031-5.93-7.2-7.1-17.35-2.04-9.23-3.34-19.75-3.43-25.4-.19-11.52 4.34-45 10-45h1.05c5.67 0 10.19 33.48 10 45-.09 5.65-1.39 16.17-3.43 25.4zm18.18 26.6c-1.75 8.76-6.02 17.33-14.75 33-.63 1.14-1.05 1.3-1.29.73v-.011c-.45-1.069-.29-4.64.18-9.14v-.01c.88-8.46 2.88-20.181 4.11-24.57 1.65-5.9 9.99-28.07 10.75-22 2.08 16.611 2.08 16.611 1 22.001zm30.25-125c-2.21 15.71-8.75 41-17.5 61-2.5 5.73-1.05-18.84 0-25 2.22-13.06 8.75-32.33 17.5-50 1.55-3.141.49 10.53 0 14zm0-126c-9.22-.98-40.85-9.1-35-12 14.79-7.35 33.88-24.75 35-19 2.12 10.87 3.32 31.35 0 31zm9 86c3.17-19.5 6.17-32.17 9-44 .76-3.17 6.91 7.74 7 11 .26 9.42-17.02 39.29-16 33z" fill="#775a29"/></svg>