<svg viewBox="-31 1 511 511.999" xmlns="http://www.w3.org/2000/svg"><path d="M413.633 173.797a2972.693 2972.693 0 0 0-8.606-44.54c.063-.44.106-.89.106-1.35 0-1.86-.52-3.594-1.403-5.087a3021.242 3021.242 0 0 0-14.273-66.453c-.012-.066-.031-.133-.043-.199-6.844-30.176-11.476-48.3-11.57-48.656A9.993 9.993 0 0 0 368.16 0H81.98a9.993 9.993 0 0 0-9.601 7.219c-.098.332-5.27 18.3-12.766 48.914-.015.066-.035.133-.047.203a2182.887 2182.887 0 0 0-15.796 69.527c-.02.078-.04.157-.051.239a2256.632 2256.632 0 0 0-7.297 36.132c-13.149 67.97-28.32 163.618-33.805 264.547a9.744 9.744 0 0 0-.074 1.176c0 .04.004.078.004.117C1.238 452.52.5 477.266.5 502c0 5.52 4.477 10 10 10h153.113c5.516 0 9.992-4.469 9.996-9.988.004-1.864.727-184.39 43.496-304.032h15.739C275.8 317.55 276.332 500.137 276.332 502c0 5.523 4.477 10 9.996 10h153.11c5.523 0 10-4.48 10-10 0-111.488-19.473-240.016-35.805-328.203zM235.859 68.328v38.953c0 13.43-8.672 24.875-20.71 29.035V68.328zm-77.054-20.004V20h20v28.324zm-81.575 20h56.465c-13.511 25.856-38.664 43.918-67.539 48.45a2191.524 2191.524 0 0 1 11.074-48.45zm121.57-20V20h51.126v28.324zM269.927 20h19.996v28.324h-19.996zm112.12 96.941a89.964 89.964 0 0 1-67.452-48.617h57.023a3032.168 3032.168 0 0 1 10.43 48.617zm-14.968-68.617h-57.156V20h50.426a2157.282 2157.282 0 0 1 6.73 28.324zM138.808 20v28.324H82.157c3.2-12.683 5.774-22.316 7.418-28.324zm242.587 472c-.899-19.273-1.903-37.7-3.008-55.305a9.982 9.982 0 0 0 5.144-8.738c0-4.227-2.625-7.832-6.332-9.293-7.43-107.543-19.05-182.894-35.855-233.816-1.73-5.246-7.387-8.094-12.63-6.36-5.245 1.73-8.093 7.383-6.362 12.63 16.191 49.062 27.464 122.198 34.761 226.843h-13.578c-5.52 0-10 4.477-10 10 0 5.52 4.48 9.996 10 9.996h14.899a3437.33 3437.33 0 0 1 2.941 54.047h-65.168c-.203-10.879-.734-29.98-2.14-54.047h19.472c5.52 0 9.996-4.477 9.996-9.996 0-5.523-4.476-10-9.996-10h-20.777c-.645-8.895-1.399-18.25-2.29-27.95-7.8-84.765-21.702-153.933-41.316-205.577a9.997 9.997 0 0 0-9.347-6.45h-29.684a9.994 9.994 0 0 0-9.352 6.465c-19.515 51.64-33.382 120.797-41.218 205.559-.899 9.699-1.657 19.055-2.305 27.953h-24.723c-5.52 0-10 4.477-10 10 0 5.52 4.48 9.996 10 9.996h23.403c-1.426 24.07-1.973 43.172-2.188 54.047H90.023a3550.19 3550.19 0 0 1 2.93-54.047h9.578c5.524 0 10-4.477 10-9.996 0-5.523-4.476-10-10-10h-8.265c2.25-32.438 4.863-61.55 7.882-87.883.63-5.484-3.308-10.441-8.796-11.07-5.477-.637-10.446 3.308-11.07 8.797-3.098 26.996-5.77 56.855-8.063 90.156h-1.684c-5.523 0-10 4.477-10 10 0 5.52 4.477 9.996 10 9.996h.38a3580.597 3580.597 0 0 0-2.911 54.047H20.539c.145-18.07.68-36.125 1.531-54.047h20.47c5.519 0 9.995-4.477 9.995-9.996 0-5.523-4.476-10-9.996-10H23.152c5.84-96.055 20.285-186.664 32.86-251.691 1.93-9.973 3.86-19.582 5.77-28.817 41.636-3.687 78.011-30.437 93.933-69.129h39.437v79.66c0 5.524 4.477 10 10 10 27.957 0 50.703-22.746 50.703-50.703V68.324h36.86a109.913 109.913 0 0 0 93.5 69.207c15.45 77.633 32.953 181.2 40.015 280.43h-22.699c-5.523 0-10 4.477-10 9.996 0 5.523 4.477 10 10 10h23.985c1.039 18.3 1.691 36.379 1.87 54.043zm0 0"/><path d="M235.887 32.707c-.13-.64-.32-1.262-.57-1.871-.25-.598-.56-1.18-.919-1.719a9.332 9.332 0 0 0-1.242-1.52 9.511 9.511 0 0 0-1.52-1.25c-.55-.359-1.128-.671-1.73-.921a10.218 10.218 0 0 0-1.867-.57 9.98 9.98 0 0 0-3.91 0c-.64.132-1.262.32-1.871.57-.598.25-1.18.562-1.719.922a9.342 9.342 0 0 0-1.52 1.25 9.378 9.378 0 0 0-1.25 1.52c-.359.538-.671 1.12-.921 1.718a10.038 10.038 0 0 0-.567 5.781c.13.64.317 1.27.567 1.867a9.913 9.913 0 0 0 2.172 3.25c.46.461.968.883 1.52 1.243.538.359 1.12.668 1.718.918.61.25 1.23.44 1.87.57.65.129 1.302.2 1.962.2.648 0 1.308-.071 1.95-.2a10.01 10.01 0 0 0 1.866-.57c.602-.25 1.184-.56 1.73-.918a9.86 9.86 0 0 0 3.68-4.493c.25-.597.442-1.226.57-1.867.13-.64.2-1.3.2-1.949 0-.652-.07-1.313-.2-1.961zm0 0M122.688 178.488c-5.243-1.734-10.899 1.114-12.63 6.36-5.75 17.418-10.964 38.011-15.503 61.207a10.001 10.001 0 0 0 9.824 11.922c4.687 0 8.867-3.313 9.8-8.082 4.383-22.38 9.383-42.153 14.872-58.782 1.73-5.242-1.117-10.898-6.363-12.625zm0 0M107.2 285.121c-.25-.601-.56-1.18-.919-1.719a9.332 9.332 0 0 0-1.242-1.52 9.804 9.804 0 0 0-1.52-1.25 10.2 10.2 0 0 0-3.597-1.491 9.98 9.98 0 0 0-3.91 0 10.85 10.85 0 0 0-1.871.57 9.991 9.991 0 0 0-3.238 2.172c-.462.457-.883.969-1.25 1.52-.36.538-.673 1.117-.923 1.718-.25.61-.437 1.23-.57 1.871a9.978 9.978 0 0 0-.187 1.957c0 .653.058 1.313.187 1.953a10.2 10.2 0 0 0 1.492 3.598 9.991 9.991 0 0 0 4.489 3.68c.609.25 1.242.437 1.87.57.65.129 1.31.2 1.962.2.648 0 1.308-.071 1.949-.2a10.218 10.218 0 0 0 3.598-1.488 9.54 9.54 0 0 0 1.52-1.242c.46-.461.882-.97 1.241-1.52a10.182 10.182 0 0 0 1.688-5.55c0-.66-.07-1.31-.2-1.958-.128-.64-.32-1.262-.57-1.87zm0 0"/></svg>